<?xml version="1.0" encoding="UTF-8" standalone="no"?>
<!-- Created with Inkscape (http://www.inkscape.org/) -->

<svg
   xmlns:dc="http://purl.org/dc/elements/1.1/"
   xmlns:cc="http://creativecommons.org/ns#"
   xmlns:rdf="http://www.w3.org/1999/02/22-rdf-syntax-ns#"
   xmlns:svg="http://www.w3.org/2000/svg"
   xmlns="http://www.w3.org/2000/svg"
   xmlns:sodipodi="http://sodipodi.sourceforge.net/DTD/sodipodi-0.dtd"
   xmlns:inkscape="http://www.inkscape.org/namespaces/inkscape"
   width="210mm"
   height="297mm"
   viewBox="0 0 210 297"
   version="1.1"
   id="svg893"
   inkscape:version="0.92.3 (2405546, 2018-03-11)"
   sodipodi:docname="kaffeemaschinen-schild-DIN-pathified_fonts.svg">
  <defs
     id="defs887" />
  <sodipodi:namedview
     id="base"
     pagecolor="#ffffff"
     bordercolor="#666666"
     borderopacity="1.0"
     inkscape:pageopacity="0.0"
     inkscape:pageshadow="2"
     inkscape:zoom="0.7"
     inkscape:cx="-7.89046"
     inkscape:cy="474.48499"
     inkscape:document-units="mm"
     inkscape:current-layer="g1757"
     showgrid="false"
     inkscape:window-width="1920"
     inkscape:window-height="1047"
     inkscape:window-x="1920"
     inkscape:window-y="0"
     inkscape:window-maximized="1" />
  <metadata
     id="metadata890">
    <rdf:RDF>
      <cc:Work
         rdf:about="">
        <dc:format>image/svg+xml</dc:format>
        <dc:type
           rdf:resource="http://purl.org/dc/dcmitype/StillImage" />
        <dc:title></dc:title>
      </cc:Work>
    </rdf:RDF>
  </metadata>
  <g
     inkscape:label="Layer 1"
     inkscape:groupmode="layer"
     id="layer1">
    <g
       id="g1731"
       transform="translate(9.3974152)">
      <rect
         y="13.517858"
         x="15.875"
         height="163.56265"
         width="159.45517"
         id="rect1654"
         style="fill:#009a3b;fill-opacity:1;stroke:none;stroke-width:1.32655239;stroke-linecap:round;stroke-linejoin:bevel;stroke-miterlimit:4;stroke-dasharray:none;stroke-opacity:1" />
      <g
         style="fill:#ffffff;stroke:none"
         transform="matrix(0.23644704,0,0,0.23644704,24.87387,46.055201)"
         id="g1517">
        <g
           style="fill:#ffffff;stroke:none"
           id="g1442">
          <g
             style="fill:#ffffff;stroke:none"
             id="g1440">
            <path
               style="fill:#ffffff;stroke:none"
               inkscape:connector-curvature="0"
               d="m 179.361,99.903 c -11.41,-11.41 -16.454,-17.005 -16.452,-30.089 -0.002,-13.079 5.044,-18.674 16.457,-30.089 9.089,-9.087 9.089,-23.82 0.002,-32.909 -9.087,-9.09 -23.825,-9.087 -32.914,-0.002 -12.699,12.698 -30.095,30.09 -30.09,62.999 -0.005,32.914 17.388,50.305 30.089,63.001 11.411,11.413 16.457,17.011 16.457,30.092 0,12.854 10.42,23.273 23.273,23.273 12.853,0 23.273,-10.418 23.273,-23.273 -0.002,-32.913 -17.394,-50.305 -30.095,-63.003 z"
               id="path1438" />
          </g>
        </g>
        <g
           style="fill:#ffffff;stroke:none"
           id="g1448">
          <g
             style="fill:#ffffff;stroke:none"
             id="g1446">
            <path
               style="fill:#ffffff;stroke:none"
               inkscape:connector-curvature="0"
               d="m 287.967,99.903 c -11.41,-11.41 -16.454,-17.005 -16.452,-30.089 -0.002,-13.079 5.044,-18.674 16.457,-30.089 9.089,-9.087 9.089,-23.82 0.002,-32.909 -9.087,-9.09 -23.825,-9.087 -32.914,-0.002 -12.699,12.698 -30.095,30.092 -30.09,62.999 -0.005,32.914 17.388,50.305 30.089,63.001 11.411,11.413 16.457,17.011 16.457,30.092 0,12.854 10.42,23.273 23.273,23.273 12.853,0 23.273,-10.418 23.273,-23.273 -0.001,-32.913 -17.394,-50.305 -30.095,-63.003 z"
               id="path1444" />
          </g>
        </g>
        <g
           style="fill:#ffffff;stroke:none"
           id="g1454">
          <g
             style="fill:#ffffff;stroke:none"
             id="g1452">
            <path
               style="fill:#ffffff;stroke:none"
               inkscape:connector-curvature="0"
               d="m 381.401,403.393 h 21.993 c 0.022,0 0.039,-0.003 0.061,-0.003 47.023,-0.031 85.273,-38.298 85.273,-85.331 0,-47.053 -38.281,-85.334 -85.334,-85.334 H 372.364 62.06 c -12.853,0 -23.273,10.422 -23.273,23.273 v 77.576 c 0,52.193 22.528,99.221 58.37,131.879 H 46.545 c -12.853,0 -23.273,10.418 -23.273,23.273 0,12.851 10.42,23.273 23.273,23.273 h 170.667 170.667 c 12.853,0 23.273,-10.422 23.273,-23.273 0,-12.854 -10.42,-23.273 -23.273,-23.273 h -50.612 c 18.837,-17.164 33.99,-38.295 44.134,-62.06 z m 14.236,-69.818 v -54.303 h 7.758 c 21.388,0 38.788,17.4 38.788,38.788 0,21.388 -17.4,38.788 -38.788,38.788 -0.011,0 -0.02,0 -0.031,0 h -9.245 c 0.996,-7.619 1.518,-15.387 1.518,-23.273 z"
               id="path1450" />
          </g>
        </g>
        <g
           style="fill:#ffffff;stroke:none"
           id="g1456" />
        <g
           style="fill:#ffffff;stroke:none"
           id="g1458" />
        <g
           style="fill:#ffffff;stroke:none"
           id="g1460" />
        <g
           style="fill:#ffffff;stroke:none"
           id="g1462" />
        <g
           style="fill:#ffffff;stroke:none"
           id="g1464" />
        <g
           style="fill:#ffffff;stroke:none"
           id="g1466" />
        <g
           style="fill:#ffffff;stroke:none"
           id="g1468" />
        <g
           style="fill:#ffffff;stroke:none"
           id="g1470" />
        <g
           style="fill:#ffffff;stroke:none"
           id="g1472" />
        <g
           style="fill:#ffffff;stroke:none"
           id="g1474" />
        <g
           style="fill:#ffffff;stroke:none"
           id="g1476" />
        <g
           style="fill:#ffffff;stroke:none"
           id="g1478" />
        <g
           style="fill:#ffffff;stroke:none"
           id="g1480" />
        <g
           style="fill:#ffffff;stroke:none"
           id="g1482" />
        <g
           style="fill:#ffffff;stroke:none"
           id="g1484" />
      </g>
      <path
         sodipodi:nodetypes="ccccccccccccscccccc"
         style="fill:#009a3b;fill-rule:evenodd;stroke-width:0.10144585;image-rendering:optimizeQuality;shape-rendering:geometricPrecision;text-rendering:geometricPrecision"
         inkscape:connector-curvature="0"
         id="path876"
         d="m 77.194677,153.40631 c 2.13037,-1.1159 4.97085,-3.04337 7.81133,-5.57952 3.04338,-2.53615 5.37663,-4.97085 7.506988,-7.60844 2.739022,-3.24627 4.666483,-6.59398 5.17371,-9.13013 0.202887,-1.31879 0.202887,-3.65205 0,-5.07229 -0.507227,-2.73904 -1.623131,-5.27519 -3.347702,-7.3041 -2.028908,-2.53615 -4.869376,-4.05784 -7.608416,-4.15928 -1.92747,-0.10145 -3.75349,0.30433 -5.57952,1.21735 -1.52169,0.71012 -2.63759,1.42024 -3.85494,2.63759 -0.40578,0.50723 -0.81157,0.81156 -0.81157,0.81156 0,0 -0.40578,-0.30433 -0.81156,-0.71012 -1.92748,-1.92747 -4.15929,-3.24626 -6.59399,-3.75349 -3.246264,-0.71012 -6.086748,0 -8.724341,2.02891 -2.739038,2.33326 -4.767955,6.08676 -5.275184,9.9417 -0.202892,1.62313 -0.101446,3.55061 0.304337,4.8694 0.913013,3.55061 3.854943,8.01422 8.622898,12.68073 3.85494,3.85494 8.42001,7.40555 11.66628,9.13013 0.40578,0.10145 0.71012,0.30434 0.81156,0.30434 0,0 0.30434,-0.10145 0.71012,-0.30434 z"
         class="fil1" />
      <path
         sodipodi:nodetypes="ccccccccscccccscscccscccc"
         style="fill:#ffffff;fill-opacity:1;fill-rule:evenodd;stroke-width:0.26458332;image-rendering:optimizeQuality;shape-rendering:geometricPrecision;text-rendering:geometricPrecision;stroke:none"
         inkscape:connector-curvature="0"
         id="path876-3"
         d="m 152.80564,55.243292 v -7.408333 l 7.67292,-0.264583 h 7.9375 v -6.35 -6.35 h -7.67292 c -5.82083,0 -7.67292,-0.264584 -7.9375,-0.264584 v -7.672916 -7.672917 h -7.14375 -6.87917 v 7.408333 c 0,6.614584 0,7.672917 -0.26458,7.9375 0,0.264584 -1.05833,0.264584 -7.9375,0.264584 h -7.67292 v 6.35 6.35 h 7.9375 c 6.87917,0 7.67292,0 7.9375,0.264583 v 7.672917 7.14375 h 6.87917 6.87917 z"
         class="fil1" />
    </g>
    <g
       id="g1757"
       transform="translate(0,12.85119)">
      <rect
         y="192.00125"
         x="20.307571"
         height="64.280777"
         width="169.38486"
         id="rect1701"
         style="fill:none;fill-opacity:1;stroke:#ff0000;stroke-width:8;stroke-linecap:square;stroke-linejoin:miter;stroke-miterlimit:4;stroke-dasharray:none;stroke-opacity:1" />
      <g
         aria-label="Lebenswichtige Einrichtung"
         style="font-style:normal;font-variant:normal;font-weight:normal;font-stretch:normal;font-size:9.8777771px;line-height:1.25;font-family:sans-serif;-inkscape-font-specification:sans-serif;letter-spacing:0px;word-spacing:0px;fill:#000000;fill-opacity:1;stroke:none;stroke-width:0.26458332"
         id="text1739">
        <path
           d="m 31.211159,214.65363 v -9.0424 h 1.3716 v 7.747 h 4.4069 v 1.2954 h -5.7785 z"
           style="font-style:normal;font-variant:normal;font-weight:normal;font-stretch:normal;font-size:12.69999981px;font-family:DINMittbek;-inkscape-font-specification:'DINMittbek, Normal';font-variant-ligatures:normal;font-variant-caps:normal;font-variant-numeric:normal;font-feature-settings:normal;text-align:start;writing-mode:lr-tb;text-anchor:start;stroke-width:0.26458332"
           id="path960" />
        <path
           d="m 39.144095,211.92313 q 0,0.8001 0.4318,1.1938 0.4318,0.3937 1.1049,0.3937 0.3683,0 0.7366,-0.1651 0.381,-0.1651 0.6731,-0.4572 l 0.9398,0.8001 q -0.4826,0.5588 -1.0795,0.8001 -0.5969,0.2413 -1.2446,0.2413 -0.4953,0 -1.0033,-0.1397 -0.508,-0.1397 -0.9271,-0.508 -0.4064,-0.3683 -0.6731,-1.0033 -0.254,-0.635 -0.254,-1.6256 0,-0.9398 0.2413,-1.5748 0.2413,-0.635 0.6223,-1.016 0.381,-0.3937 0.8509,-0.5588 0.4699,-0.1651 0.9398,-0.1651 0.5334,0 1.016,0.1905 0.4826,0.1905 0.8382,0.5461 0.3683,0.3556 0.5842,0.8636 0.2159,0.4953 0.2159,1.1176 v 1.0668 z m 2.7178,-1.0668 q -0.0254,-0.7366 -0.4064,-1.1176 -0.381,-0.381 -0.9525,-0.381 -0.5715,0 -0.9525,0.381 -0.381,0.381 -0.4064,1.1176 z"
           style="font-style:normal;font-variant:normal;font-weight:normal;font-stretch:normal;font-size:12.69999981px;font-family:DINMittbek;-inkscape-font-specification:'DINMittbek, Normal';font-variant-ligatures:normal;font-variant-caps:normal;font-variant-numeric:normal;font-feature-settings:normal;text-align:start;writing-mode:lr-tb;text-anchor:start;stroke-width:0.26458332"
           id="path962" />
        <path
           d="m 44.516196,205.61123 h 1.2954 v 3.2893 q 0.3683,-0.3429 0.762,-0.5461 0.4064,-0.2159 0.9017,-0.2159 0.5969,0 1.016,0.2413 0.4318,0.2286 0.7112,0.5969 0.1397,0.1651 0.2159,0.3556 0.0889,0.1778 0.1397,0.4572 0.0635,0.2667 0.0762,0.6604 0.0254,0.381 0.0254,0.9779 0,0.5969 -0.0254,0.9906 -0.0127,0.3937 -0.0762,0.6731 -0.0508,0.2667 -0.1397,0.4445 -0.0762,0.1778 -0.2159,0.3556 -0.2794,0.3683 -0.7112,0.6096 -0.4191,0.2286 -1.016,0.2286 -0.4953,0 -0.9271,-0.2032 -0.4318,-0.2159 -0.7366,-0.5461 v 0.6731 h -1.2954 z m 2.5654,3.8227 q -0.4572,0 -0.7112,0.1905 -0.254,0.1778 -0.381,0.4699 -0.1143,0.2794 -0.1524,0.635 -0.0254,0.3556 -0.0254,0.6985 0,0.3556 0.0254,0.7112 0.0381,0.3556 0.1524,0.6477 0.127,0.2794 0.381,0.4699 0.254,0.1778 0.7112,0.1778 0.4572,0 0.7112,-0.1651 0.2667,-0.1778 0.381,-0.4572 0.127,-0.2921 0.1524,-0.6477 0.0381,-0.3556 0.0381,-0.7366 0,-0.3683 -0.0381,-0.7239 -0.0254,-0.3683 -0.1524,-0.6477 -0.1143,-0.2794 -0.381,-0.4445 -0.254,-0.1778 -0.7112,-0.1778 z"
           style="font-style:normal;font-variant:normal;font-weight:normal;font-stretch:normal;font-size:12.69999981px;font-family:DINMittbek;-inkscape-font-specification:'DINMittbek, Normal';font-variant-ligatures:normal;font-variant-caps:normal;font-variant-numeric:normal;font-feature-settings:normal;text-align:start;writing-mode:lr-tb;text-anchor:start;stroke-width:0.26458332"
           id="path964" />
        <path
           d="m 52.092143,211.92313 q 0,0.8001 0.4318,1.1938 0.4318,0.3937 1.1049,0.3937 0.3683,0 0.7366,-0.1651 0.381,-0.1651 0.6731,-0.4572 l 0.9398,0.8001 q -0.4826,0.5588 -1.0795,0.8001 -0.5969,0.2413 -1.2446,0.2413 -0.4953,0 -1.0033,-0.1397 -0.508,-0.1397 -0.9271,-0.508 -0.4064,-0.3683 -0.6731,-1.0033 -0.254,-0.635 -0.254,-1.6256 0,-0.9398 0.2413,-1.5748 0.2413,-0.635 0.6223,-1.016 0.381,-0.3937 0.8509,-0.5588 0.4699,-0.1651 0.9398,-0.1651 0.5334,0 1.016,0.1905 0.4826,0.1905 0.8382,0.5461 0.3683,0.3556 0.5842,0.8636 0.2159,0.4953 0.2159,1.1176 v 1.0668 z m 2.7178,-1.0668 q -0.0254,-0.7366 -0.4064,-1.1176 -0.381,-0.381 -0.9525,-0.381 -0.5715,0 -0.9525,0.381 -0.381,0.381 -0.4064,1.1176 z"
           style="font-style:normal;font-variant:normal;font-weight:normal;font-stretch:normal;font-size:12.69999981px;font-family:DINMittbek;-inkscape-font-specification:'DINMittbek, Normal';font-variant-ligatures:normal;font-variant-caps:normal;font-variant-numeric:normal;font-feature-settings:normal;text-align:start;writing-mode:lr-tb;text-anchor:start;stroke-width:0.26458332"
           id="path966" />
        <path
           d="m 57.464241,208.21473 h 1.2954 v 0.6858 h 0.0254 q 0.3048,-0.381 0.7239,-0.5715 0.4318,-0.1905 0.9525,-0.1905 0.381,0 0.762,0.1524 0.381,0.1397 0.6858,0.4191 0.3048,0.2794 0.4953,0.6985 0.2032,0.4191 0.2032,0.9652 v 4.2799 h -1.2954 v -3.8354 q 0,-0.6604 -0.3683,-1.016 -0.3556,-0.3683 -0.9017,-0.3683 -0.5588,0 -0.9271,0.3683 -0.3556,0.3556 -0.3556,1.016 v 3.8354 h -1.2954 z"
           style="font-style:normal;font-variant:normal;font-weight:normal;font-stretch:normal;font-size:12.69999981px;font-family:DINMittbek;-inkscape-font-specification:'DINMittbek, Normal';font-variant-ligatures:normal;font-variant-caps:normal;font-variant-numeric:normal;font-feature-settings:normal;text-align:start;writing-mode:lr-tb;text-anchor:start;stroke-width:0.26458332"
           id="path968" />
        <path
           d="m 64.47603,212.68513 q 0.4191,0.4064 0.9017,0.6223 0.4826,0.2032 1.1303,0.2032 0.5588,0 0.9144,-0.2032 0.3556,-0.2159 0.3556,-0.6223 0,-0.3429 -0.2286,-0.4699 -0.2286,-0.1397 -0.5588,-0.1651 l -1.143,-0.1016 q -0.8001,-0.0635 -1.3335,-0.5207 -0.5207,-0.4699 -0.5207,-1.3081 0,-0.4953 0.1778,-0.8636 0.1905,-0.3683 0.508,-0.6096 0.3302,-0.254 0.762,-0.381 0.4445,-0.127 0.9525,-0.127 0.8509,0 1.4478,0.2413 0.5969,0.2286 1.0795,0.635 l -0.8001,0.9398 q -0.381,-0.2667 -0.7874,-0.4318 -0.4064,-0.1651 -0.9398,-0.1651 -0.6223,0 -0.8636,0.2286 -0.2413,0.2159 -0.2413,0.5461 0,0.2159 0.1778,0.3937 0.1905,0.1778 0.6731,0.2159 l 1.0668,0.0762 q 0.4953,0.0381 0.8509,0.2032 0.3556,0.1524 0.5842,0.4064 0.2286,0.254 0.3302,0.5969 0.1016,0.3429 0.1016,0.7239 0,0.4699 -0.2032,0.8382 -0.2032,0.3683 -0.5715,0.6223 -0.3556,0.254 -0.8509,0.3937 -0.4826,0.127 -1.0414,0.127 -0.7874,0 -1.4986,-0.2794 -0.7112,-0.2921 -1.3335,-0.8763 z"
           style="font-style:normal;font-variant:normal;font-weight:normal;font-stretch:normal;font-size:12.69999981px;font-family:DINMittbek;-inkscape-font-specification:'DINMittbek, Normal';font-variant-ligatures:normal;font-variant-caps:normal;font-variant-numeric:normal;font-feature-settings:normal;text-align:start;writing-mode:lr-tb;text-anchor:start;stroke-width:0.26458332"
           id="path970" />
        <path
           d="m 75.492886,214.65363 -1.3462,-4.5085 h -0.0254 l -1.3462,4.5085 h -1.143 l -2.0574,-6.4389 h 1.3716 l 1.2319,4.5085 h 0.0254 l 1.4605,-4.5085 h 0.9398 l 1.4605,4.5085 h 0.0254 l 1.2319,-4.5085 h 1.3716 l -2.0574,6.4389 h -1.143 z"
           style="font-style:normal;font-variant:normal;font-weight:normal;font-stretch:normal;font-size:12.69999981px;font-family:DINMittbek;-inkscape-font-specification:'DINMittbek, Normal';font-variant-ligatures:normal;font-variant-caps:normal;font-variant-numeric:normal;font-feature-settings:normal;text-align:start;writing-mode:lr-tb;text-anchor:start;stroke-width:0.26458332"
           id="path972" />
        <path
           d="m 79.60332,214.65363 v -6.4389 h 1.2954 v 6.4389 h -1.2954 z m 0,-7.4803 v -1.2954 h 1.2954 v 1.2954 h -1.2954 z"
           style="font-style:normal;font-variant:normal;font-weight:normal;font-stretch:normal;font-size:12.69999981px;font-family:DINMittbek;-inkscape-font-specification:'DINMittbek, Normal';font-variant-ligatures:normal;font-variant-caps:normal;font-variant-numeric:normal;font-feature-settings:normal;text-align:start;writing-mode:lr-tb;text-anchor:start;stroke-width:0.26458332"
           id="path974" />
        <path
           d="m 87.353296,213.61223 q -0.4191,0.4826 -1.0033,0.8001 -0.5715,0.3175 -1.3081,0.3175 -0.5588,0 -1.0922,-0.1778 -0.5207,-0.1905 -0.9271,-0.5842 -0.4064,-0.3937 -0.6604,-1.016 -0.2413,-0.635 -0.2413,-1.5113 0,-0.889 0.2413,-1.5113 0.254,-0.6223 0.6604,-1.016 0.4064,-0.4064 0.9271,-0.5842 0.5334,-0.1905 1.0922,-0.1905 0.7366,0 1.3081,0.3175 0.5842,0.3175 1.0033,0.8001 l -0.9525,0.8509 q -0.2413,-0.2921 -0.5715,-0.4826 -0.3302,-0.1905 -0.7366,-0.1905 -0.8001,0 -1.2446,0.4699 -0.4318,0.4699 -0.4318,1.5367 0,1.0541 0.4318,1.524 0.4445,0.4699 1.2446,0.4699 0.4064,0 0.7366,-0.1905 0.3302,-0.1905 0.5715,-0.4826 z"
           style="font-style:normal;font-variant:normal;font-weight:normal;font-stretch:normal;font-size:12.69999981px;font-family:DINMittbek;-inkscape-font-specification:'DINMittbek, Normal';font-variant-ligatures:normal;font-variant-caps:normal;font-variant-numeric:normal;font-feature-settings:normal;text-align:start;writing-mode:lr-tb;text-anchor:start;stroke-width:0.26458332"
           id="path976" />
        <path
           d="m 88.246857,205.61123 h 1.2954 v 3.2893 h 0.0254 q 0.3048,-0.381 0.7239,-0.5715 0.4318,-0.1905 0.9525,-0.1905 0.381,0 0.762,0.1524 0.381,0.1397 0.6858,0.4191 0.3048,0.2794 0.4953,0.6985 0.2032,0.4191 0.2032,0.9652 v 4.2799 h -1.2954 v -3.8354 q 0,-0.6604 -0.3683,-1.016 -0.3556,-0.3683 -0.9017,-0.3683 -0.5588,0 -0.9271,0.3683 -0.3556,0.3556 -0.3556,1.016 v 3.8354 h -1.2954 z"
           style="font-style:normal;font-variant:normal;font-weight:normal;font-stretch:normal;font-size:12.69999981px;font-family:DINMittbek;-inkscape-font-specification:'DINMittbek, Normal';font-variant-ligatures:normal;font-variant-caps:normal;font-variant-numeric:normal;font-feature-settings:normal;text-align:start;writing-mode:lr-tb;text-anchor:start;stroke-width:0.26458332"
           id="path978" />
        <path
           d="m 95.144346,206.25893 h 1.2954 v 1.9558 h 0.9398 v 0.9906 h -0.9398 v 3.7465 q 0,0.2667 0.1016,0.381 0.1143,0.1016 0.3556,0.1016 h 0.4826 v 1.2192 h -0.6731 q -0.6858,0 -1.1303,-0.4064 -0.4318,-0.4191 -0.4318,-1.1811 v -3.8608 h -0.6477 v -0.9906 h 0.6477 z"
           style="font-style:normal;font-variant:normal;font-weight:normal;font-stretch:normal;font-size:12.69999981px;font-family:DINMittbek;-inkscape-font-specification:'DINMittbek, Normal';font-variant-ligatures:normal;font-variant-caps:normal;font-variant-numeric:normal;font-feature-settings:normal;text-align:start;writing-mode:lr-tb;text-anchor:start;stroke-width:0.26458332"
           id="path980" />
        <path
           d="m 98.628513,214.65363 v -6.4389 h 1.295399 v 6.4389 h -1.295399 z m 0,-7.4803 v -1.2954 h 1.295399 v 1.2954 h -1.295399 z"
           style="font-style:normal;font-variant:normal;font-weight:normal;font-stretch:normal;font-size:12.69999981px;font-family:DINMittbek;-inkscape-font-specification:'DINMittbek, Normal';font-variant-ligatures:normal;font-variant-caps:normal;font-variant-numeric:normal;font-feature-settings:normal;text-align:start;writing-mode:lr-tb;text-anchor:start;stroke-width:0.26458332"
           id="path982" />
        <path
           d="m 105.26089,213.98053 q -0.3048,0.3302 -0.7366,0.5461 -0.4318,0.2032 -0.9271,0.2032 -0.635,0 -1.0668,-0.254 -0.4191,-0.254 -0.635,-0.5334 -0.1397,-0.1778 -0.2286,-0.3429 -0.0889,-0.1651 -0.1524,-0.4191 -0.0508,-0.2667 -0.0762,-0.6731 -0.0254,-0.4064 -0.0254,-1.0668 0,-0.6731 0.0254,-1.0795 0.0254,-0.4064 0.0762,-0.6604 0.0635,-0.2667 0.1524,-0.4318 0.0889,-0.1651 0.2286,-0.3429 0.2159,-0.2794 0.635,-0.5334 0.4318,-0.254 1.0668,-0.254 0.4953,0 0.889,0.1905 0.4064,0.1905 0.7747,0.5715 v -0.6858 h 1.2954 v 6.2865 q 0,0.7239 -0.2286,1.2573 -0.2286,0.5334 -0.6223,0.8763 -0.381,0.3556 -0.889,0.5207 -0.4953,0.1778 -1.0541,0.1778 -0.6223,0 -1.2192,-0.3048 -0.5842,-0.2921 -1.016,-0.7747 l 1.0033,-0.8001 q 0.2413,0.2413 0.5588,0.4064 0.3302,0.1778 0.6985,0.1778 0.6477,0 1.0541,-0.3556 0.4191,-0.3556 0.4191,-1.0414 z m -2.5527,-2.54 q 0,0.381 0,0.6223 0.0127,0.2413 0.0381,0.4064 0.0254,0.1524 0.0762,0.254 0.0508,0.1016 0.1397,0.2159 0.1397,0.1778 0.381,0.3429 0.254,0.1524 0.6477,0.1524 0.381,0 0.6223,-0.1524 0.254,-0.1651 0.3937,-0.3429 0.0889,-0.1143 0.1397,-0.2159 0.0508,-0.1016 0.0762,-0.254 0.0254,-0.1651 0.0254,-0.4064 0.0127,-0.2413 0.0127,-0.6223 0,-0.3937 -0.0127,-0.635 0,-0.2413 -0.0254,-0.3937 -0.0254,-0.1651 -0.0762,-0.2667 -0.0508,-0.1016 -0.1397,-0.2159 -0.1397,-0.1778 -0.3937,-0.3302 -0.2413,-0.1651 -0.6223,-0.1651 -0.3937,0 -0.6477,0.1651 -0.2413,0.1524 -0.381,0.3302 -0.0889,0.1143 -0.1397,0.2159 -0.0508,0.1016 -0.0762,0.2667 -0.0254,0.1524 -0.0381,0.3937 0,0.2413 0,0.635 z"
           style="font-style:normal;font-variant:normal;font-weight:normal;font-stretch:normal;font-size:12.69999981px;font-family:DINMittbek;-inkscape-font-specification:'DINMittbek, Normal';font-variant-ligatures:normal;font-variant-caps:normal;font-variant-numeric:normal;font-feature-settings:normal;text-align:start;writing-mode:lr-tb;text-anchor:start;stroke-width:0.26458332"
           id="path984" />
        <path
           d="m 109.21734,211.92313 q 0,0.8001 0.4318,1.1938 0.4318,0.3937 1.1049,0.3937 0.3683,0 0.7366,-0.1651 0.381,-0.1651 0.6731,-0.4572 l 0.9398,0.8001 q -0.4826,0.5588 -1.0795,0.8001 -0.5969,0.2413 -1.2446,0.2413 -0.4953,0 -1.0033,-0.1397 -0.508,-0.1397 -0.9271,-0.508 -0.4064,-0.3683 -0.6731,-1.0033 -0.254,-0.635 -0.254,-1.6256 0,-0.9398 0.2413,-1.5748 0.2413,-0.635 0.6223,-1.016 0.381,-0.3937 0.8509,-0.5588 0.4699,-0.1651 0.9398,-0.1651 0.5334,0 1.016,0.1905 0.4826,0.1905 0.8382,0.5461 0.3683,0.3556 0.5842,0.8636 0.2159,0.4953 0.2159,1.1176 v 1.0668 z m 2.7178,-1.0668 q -0.0254,-0.7366 -0.4064,-1.1176 -0.381,-0.381 -0.9525,-0.381 -0.5715,0 -0.9525,0.381 -0.381,0.381 -0.4064,1.1176 z"
           style="font-style:normal;font-variant:normal;font-weight:normal;font-stretch:normal;font-size:12.69999981px;font-family:DINMittbek;-inkscape-font-specification:'DINMittbek, Normal';font-variant-ligatures:normal;font-variant-caps:normal;font-variant-numeric:normal;font-feature-settings:normal;text-align:start;writing-mode:lr-tb;text-anchor:start;stroke-width:0.26458332"
           id="path986" />
        <path
           d="m 117.75472,214.65363 v -9.0424 h 5.7785 v 1.2954 h -4.4069 v 2.5781 h 3.7592 v 1.2192 h -3.7592 v 2.6543 h 4.4069 v 1.2954 h -5.7785 z"
           style="font-style:normal;font-variant:normal;font-weight:normal;font-stretch:normal;font-size:12.69999981px;font-family:DINMittbek;-inkscape-font-specification:'DINMittbek, Normal';font-variant-ligatures:normal;font-variant-caps:normal;font-variant-numeric:normal;font-feature-settings:normal;text-align:start;writing-mode:lr-tb;text-anchor:start;stroke-width:0.26458332"
           id="path988" />
        <path
           d="m 124.74785,214.65363 v -6.4389 h 1.2954 v 6.4389 h -1.2954 z m 0,-7.4803 v -1.2954 h 1.2954 v 1.2954 h -1.2954 z"
           style="font-style:normal;font-variant:normal;font-weight:normal;font-stretch:normal;font-size:12.69999981px;font-family:DINMittbek;-inkscape-font-specification:'DINMittbek, Normal';font-variant-ligatures:normal;font-variant-caps:normal;font-variant-numeric:normal;font-feature-settings:normal;text-align:start;writing-mode:lr-tb;text-anchor:start;stroke-width:0.26458332"
           id="path990" />
        <path
           d="m 127.76072,208.21473 h 1.2954 v 0.6858 h 0.0254 q 0.3048,-0.381 0.7239,-0.5715 0.4318,-0.1905 0.9525,-0.1905 0.381,0 0.762,0.1524 0.381,0.1397 0.6858,0.4191 0.3048,0.2794 0.4953,0.6985 0.2032,0.4191 0.2032,0.9652 v 4.2799 h -1.2954 v -3.8354 q 0,-0.6604 -0.3683,-1.016 -0.3556,-0.3683 -0.9017,-0.3683 -0.5588,0 -0.9271,0.3683 -0.3556,0.3556 -0.3556,1.016 v 3.8354 h -1.2954 z"
           style="font-style:normal;font-variant:normal;font-weight:normal;font-stretch:normal;font-size:12.69999981px;font-family:DINMittbek;-inkscape-font-specification:'DINMittbek, Normal';font-variant-ligatures:normal;font-variant-caps:normal;font-variant-numeric:normal;font-feature-settings:normal;text-align:start;writing-mode:lr-tb;text-anchor:start;stroke-width:0.26458332"
           id="path992" />
        <path
           d="m 134.58201,208.21473 h 1.2954 v 0.6858 h 0.0254 q 0.3048,-0.381 0.7239,-0.5715 0.4318,-0.1905 0.9525,-0.1905 0.3937,0 0.7239,0.1397 0.3302,0.127 0.6223,0.3556 l -0.9398,1.1176 q -0.2286,-0.1778 -0.4191,-0.2413 -0.1778,-0.0762 -0.4318,-0.0762 -0.2413,0 -0.4699,0.0762 -0.2159,0.0762 -0.3937,0.2413 -0.1778,0.1651 -0.2921,0.4191 -0.1016,0.254 -0.1016,0.6096 v 3.8735 h -1.2954 z"
           style="font-style:normal;font-variant:normal;font-weight:normal;font-stretch:normal;font-size:12.69999981px;font-family:DINMittbek;-inkscape-font-specification:'DINMittbek, Normal';font-variant-ligatures:normal;font-variant-caps:normal;font-variant-numeric:normal;font-feature-settings:normal;text-align:start;writing-mode:lr-tb;text-anchor:start;stroke-width:0.26458332"
           id="path994" />
        <path
           d="m 139.55625,214.65363 v -6.4389 h 1.2954 v 6.4389 h -1.2954 z m 0,-7.4803 v -1.2954 h 1.2954 v 1.2954 h -1.2954 z"
           style="font-style:normal;font-variant:normal;font-weight:normal;font-stretch:normal;font-size:12.69999981px;font-family:DINMittbek;-inkscape-font-specification:'DINMittbek, Normal';font-variant-ligatures:normal;font-variant-caps:normal;font-variant-numeric:normal;font-feature-settings:normal;text-align:start;writing-mode:lr-tb;text-anchor:start;stroke-width:0.26458332"
           id="path996" />
        <path
           d="m 147.30623,213.61223 q -0.4191,0.4826 -1.0033,0.8001 -0.5715,0.3175 -1.3081,0.3175 -0.5588,0 -1.0922,-0.1778 -0.5207,-0.1905 -0.9271,-0.5842 -0.4064,-0.3937 -0.6604,-1.016 -0.2413,-0.635 -0.2413,-1.5113 0,-0.889 0.2413,-1.5113 0.254,-0.6223 0.6604,-1.016 0.4064,-0.4064 0.9271,-0.5842 0.5334,-0.1905 1.0922,-0.1905 0.7366,0 1.3081,0.3175 0.5842,0.3175 1.0033,0.8001 l -0.9525,0.8509 q -0.2413,-0.2921 -0.5715,-0.4826 -0.3302,-0.1905 -0.7366,-0.1905 -0.8001,0 -1.2446,0.4699 -0.4318,0.4699 -0.4318,1.5367 0,1.0541 0.4318,1.524 0.4445,0.4699 1.2446,0.4699 0.4064,0 0.7366,-0.1905 0.3302,-0.1905 0.5715,-0.4826 z"
           style="font-style:normal;font-variant:normal;font-weight:normal;font-stretch:normal;font-size:12.69999981px;font-family:DINMittbek;-inkscape-font-specification:'DINMittbek, Normal';font-variant-ligatures:normal;font-variant-caps:normal;font-variant-numeric:normal;font-feature-settings:normal;text-align:start;writing-mode:lr-tb;text-anchor:start;stroke-width:0.26458332"
           id="path998" />
        <path
           d="m 148.19979,205.61123 h 1.2954 v 3.2893 h 0.0254 q 0.3048,-0.381 0.7239,-0.5715 0.4318,-0.1905 0.9525,-0.1905 0.381,0 0.762,0.1524 0.381,0.1397 0.6858,0.4191 0.3048,0.2794 0.4953,0.6985 0.2032,0.4191 0.2032,0.9652 v 4.2799 h -1.2954 v -3.8354 q 0,-0.6604 -0.3683,-1.016 -0.3556,-0.3683 -0.9017,-0.3683 -0.5588,0 -0.9271,0.3683 -0.3556,0.3556 -0.3556,1.016 v 3.8354 h -1.2954 z"
           style="font-style:normal;font-variant:normal;font-weight:normal;font-stretch:normal;font-size:12.69999981px;font-family:DINMittbek;-inkscape-font-specification:'DINMittbek, Normal';font-variant-ligatures:normal;font-variant-caps:normal;font-variant-numeric:normal;font-feature-settings:normal;text-align:start;writing-mode:lr-tb;text-anchor:start;stroke-width:0.26458332"
           id="path1000" />
        <path
           d="m 155.09728,206.25893 h 1.2954 v 1.9558 h 0.9398 v 0.9906 h -0.9398 v 3.7465 q 0,0.2667 0.1016,0.381 0.1143,0.1016 0.3556,0.1016 h 0.4826 v 1.2192 h -0.6731 q -0.6858,0 -1.1303,-0.4064 -0.4318,-0.4191 -0.4318,-1.1811 v -3.8608 h -0.6477 v -0.9906 h 0.6477 z"
           style="font-style:normal;font-variant:normal;font-weight:normal;font-stretch:normal;font-size:12.69999981px;font-family:DINMittbek;-inkscape-font-specification:'DINMittbek, Normal';font-variant-ligatures:normal;font-variant-caps:normal;font-variant-numeric:normal;font-feature-settings:normal;text-align:start;writing-mode:lr-tb;text-anchor:start;stroke-width:0.26458332"
           id="path1002" />
        <path
           d="m 158.54334,208.21473 h 1.2954 v 3.8354 q 0,0.6604 0.3556,1.0287 0.3683,0.3556 0.9271,0.3556 0.5461,0 0.9017,-0.3556 0.3683,-0.3683 0.3683,-1.0287 v -3.8354 h 1.2954 v 6.4389 h -1.2954 v -0.6858 h -0.0254 q -0.3048,0.381 -0.7366,0.5715 -0.4191,0.1905 -0.9271,0.1905 -0.381,0 -0.7747,-0.1397 -0.381,-0.1524 -0.6858,-0.4318 -0.3048,-0.2794 -0.508,-0.6985 -0.1905,-0.4191 -0.1905,-0.9652 z"
           style="font-style:normal;font-variant:normal;font-weight:normal;font-stretch:normal;font-size:12.69999981px;font-family:DINMittbek;-inkscape-font-specification:'DINMittbek, Normal';font-variant-ligatures:normal;font-variant-caps:normal;font-variant-numeric:normal;font-feature-settings:normal;text-align:start;writing-mode:lr-tb;text-anchor:start;stroke-width:0.26458332"
           id="path1004" />
        <path
           d="m 165.36464,208.21473 h 1.2954 v 0.6858 h 0.0254 q 0.3048,-0.381 0.7239,-0.5715 0.4318,-0.1905 0.9525,-0.1905 0.381,0 0.762,0.1524 0.381,0.1397 0.6858,0.4191 0.3048,0.2794 0.4953,0.6985 0.2032,0.4191 0.2032,0.9652 v 4.2799 h -1.2954 v -3.8354 q 0,-0.6604 -0.3683,-1.016 -0.3556,-0.3683 -0.9017,-0.3683 -0.5588,0 -0.9271,0.3683 -0.3556,0.3556 -0.3556,1.016 v 3.8354 h -1.2954 z"
           style="font-style:normal;font-variant:normal;font-weight:normal;font-stretch:normal;font-size:12.69999981px;font-family:DINMittbek;-inkscape-font-specification:'DINMittbek, Normal';font-variant-ligatures:normal;font-variant-caps:normal;font-variant-numeric:normal;font-feature-settings:normal;text-align:start;writing-mode:lr-tb;text-anchor:start;stroke-width:0.26458332"
           id="path1006" />
        <path
           d="m 175.80542,213.98053 q -0.3048,0.3302 -0.7366,0.5461 -0.4318,0.2032 -0.9271,0.2032 -0.635,0 -1.0668,-0.254 -0.4191,-0.254 -0.635,-0.5334 -0.1397,-0.1778 -0.2286,-0.3429 -0.0889,-0.1651 -0.1524,-0.4191 -0.0508,-0.2667 -0.0762,-0.6731 -0.0254,-0.4064 -0.0254,-1.0668 0,-0.6731 0.0254,-1.0795 0.0254,-0.4064 0.0762,-0.6604 0.0635,-0.2667 0.1524,-0.4318 0.0889,-0.1651 0.2286,-0.3429 0.2159,-0.2794 0.635,-0.5334 0.4318,-0.254 1.0668,-0.254 0.4953,0 0.889,0.1905 0.4064,0.1905 0.7747,0.5715 v -0.6858 h 1.2954 v 6.2865 q 0,0.7239 -0.2286,1.2573 -0.2286,0.5334 -0.6223,0.8763 -0.381,0.3556 -0.889,0.5207 -0.4953,0.1778 -1.0541,0.1778 -0.6223,0 -1.2192,-0.3048 -0.5842,-0.2921 -1.016,-0.7747 l 1.0033,-0.8001 q 0.2413,0.2413 0.5588,0.4064 0.3302,0.1778 0.6985,0.1778 0.6477,0 1.0541,-0.3556 0.4191,-0.3556 0.4191,-1.0414 z m -2.5527,-2.54 q 0,0.381 0,0.6223 0.0127,0.2413 0.0381,0.4064 0.0254,0.1524 0.0762,0.254 0.0508,0.1016 0.1397,0.2159 0.1397,0.1778 0.381,0.3429 0.254,0.1524 0.6477,0.1524 0.381,0 0.6223,-0.1524 0.254,-0.1651 0.3937,-0.3429 0.0889,-0.1143 0.1397,-0.2159 0.0508,-0.1016 0.0762,-0.254 0.0254,-0.1651 0.0254,-0.4064 0.0127,-0.2413 0.0127,-0.6223 0,-0.3937 -0.0127,-0.635 0,-0.2413 -0.0254,-0.3937 -0.0254,-0.1651 -0.0762,-0.2667 -0.0508,-0.1016 -0.1397,-0.2159 -0.1397,-0.1778 -0.3937,-0.3302 -0.2413,-0.1651 -0.6223,-0.1651 -0.3937,0 -0.6477,0.1651 -0.2413,0.1524 -0.381,0.3302 -0.0889,0.1143 -0.1397,0.2159 -0.0508,0.1016 -0.0762,0.2667 -0.0254,0.1524 -0.0381,0.3937 0,0.2413 0,0.635 z"
           style="font-style:normal;font-variant:normal;font-weight:normal;font-stretch:normal;font-size:12.69999981px;font-family:DINMittbek;-inkscape-font-specification:'DINMittbek, Normal';font-variant-ligatures:normal;font-variant-caps:normal;font-variant-numeric:normal;font-feature-settings:normal;text-align:start;writing-mode:lr-tb;text-anchor:start;stroke-width:0.26458332"
           id="path1008" />
      </g>
      <g
         aria-label="Blockieren, verstellen, etc.
strengstens verboten!"
         style="font-style:italic;font-variant:normal;font-weight:normal;font-stretch:normal;font-size:9.8777771px;line-height:1.25;font-family:'Latin Modern Roman';-inkscape-font-specification:'Latin Modern Roman, Italic';letter-spacing:0px;word-spacing:0px;fill:#000000;fill-opacity:1;stroke:none;stroke-width:0.26458332"
         id="text1747">
        <path
           d="m 51.164656,224.50039 h 2.726267 q 0.513644,0 0.898878,0.13829 0.395111,0.13829 0.651933,0.39511 0.2667,0.24695 0.395111,0.59267 0.138289,0.34572 0.138289,0.76059 0,0.21731 -0.04939,0.43462 -0.03951,0.20743 -0.158044,0.40499 -0.118534,0.18768 -0.325967,0.36548 -0.197556,0.16792 -0.503767,0.30621 v 0.0198 q 0.286456,0.0691 0.503767,0.22719 0.217311,0.15805 0.3556,0.38524 0.148167,0.21731 0.217311,0.48401 0.06914,0.25682 0.06914,0.52352 0,0.45438 -0.158045,0.82973 -0.158044,0.36548 -0.424744,0.6223 -0.2667,0.25683 -0.6223,0.40499 -0.3556,0.13829 -0.750712,0.13829 h -2.963333 z m 1.0668,3.9116 v 2.11385 h 1.639711 q 0.296334,0 0.513645,-0.0889 0.217311,-0.0889 0.3556,-0.22719 0.138289,-0.14817 0.207433,-0.33585 0.06914,-0.19755 0.06914,-0.40498 0,-0.20744 -0.06914,-0.39512 -0.06914,-0.19755 -0.207433,-0.33584 -0.138289,-0.14817 -0.3556,-0.23707 -0.217311,-0.0889 -0.513645,-0.0889 z m 0,-2.96333 v 2.01507 h 1.540933 q 0.582789,0 0.859367,-0.29634 0.276578,-0.29633 0.276578,-0.7112 0,-0.40499 -0.276578,-0.70132 -0.276578,-0.30621 -0.859367,-0.30621 z"
           style="font-style:normal;font-variant:normal;font-weight:normal;font-stretch:normal;font-size:9.87777805px;font-family:DINMittbek;-inkscape-font-specification:'DINMittbek, Normal';font-variant-ligatures:normal;font-variant-caps:normal;font-variant-numeric:normal;font-feature-settings:normal;text-align:center;writing-mode:lr-tb;text-anchor:middle;stroke-width:0.26458332"
           id="path867" />
        <path
           d="m 57.095027,224.50039 h 1.007533 v 5.73899 q 0,0.34572 0.375356,0.34572 h 0.345722 v 0.94827 h -0.4445 q -0.276578,0 -0.513644,-0.0593 -0.227189,-0.0691 -0.404989,-0.20743 -0.167922,-0.14817 -0.2667,-0.37535 -0.09878,-0.23707 -0.09878,-0.57292 z"
           style="font-style:normal;font-variant:normal;font-weight:normal;font-stretch:normal;font-size:9.87777805px;font-family:DINMittbek;-inkscape-font-specification:'DINMittbek, Normal';font-variant-ligatures:normal;font-variant-caps:normal;font-variant-numeric:normal;font-feature-settings:normal;text-align:center;writing-mode:lr-tb;text-anchor:middle;stroke-width:0.26458332"
           id="path869" />
        <path
           d="m 59.394697,229.02442 q 0,-0.40499 0.02963,-0.69145 0.02963,-0.29633 0.09878,-0.51364 0.06914,-0.21731 0.167922,-0.38524 0.09878,-0.16792 0.246945,-0.32596 0.108655,-0.11854 0.246944,-0.22719 0.138289,-0.11854 0.325967,-0.20744 0.187678,-0.0889 0.414867,-0.14816 0.237066,-0.0593 0.5334,-0.0593 0.296333,0 0.523522,0.0593 0.237067,0.0593 0.424744,0.14816 0.187678,0.0889 0.325967,0.20744 0.148167,0.10865 0.246945,0.22719 0.148166,0.15804 0.246944,0.32596 0.09878,0.16793 0.167922,0.38524 0.06914,0.21731 0.09878,0.51364 0.02963,0.28646 0.02963,0.69145 0,0.40498 -0.02963,0.70132 -0.02963,0.28645 -0.09878,0.51364 -0.06914,0.21731 -0.167922,0.38524 -0.09878,0.16792 -0.246944,0.32596 -0.09878,0.11854 -0.246945,0.23707 -0.138289,0.10865 -0.325967,0.19755 -0.187677,0.0889 -0.424744,0.14817 -0.227189,0.0593 -0.523522,0.0593 -0.296334,0 -0.5334,-0.0593 -0.227189,-0.0593 -0.414867,-0.14817 -0.187678,-0.0889 -0.325967,-0.19755 -0.138289,-0.11853 -0.246944,-0.23707 -0.148167,-0.15804 -0.246945,-0.32596 -0.09878,-0.16793 -0.167922,-0.38524 -0.06914,-0.22719 -0.09878,-0.51364 -0.02963,-0.29634 -0.02963,-0.70132 z m 3.121378,0.01 q 0,-0.27657 -0.0099,-0.45437 -0.0099,-0.18768 -0.03951,-0.31609 -0.02963,-0.12841 -0.07902,-0.22719 -0.04939,-0.0988 -0.118533,-0.19756 -0.108656,-0.15804 -0.335845,-0.25682 -0.217311,-0.10866 -0.474133,-0.10866 -0.256822,0 -0.484011,0.10866 -0.217311,0.0988 -0.325967,0.25682 -0.06914,0.0988 -0.118533,0.19756 -0.04939,0.0988 -0.07902,0.22719 -0.02963,0.12841 -0.03951,0.31609 -0.0099,0.1778 -0.0099,0.4445 0,0.27657 0.0099,0.46425 0.0099,0.1778 0.03951,0.30621 0.02963,0.12841 0.07902,0.22719 0.04939,0.0988 0.118533,0.19756 0.108656,0.15804 0.325967,0.2667 0.227189,0.0988 0.484011,0.0988 0.256822,0 0.474133,-0.0988 0.227189,-0.10866 0.335845,-0.2667 0.06914,-0.0988 0.118533,-0.19756 0.04939,-0.0988 0.07902,-0.22719 0.02963,-0.12841 0.03951,-0.30621 0.0099,-0.18768 0.0099,-0.45438 z"
           style="font-style:normal;font-variant:normal;font-weight:normal;font-stretch:normal;font-size:9.87777805px;font-family:DINMittbek;-inkscape-font-specification:'DINMittbek, Normal';font-variant-ligatures:normal;font-variant-caps:normal;font-variant-numeric:normal;font-feature-settings:normal;text-align:center;writing-mode:lr-tb;text-anchor:middle;stroke-width:0.26458332"
           id="path871" />
        <path
           d="m 68.264941,230.72339 q -0.325966,0.37536 -0.780344,0.6223 -0.4445,0.24695 -1.017411,0.24695 -0.434622,0 -0.849489,-0.13829 -0.404989,-0.14817 -0.721078,-0.45438 -0.316089,-0.30621 -0.513644,-0.79022 -0.187678,-0.49389 -0.187678,-1.17546 0,-0.69144 0.187678,-1.17545 0.197555,-0.48401 0.513644,-0.79022 0.316089,-0.31609 0.721078,-0.45438 0.414867,-0.14817 0.849489,-0.14817 0.572911,0 1.017411,0.24695 0.454378,0.24694 0.780344,0.6223 l -0.740833,0.66181 q -0.187678,-0.22719 -0.4445,-0.37536 -0.256822,-0.14817 -0.572911,-0.14817 -0.6223,0 -0.968022,0.36548 -0.335845,0.36548 -0.335845,1.19521 0,0.81986 0.335845,1.18534 0.345722,0.36547 0.968022,0.36547 0.316089,0 0.572911,-0.14816 0.256822,-0.14817 0.4445,-0.37536 z"
           style="font-style:normal;font-variant:normal;font-weight:normal;font-stretch:normal;font-size:9.87777805px;font-family:DINMittbek;-inkscape-font-specification:'DINMittbek, Normal';font-variant-ligatures:normal;font-variant-caps:normal;font-variant-numeric:normal;font-feature-settings:normal;text-align:center;writing-mode:lr-tb;text-anchor:middle;stroke-width:0.26458332"
           id="path873" />
        <path
           d="m 68.959936,231.53337 v -7.03298 h 1.007533 v 4.37586 h 0.01976 l 1.926167,-2.35091 h 1.205089 l -1.728611,1.9558 1.965677,3.05223 h -1.264355 l -1.3335,-2.34103 -0.790223,0.89888 v 1.44215 h -1.007533 z"
           style="font-style:normal;font-variant:normal;font-weight:normal;font-stretch:normal;font-size:9.87777805px;font-family:DINMittbek;-inkscape-font-specification:'DINMittbek, Normal';font-variant-ligatures:normal;font-variant-caps:normal;font-variant-numeric:normal;font-feature-settings:normal;text-align:center;writing-mode:lr-tb;text-anchor:middle;stroke-width:0.26458332"
           id="path875" />
        <path
           d="m 74.121384,231.53337 v -5.00803 h 1.007534 v 5.00803 h -1.007534 z m 0,-5.81801 v -1.00753 h 1.007534 v 1.00753 h -1.007534 z"
           style="font-style:normal;font-variant:normal;font-weight:normal;font-stretch:normal;font-size:9.87777805px;font-family:DINMittbek;-inkscape-font-specification:'DINMittbek, Normal';font-variant-ligatures:normal;font-variant-caps:normal;font-variant-numeric:normal;font-feature-settings:normal;text-align:center;writing-mode:lr-tb;text-anchor:middle;stroke-width:0.26458332"
           id="path877" />
        <path
           d="m 77.225322,229.40965 q 0,0.6223 0.335844,0.92851 0.335845,0.30621 0.859367,0.30621 0.286456,0 0.572911,-0.12841 0.296334,-0.12841 0.523523,-0.3556 l 0.730955,0.6223 q -0.375355,0.43462 -0.839611,0.6223 -0.464256,0.18768 -0.968022,0.18768 -0.385234,0 -0.780345,-0.10866 -0.395111,-0.10865 -0.721078,-0.39511 -0.316088,-0.28645 -0.523522,-0.78034 -0.197555,-0.49389 -0.197555,-1.26436 0,-0.73095 0.187677,-1.22484 0.187678,-0.49389 0.484012,-0.79023 0.296333,-0.30621 0.661811,-0.43462 0.365477,-0.12841 0.730955,-0.12841 0.414867,0 0.790223,0.14817 0.375355,0.14816 0.651933,0.42474 0.286455,0.27658 0.454378,0.67169 0.167922,0.38523 0.167922,0.86925 v 0.82973 z m 2.113845,-0.82973 q -0.01976,-0.57292 -0.316089,-0.86925 -0.296334,-0.29633 -0.740834,-0.29633 -0.4445,0 -0.740833,0.29633 -0.296333,0.29633 -0.316089,0.86925 z"
           style="font-style:normal;font-variant:normal;font-weight:normal;font-stretch:normal;font-size:9.87777805px;font-family:DINMittbek;-inkscape-font-specification:'DINMittbek, Normal';font-variant-ligatures:normal;font-variant-caps:normal;font-variant-numeric:normal;font-feature-settings:normal;text-align:center;writing-mode:lr-tb;text-anchor:middle;stroke-width:0.26458332"
           id="path879" />
        <path
           d="m 81.403622,226.52534 h 1.007533 v 0.5334 h 0.01976 q 0.237066,-0.29634 0.563033,-0.4445 0.335844,-0.14817 0.740833,-0.14817 0.306211,0 0.563034,0.10866 0.256822,0.0988 0.484011,0.27657 l -0.730956,0.86925 q -0.1778,-0.13829 -0.325967,-0.18768 -0.138288,-0.0593 -0.335844,-0.0593 -0.187678,0 -0.365478,0.0593 -0.167922,0.0593 -0.306211,0.18768 -0.138289,0.12841 -0.227189,0.32597 -0.07902,0.19755 -0.07902,0.47413 v 3.01272 h -1.007533 z"
           style="font-style:normal;font-variant:normal;font-weight:normal;font-stretch:normal;font-size:9.87777805px;font-family:DINMittbek;-inkscape-font-specification:'DINMittbek, Normal';font-variant-ligatures:normal;font-variant-caps:normal;font-variant-numeric:normal;font-feature-settings:normal;text-align:center;writing-mode:lr-tb;text-anchor:middle;stroke-width:0.26458332"
           id="path881" />
        <path
           d="m 86.003425,229.40965 q 0,0.6223 0.335844,0.92851 0.335845,0.30621 0.859367,0.30621 0.286456,0 0.572911,-0.12841 0.296334,-0.12841 0.523522,-0.3556 l 0.730956,0.6223 q -0.375356,0.43462 -0.839611,0.6223 -0.464256,0.18768 -0.968022,0.18768 -0.385234,0 -0.780345,-0.10866 -0.395111,-0.10865 -0.721078,-0.39511 -0.316089,-0.28645 -0.523522,-0.78034 -0.197555,-0.49389 -0.197555,-1.26436 0,-0.73095 0.187677,-1.22484 0.187678,-0.49389 0.484011,-0.79023 0.296334,-0.30621 0.661812,-0.43462 0.365477,-0.12841 0.730955,-0.12841 0.414867,0 0.790222,0.14817 0.375356,0.14816 0.651934,0.42474 0.286455,0.27658 0.454378,0.67169 0.167922,0.38523 0.167922,0.86925 v 0.82973 z m 2.113844,-0.82973 q -0.01975,-0.57292 -0.316089,-0.86925 -0.296333,-0.29633 -0.740833,-0.29633 -0.4445,0 -0.740833,0.29633 -0.296334,0.29633 -0.316089,0.86925 z"
           style="font-style:normal;font-variant:normal;font-weight:normal;font-stretch:normal;font-size:9.87777805px;font-family:DINMittbek;-inkscape-font-specification:'DINMittbek, Normal';font-variant-ligatures:normal;font-variant-caps:normal;font-variant-numeric:normal;font-feature-settings:normal;text-align:center;writing-mode:lr-tb;text-anchor:middle;stroke-width:0.26458332"
           id="path883" />
        <path
           d="m 90.181725,226.52534 h 1.007533 v 0.5334 h 0.01976 q 0.237067,-0.29634 0.563034,-0.4445 0.335844,-0.14817 0.740833,-0.14817 0.296333,0 0.592667,0.11853 0.296333,0.10866 0.5334,0.32597 0.237067,0.21731 0.385233,0.54328 0.158045,0.32597 0.158045,0.75071 v 3.32881 h -1.007534 v -2.98309 q 0,-0.51364 -0.286455,-0.79022 -0.276578,-0.28646 -0.701323,-0.28646 -0.434622,0 -0.721077,0.28646 -0.276578,0.27658 -0.276578,0.79022 v 2.98309 h -1.007533 z"
           style="font-style:normal;font-variant:normal;font-weight:normal;font-stretch:normal;font-size:9.87777805px;font-family:DINMittbek;-inkscape-font-specification:'DINMittbek, Normal';font-variant-ligatures:normal;font-variant-caps:normal;font-variant-numeric:normal;font-feature-settings:normal;text-align:center;writing-mode:lr-tb;text-anchor:middle;stroke-width:0.26458332"
           id="path885" />
        <path
           d="m 95.516804,232.26433 v -1.73849 h 1.007534 v 1.00753 l -1.007534,0.73096 z"
           style="font-style:normal;font-variant:normal;font-weight:normal;font-stretch:normal;font-size:9.87777805px;font-family:DINMittbek;-inkscape-font-specification:'DINMittbek, Normal';font-variant-ligatures:normal;font-variant-caps:normal;font-variant-numeric:normal;font-feature-settings:normal;text-align:center;writing-mode:lr-tb;text-anchor:middle;stroke-width:0.26458332"
           id="path887" />
        <path
           d="m 101.3592,231.53337 -1.837265,-5.00803 h 1.066805 l 1.17545,3.50661 h 0.0198 l 1.17545,-3.50661 h 1.0668 l -1.83726,5.00803 h -0.82974 z"
           style="font-style:normal;font-variant:normal;font-weight:normal;font-stretch:normal;font-size:9.87777805px;font-family:DINMittbek;-inkscape-font-specification:'DINMittbek, Normal';font-variant-ligatures:normal;font-variant-caps:normal;font-variant-numeric:normal;font-feature-settings:normal;text-align:center;writing-mode:lr-tb;text-anchor:middle;stroke-width:0.26458332"
           id="path889" />
        <path
           d="m 105.37313,229.40965 q 0,0.6223 0.33584,0.92851 0.33585,0.30621 0.85937,0.30621 0.28646,0 0.57291,-0.12841 0.29634,-0.12841 0.52352,-0.3556 l 0.73096,0.6223 q -0.37536,0.43462 -0.83961,0.6223 -0.46426,0.18768 -0.96802,0.18768 -0.38524,0 -0.78035,-0.10866 -0.39511,-0.10865 -0.72108,-0.39511 -0.31608,-0.28645 -0.52352,-0.78034 -0.19755,-0.49389 -0.19755,-1.26436 0,-0.73095 0.18767,-1.22484 0.18768,-0.49389 0.48402,-0.79023 0.29633,-0.30621 0.66181,-0.43462 0.36547,-0.12841 0.73095,-0.12841 0.41487,0 0.79022,0.14817 0.37536,0.14816 0.65194,0.42474 0.28645,0.27658 0.45438,0.67169 0.16792,0.38523 0.16792,0.86925 v 0.82973 z m 2.11384,-0.82973 q -0.0198,-0.57292 -0.31608,-0.86925 -0.29634,-0.29633 -0.74084,-0.29633 -0.4445,0 -0.74083,0.29633 -0.29633,0.29633 -0.31609,0.86925 z"
           style="font-style:normal;font-variant:normal;font-weight:normal;font-stretch:normal;font-size:9.87777805px;font-family:DINMittbek;-inkscape-font-specification:'DINMittbek, Normal';font-variant-ligatures:normal;font-variant-caps:normal;font-variant-numeric:normal;font-feature-settings:normal;text-align:center;writing-mode:lr-tb;text-anchor:middle;stroke-width:0.26458332"
           id="path891" />
        <path
           d="m 109.55143,226.52534 h 1.00753 v 0.5334 h 0.0198 q 0.23707,-0.29634 0.56303,-0.4445 0.33585,-0.14817 0.74084,-0.14817 0.30621,0 0.56303,0.10866 0.25682,0.0988 0.48401,0.27657 l -0.73096,0.86925 q -0.1778,-0.13829 -0.32596,-0.18768 -0.13829,-0.0593 -0.33585,-0.0593 -0.18767,0 -0.36547,0.0593 -0.16793,0.0593 -0.30622,0.18768 -0.13828,0.12841 -0.22718,0.32597 -0.079,0.19755 -0.079,0.47413 v 3.01272 h -1.00753 z"
           style="font-style:normal;font-variant:normal;font-weight:normal;font-stretch:normal;font-size:9.87777805px;font-family:DINMittbek;-inkscape-font-specification:'DINMittbek, Normal';font-variant-ligatures:normal;font-variant-caps:normal;font-variant-numeric:normal;font-feature-settings:normal;text-align:center;writing-mode:lr-tb;text-anchor:middle;stroke-width:0.26458332"
           id="path893" />
        <path
           d="m 113.53881,230.00232 q 0.32597,0.31608 0.70132,0.48401 0.37536,0.15804 0.87913,0.15804 0.43462,0 0.7112,-0.15804 0.27657,-0.16793 0.27657,-0.48401 0,-0.2667 -0.1778,-0.36548 -0.1778,-0.10866 -0.43462,-0.12841 l -0.889,-0.079 q -0.6223,-0.0494 -1.03717,-0.40498 -0.40498,-0.36548 -0.40498,-1.01742 0,-0.38523 0.13828,-0.67168 0.14817,-0.28646 0.39512,-0.47414 0.25682,-0.19755 0.59266,-0.29633 0.34572,-0.0988 0.74084,-0.0988 0.66181,0 1.12606,0.18768 0.46426,0.1778 0.83961,0.49389 l -0.6223,0.73095 q -0.29633,-0.20743 -0.61242,-0.33584 -0.31609,-0.12841 -0.73095,-0.12841 -0.48402,0 -0.67169,0.1778 -0.18768,0.16792 -0.18768,0.42474 0,0.16792 0.13829,0.30621 0.14816,0.13829 0.52352,0.16793 l 0.82973,0.0593 q 0.38524,0.0296 0.66181,0.15805 0.27658,0.11853 0.45438,0.31609 0.1778,0.19755 0.25682,0.46425 0.079,0.2667 0.079,0.56303 0,0.36548 -0.15805,0.65194 -0.15804,0.28645 -0.4445,0.48401 -0.27658,0.19755 -0.66181,0.30621 -0.37535,0.0988 -0.80998,0.0988 -0.61242,0 -1.16557,-0.21731 -0.55316,-0.22719 -1.03717,-0.68157 z"
           style="font-style:normal;font-variant:normal;font-weight:normal;font-stretch:normal;font-size:9.87777805px;font-family:DINMittbek;-inkscape-font-specification:'DINMittbek, Normal';font-variant-ligatures:normal;font-variant-caps:normal;font-variant-numeric:normal;font-feature-settings:normal;text-align:center;writing-mode:lr-tb;text-anchor:middle;stroke-width:0.26458332"
           id="path895" />
        <path
           d="m 118.19587,225.00416 h 1.00754 v 1.52118 h 0.73095 v 0.77046 h -0.73095 v 2.91395 q 0,0.20743 0.079,0.29633 0.0889,0.079 0.27658,0.079 h 0.37535 v 0.94827 h -0.52352 q -0.5334,0 -0.87912,-0.31609 -0.33585,-0.32596 -0.33585,-0.91863 v -3.00285 h -0.50376 v -0.77046 h 0.50376 z"
           style="font-style:normal;font-variant:normal;font-weight:normal;font-stretch:normal;font-size:9.87777805px;font-family:DINMittbek;-inkscape-font-specification:'DINMittbek, Normal';font-variant-ligatures:normal;font-variant-caps:normal;font-variant-numeric:normal;font-feature-settings:normal;text-align:center;writing-mode:lr-tb;text-anchor:middle;stroke-width:0.26458332"
           id="path897" />
        <path
           d="m 121.63674,229.40965 q 0,0.6223 0.33584,0.92851 0.33585,0.30621 0.85937,0.30621 0.28645,0 0.57291,-0.12841 0.29633,-0.12841 0.52352,-0.3556 l 0.73096,0.6223 q -0.37536,0.43462 -0.83961,0.6223 -0.46426,0.18768 -0.96803,0.18768 -0.38523,0 -0.78034,-0.10866 -0.39511,-0.10865 -0.72108,-0.39511 -0.31609,-0.28645 -0.52352,-0.78034 -0.19756,-0.49389 -0.19756,-1.26436 0,-0.73095 0.18768,-1.22484 0.18768,-0.49389 0.48401,-0.79023 0.29634,-0.30621 0.66181,-0.43462 0.36548,-0.12841 0.73096,-0.12841 0.41487,0 0.79022,0.14817 0.37536,0.14816 0.65193,0.42474 0.28646,0.27658 0.45438,0.67169 0.16792,0.38523 0.16792,0.86925 v 0.82973 z m 2.11384,-0.82973 q -0.0198,-0.57292 -0.31609,-0.86925 -0.29633,-0.29633 -0.74083,-0.29633 -0.4445,0 -0.74083,0.29633 -0.29634,0.29633 -0.31609,0.86925 z"
           style="font-style:normal;font-variant:normal;font-weight:normal;font-stretch:normal;font-size:9.87777805px;font-family:DINMittbek;-inkscape-font-specification:'DINMittbek, Normal';font-variant-ligatures:normal;font-variant-caps:normal;font-variant-numeric:normal;font-feature-settings:normal;text-align:center;writing-mode:lr-tb;text-anchor:middle;stroke-width:0.26458332"
           id="path899" />
        <path
           d="m 125.81504,224.50039 h 1.00753 v 5.73899 q 0,0.34572 0.37536,0.34572 h 0.34572 v 0.94827 h -0.4445 q -0.27658,0 -0.51365,-0.0593 -0.22719,-0.0691 -0.40499,-0.20743 -0.16792,-0.14817 -0.2667,-0.37535 -0.0988,-0.23707 -0.0988,-0.57292 z"
           style="font-style:normal;font-variant:normal;font-weight:normal;font-stretch:normal;font-size:9.87777805px;font-family:DINMittbek;-inkscape-font-specification:'DINMittbek, Normal';font-variant-ligatures:normal;font-variant-caps:normal;font-variant-numeric:normal;font-feature-settings:normal;text-align:center;writing-mode:lr-tb;text-anchor:middle;stroke-width:0.26458332"
           id="path901" />
        <path
           d="m 128.36165,224.50039 h 1.00754 v 5.73899 q 0,0.34572 0.37535,0.34572 h 0.34572 v 0.94827 h -0.4445 q -0.27657,0 -0.51364,-0.0593 -0.22719,-0.0691 -0.40499,-0.20743 -0.16792,-0.14817 -0.2667,-0.37535 -0.0988,-0.23707 -0.0988,-0.57292 z"
           style="font-style:normal;font-variant:normal;font-weight:normal;font-stretch:normal;font-size:9.87777805px;font-family:DINMittbek;-inkscape-font-specification:'DINMittbek, Normal';font-variant-ligatures:normal;font-variant-caps:normal;font-variant-numeric:normal;font-feature-settings:normal;text-align:center;writing-mode:lr-tb;text-anchor:middle;stroke-width:0.26458332"
           id="path903" />
        <path
           d="m 131.66886,229.40965 q 0,0.6223 0.33584,0.92851 0.33585,0.30621 0.85937,0.30621 0.28645,0 0.57291,-0.12841 0.29633,-0.12841 0.52352,-0.3556 l 0.73096,0.6223 q -0.37536,0.43462 -0.83961,0.6223 -0.46426,0.18768 -0.96803,0.18768 -0.38523,0 -0.78034,-0.10866 -0.39511,-0.10865 -0.72108,-0.39511 -0.31609,-0.28645 -0.52352,-0.78034 -0.19756,-0.49389 -0.19756,-1.26436 0,-0.73095 0.18768,-1.22484 0.18768,-0.49389 0.48401,-0.79023 0.29634,-0.30621 0.66181,-0.43462 0.36548,-0.12841 0.73096,-0.12841 0.41487,0 0.79022,0.14817 0.37536,0.14816 0.65193,0.42474 0.28646,0.27658 0.45438,0.67169 0.16792,0.38523 0.16792,0.86925 v 0.82973 z m 2.11384,-0.82973 q -0.0198,-0.57292 -0.31609,-0.86925 -0.29633,-0.29633 -0.74083,-0.29633 -0.4445,0 -0.74083,0.29633 -0.29634,0.29633 -0.31609,0.86925 z"
           style="font-style:normal;font-variant:normal;font-weight:normal;font-stretch:normal;font-size:9.87777805px;font-family:DINMittbek;-inkscape-font-specification:'DINMittbek, Normal';font-variant-ligatures:normal;font-variant-caps:normal;font-variant-numeric:normal;font-feature-settings:normal;text-align:center;writing-mode:lr-tb;text-anchor:middle;stroke-width:0.26458332"
           id="path905" />
        <path
           d="m 135.84716,226.52534 h 1.00753 v 0.5334 h 0.0198 q 0.23706,-0.29634 0.56303,-0.4445 0.33584,-0.14817 0.74083,-0.14817 0.29634,0 0.59267,0.11853 0.29633,0.10866 0.5334,0.32597 0.23707,0.21731 0.38523,0.54328 0.15805,0.32597 0.15805,0.75071 v 3.32881 h -1.00754 v -2.98309 q 0,-0.51364 -0.28645,-0.79022 -0.27658,-0.28646 -0.70132,-0.28646 -0.43463,0 -0.72108,0.28646 -0.27658,0.27658 -0.27658,0.79022 v 2.98309 h -1.00753 z"
           style="font-style:normal;font-variant:normal;font-weight:normal;font-stretch:normal;font-size:9.87777805px;font-family:DINMittbek;-inkscape-font-specification:'DINMittbek, Normal';font-variant-ligatures:normal;font-variant-caps:normal;font-variant-numeric:normal;font-feature-settings:normal;text-align:center;writing-mode:lr-tb;text-anchor:middle;stroke-width:0.26458332"
           id="path907" />
        <path
           d="m 141.18223,232.26433 v -1.73849 h 1.00754 v 1.00753 l -1.00754,0.73096 z"
           style="font-style:normal;font-variant:normal;font-weight:normal;font-stretch:normal;font-size:9.87777805px;font-family:DINMittbek;-inkscape-font-specification:'DINMittbek, Normal';font-variant-ligatures:normal;font-variant-caps:normal;font-variant-numeric:normal;font-feature-settings:normal;text-align:center;writing-mode:lr-tb;text-anchor:middle;stroke-width:0.26458332"
           id="path909" />
        <path
           d="m 146.65915,229.40965 q 0,0.6223 0.33585,0.92851 0.33584,0.30621 0.85936,0.30621 0.28646,0 0.57291,-0.12841 0.29634,-0.12841 0.52353,-0.3556 l 0.73095,0.6223 q -0.37535,0.43462 -0.83961,0.6223 -0.46425,0.18768 -0.96802,0.18768 -0.38523,0 -0.78035,-0.10866 -0.39511,-0.10865 -0.72107,-0.39511 -0.31609,-0.28645 -0.52353,-0.78034 -0.19755,-0.49389 -0.19755,-1.26436 0,-0.73095 0.18768,-1.22484 0.18767,-0.49389 0.48401,-0.79023 0.29633,-0.30621 0.66181,-0.43462 0.36548,-0.12841 0.73095,-0.12841 0.41487,0 0.79023,0.14817 0.37535,0.14816 0.65193,0.42474 0.28646,0.27658 0.45438,0.67169 0.16792,0.38523 0.16792,0.86925 v 0.82973 z m 2.11385,-0.82973 q -0.0198,-0.57292 -0.31609,-0.86925 -0.29634,-0.29633 -0.74084,-0.29633 -0.4445,0 -0.74083,0.29633 -0.29633,0.29633 -0.31609,0.86925 z"
           style="font-style:normal;font-variant:normal;font-weight:normal;font-stretch:normal;font-size:9.87777805px;font-family:DINMittbek;-inkscape-font-specification:'DINMittbek, Normal';font-variant-ligatures:normal;font-variant-caps:normal;font-variant-numeric:normal;font-feature-settings:normal;text-align:center;writing-mode:lr-tb;text-anchor:middle;stroke-width:0.26458332"
           id="path911" />
        <path
           d="m 150.89672,225.00416 h 1.00753 v 1.52118 h 0.73096 v 0.77046 h -0.73096 v 2.91395 q 0,0.20743 0.079,0.29633 0.0889,0.079 0.27658,0.079 h 0.37536 v 0.94827 h -0.52352 q -0.5334,0 -0.87913,-0.31609 -0.33584,-0.32596 -0.33584,-0.91863 v -3.00285 h -0.50377 v -0.77046 h 0.50377 z"
           style="font-style:normal;font-variant:normal;font-weight:normal;font-stretch:normal;font-size:9.87777805px;font-family:DINMittbek;-inkscape-font-specification:'DINMittbek, Normal';font-variant-ligatures:normal;font-variant-caps:normal;font-variant-numeric:normal;font-feature-settings:normal;text-align:center;writing-mode:lr-tb;text-anchor:middle;stroke-width:0.26458332"
           id="path913" />
        <path
           d="m 157.2614,230.72339 q -0.32596,0.37536 -0.78034,0.6223 -0.4445,0.24695 -1.01741,0.24695 -0.43462,0 -0.84949,-0.13829 -0.40499,-0.14817 -0.72108,-0.45438 -0.31609,-0.30621 -0.51364,-0.79022 -0.18768,-0.49389 -0.18768,-1.17546 0,-0.69144 0.18768,-1.17545 0.19755,-0.48401 0.51364,-0.79022 0.31609,-0.31609 0.72108,-0.45438 0.41487,-0.14817 0.84949,-0.14817 0.57291,0 1.01741,0.24695 0.45438,0.24694 0.78034,0.6223 l -0.74083,0.66181 q -0.18768,-0.22719 -0.4445,-0.37536 -0.25682,-0.14817 -0.57291,-0.14817 -0.6223,0 -0.96802,0.36548 -0.33585,0.36548 -0.33585,1.19521 0,0.81986 0.33585,1.18534 0.34572,0.36547 0.96802,0.36547 0.31609,0 0.57291,-0.14816 0.25682,-0.14817 0.4445,-0.37536 z"
           style="font-style:normal;font-variant:normal;font-weight:normal;font-stretch:normal;font-size:9.87777805px;font-family:DINMittbek;-inkscape-font-specification:'DINMittbek, Normal';font-variant-ligatures:normal;font-variant-caps:normal;font-variant-numeric:normal;font-feature-settings:normal;text-align:center;writing-mode:lr-tb;text-anchor:middle;stroke-width:0.26458332"
           id="path915" />
        <path
           d="m 157.98604,231.53337 v -1.00753 h 1.00753 v 1.00753 h -1.00753 z"
           style="font-style:normal;font-variant:normal;font-weight:normal;font-stretch:normal;font-size:9.87777805px;font-family:DINMittbek;-inkscape-font-specification:'DINMittbek, Normal';font-variant-ligatures:normal;font-variant-caps:normal;font-variant-numeric:normal;font-feature-settings:normal;text-align:center;writing-mode:lr-tb;text-anchor:middle;stroke-width:0.26458332"
           id="path917" />
        <path
           d="m 60.696558,242.64148 q 0.325966,0.31608 0.701322,0.48401 0.375355,0.15804 0.879122,0.15804 0.434622,0 0.7112,-0.15804 0.276578,-0.16793 0.276578,-0.48401 0,-0.2667 -0.1778,-0.36548 -0.1778,-0.10866 -0.434622,-0.12841 l -0.889,-0.079 q -0.6223,-0.0494 -1.037167,-0.40498 -0.404989,-0.36548 -0.404989,-1.01742 0,-0.38523 0.138289,-0.67168 0.148167,-0.28646 0.395111,-0.47414 0.256822,-0.19755 0.592667,-0.29633 0.345722,-0.0988 0.740833,-0.0988 0.661811,0 1.126067,0.18768 0.464255,0.1778 0.839611,0.49389 l -0.6223,0.73095 q -0.296334,-0.20743 -0.612422,-0.33584 -0.316089,-0.12841 -0.730956,-0.12841 -0.484011,0 -0.671689,0.1778 -0.187678,0.16792 -0.187678,0.42474 0,0.16792 0.138289,0.30621 0.148167,0.13829 0.523522,0.16793 l 0.829734,0.0593 q 0.385233,0.0296 0.661811,0.15805 0.276578,0.11853 0.454378,0.31609 0.1778,0.19755 0.256822,0.46425 0.07902,0.2667 0.07902,0.56303 0,0.36548 -0.158044,0.65194 -0.158045,0.28645 -0.4445,0.48401 -0.276578,0.19755 -0.661811,0.30621 -0.375356,0.0988 -0.809978,0.0988 -0.612422,0 -1.165578,-0.21731 -0.553156,-0.22719 -1.037167,-0.68157 z"
           style="font-style:normal;font-variant:normal;font-weight:normal;font-stretch:normal;font-size:9.87777805px;font-family:DINMittbek;-inkscape-font-specification:'DINMittbek, Normal';font-variant-ligatures:normal;font-variant-caps:normal;font-variant-numeric:normal;font-feature-settings:normal;text-align:center;writing-mode:lr-tb;text-anchor:middle;stroke-width:0.26458332"
           id="path919" />
        <path
           d="m 65.353621,237.64332 h 1.007533 v 1.52118 h 0.730956 v 0.77046 h -0.730956 v 2.91395 q 0,0.20743 0.07902,0.29633 0.0889,0.079 0.276577,0.079 h 0.375356 v 0.94827 h -0.523522 q -0.5334,0 -0.879122,-0.31609 -0.335845,-0.32596 -0.335845,-0.91863 v -3.00285 h -0.503767 v -0.77046 h 0.503767 z"
           style="font-style:normal;font-variant:normal;font-weight:normal;font-stretch:normal;font-size:9.87777805px;font-family:DINMittbek;-inkscape-font-specification:'DINMittbek, Normal';font-variant-ligatures:normal;font-variant-caps:normal;font-variant-numeric:normal;font-feature-settings:normal;text-align:center;writing-mode:lr-tb;text-anchor:middle;stroke-width:0.26458332"
           id="path921" />
        <path
           d="m 68.033895,239.1645 h 1.007533 v 0.5334 h 0.01976 q 0.237067,-0.29634 0.563034,-0.4445 0.335844,-0.14817 0.740833,-0.14817 0.306211,0 0.563034,0.10866 0.256822,0.0988 0.484011,0.27657 l -0.730956,0.86925 q -0.1778,-0.13829 -0.325967,-0.18768 -0.138289,-0.0593 -0.335844,-0.0593 -0.187678,0 -0.365478,0.0593 -0.167922,0.0593 -0.306211,0.18768 -0.138289,0.12841 -0.227189,0.32597 -0.07902,0.19755 -0.07902,0.47413 v 3.01272 h -1.007533 z"
           style="font-style:normal;font-variant:normal;font-weight:normal;font-stretch:normal;font-size:9.87777805px;font-family:DINMittbek;-inkscape-font-specification:'DINMittbek, Normal';font-variant-ligatures:normal;font-variant-caps:normal;font-variant-numeric:normal;font-feature-settings:normal;text-align:center;writing-mode:lr-tb;text-anchor:middle;stroke-width:0.26458332"
           id="path923" />
        <path
           d="m 72.633698,242.04881 q 0,0.6223 0.335845,0.92851 0.335844,0.30621 0.859366,0.30621 0.286456,0 0.572912,-0.12841 0.296333,-0.12841 0.523522,-0.3556 l 0.730955,0.6223 q -0.375355,0.43462 -0.839611,0.6223 -0.464255,0.18768 -0.968022,0.18768 -0.385233,0 -0.780345,-0.10866 -0.395111,-0.10865 -0.721077,-0.39511 -0.316089,-0.28645 -0.523523,-0.78034 -0.197555,-0.49389 -0.197555,-1.26436 0,-0.73095 0.187678,-1.22484 0.187677,-0.49389 0.484011,-0.79023 0.296333,-0.30621 0.661811,-0.43462 0.365478,-0.12841 0.730956,-0.12841 0.414866,0 0.790222,0.14817 0.375355,0.14816 0.651933,0.42474 0.286456,0.27658 0.454378,0.67169 0.167922,0.38523 0.167922,0.86925 v 0.82973 z m 2.113845,-0.82973 q -0.01976,-0.57292 -0.316089,-0.86925 -0.296333,-0.29633 -0.740833,-0.29633 -0.444501,0 -0.740834,0.29633 -0.296333,0.29633 -0.316089,0.86925 z"
           style="font-style:normal;font-variant:normal;font-weight:normal;font-stretch:normal;font-size:9.87777805px;font-family:DINMittbek;-inkscape-font-specification:'DINMittbek, Normal';font-variant-ligatures:normal;font-variant-caps:normal;font-variant-numeric:normal;font-feature-settings:normal;text-align:center;writing-mode:lr-tb;text-anchor:middle;stroke-width:0.26458332"
           id="path925" />
        <path
           d="m 76.811998,239.1645 h 1.007533 v 0.5334 h 0.01976 q 0.237066,-0.29634 0.563033,-0.4445 0.335845,-0.14817 0.740834,-0.14817 0.296333,0 0.592666,0.11853 0.296334,0.10866 0.5334,0.32597 0.237067,0.21731 0.385234,0.54328 0.158044,0.32597 0.158044,0.75071 v 3.32881 h -1.007533 v -2.98309 q 0,-0.51364 -0.286456,-0.79022 -0.276578,-0.28646 -0.701322,-0.28646 -0.434622,0 -0.721078,0.28646 -0.276578,0.27658 -0.276578,0.79022 v 2.98309 h -1.007533 z"
           style="font-style:normal;font-variant:normal;font-weight:normal;font-stretch:normal;font-size:9.87777805px;font-family:DINMittbek;-inkscape-font-specification:'DINMittbek, Normal';font-variant-ligatures:normal;font-variant-caps:normal;font-variant-numeric:normal;font-feature-settings:normal;text-align:center;writing-mode:lr-tb;text-anchor:middle;stroke-width:0.26458332"
           id="path927" />
        <path
           d="m 84.932611,243.64901 q -0.237066,0.25682 -0.572911,0.42474 -0.335844,0.15805 -0.721078,0.15805 -0.493889,0 -0.829733,-0.19756 -0.325967,-0.19755 -0.493889,-0.41486 -0.108655,-0.13829 -0.1778,-0.2667 -0.06914,-0.12842 -0.118533,-0.32597 -0.03951,-0.20743 -0.05927,-0.52352 -0.01976,-0.31609 -0.01976,-0.82974 0,-0.52352 0.01976,-0.83961 0.01976,-0.31609 0.05927,-0.51364 0.04939,-0.20744 0.118533,-0.33585 0.06914,-0.12841 0.1778,-0.2667 0.167922,-0.21731 0.493889,-0.41486 0.335844,-0.19756 0.829733,-0.19756 0.385234,0 0.691445,0.14817 0.316089,0.14816 0.602544,0.4445 v -0.5334 h 1.007534 v 4.8895 q 0,0.56303 -0.1778,0.9779 -0.1778,0.41486 -0.484012,0.68156 -0.296333,0.27658 -0.691444,0.40499 -0.385233,0.13829 -0.819856,0.13829 -0.484011,0 -0.948266,-0.23706 -0.454378,-0.22719 -0.790222,-0.60255 l 0.780344,-0.6223 q 0.187678,0.18768 0.434622,0.31609 0.256822,0.13829 0.543278,0.13829 0.503767,0 0.819856,-0.27658 0.325966,-0.27658 0.325966,-0.80998 z m -1.985433,-1.97556 q 0,0.29634 0,0.48401 0.0099,0.18768 0.02963,0.31609 0.01976,0.11854 0.05927,0.19756 0.03951,0.079 0.108655,0.16792 0.108656,0.13829 0.296334,0.2667 0.197555,0.11853 0.503766,0.11853 0.296334,0 0.484012,-0.11853 0.197555,-0.12841 0.306211,-0.2667 0.06914,-0.0889 0.108655,-0.16792 0.03951,-0.079 0.05927,-0.19756 0.01975,-0.12841 0.01975,-0.31609 0.0099,-0.18767 0.0099,-0.48401 0,-0.30621 -0.0099,-0.49389 0,-0.18767 -0.01975,-0.30621 -0.01976,-0.12841 -0.05927,-0.20743 -0.03951,-0.079 -0.108655,-0.16792 -0.108656,-0.13829 -0.306211,-0.25682 -0.187678,-0.12842 -0.484012,-0.12842 -0.306211,0 -0.503766,0.12842 -0.187678,0.11853 -0.296334,0.25682 -0.06914,0.0889 -0.108655,0.16792 -0.03951,0.079 -0.05927,0.20743 -0.01976,0.11854 -0.02963,0.30621 0,0.18768 0,0.49389 z"
           style="font-style:normal;font-variant:normal;font-weight:normal;font-stretch:normal;font-size:9.87777805px;font-family:DINMittbek;-inkscape-font-specification:'DINMittbek, Normal';font-variant-ligatures:normal;font-variant-caps:normal;font-variant-numeric:normal;font-feature-settings:normal;text-align:center;writing-mode:lr-tb;text-anchor:middle;stroke-width:0.26458332"
           id="path929" />
        <path
           d="m 87.397426,242.64148 q 0.325967,0.31608 0.701322,0.48401 0.375356,0.15804 0.879123,0.15804 0.434622,0 0.7112,-0.15804 0.276577,-0.16793 0.276577,-0.48401 0,-0.2667 -0.1778,-0.36548 -0.1778,-0.10866 -0.434622,-0.12841 l -0.889,-0.079 q -0.6223,-0.0494 -1.037167,-0.40498 -0.404988,-0.36548 -0.404988,-1.01742 0,-0.38523 0.138288,-0.67168 0.148167,-0.28646 0.395112,-0.47414 0.256822,-0.19755 0.592666,-0.29633 0.345723,-0.0988 0.740834,-0.0988 0.661811,0 1.126066,0.18768 0.464256,0.1778 0.839611,0.49389 l -0.6223,0.73095 q -0.296333,-0.20743 -0.612422,-0.33584 -0.316089,-0.12841 -0.730955,-0.12841 -0.484011,0 -0.671689,0.1778 -0.187678,0.16792 -0.187678,0.42474 0,0.16792 0.138289,0.30621 0.148167,0.13829 0.523522,0.16793 l 0.829733,0.0593 q 0.385234,0.0296 0.661812,0.15805 0.276577,0.11853 0.454377,0.31609 0.1778,0.19755 0.256823,0.46425 0.07902,0.2667 0.07902,0.56303 0,0.36548 -0.158045,0.65194 -0.158044,0.28645 -0.4445,0.48401 -0.276577,0.19755 -0.661811,0.30621 -0.375355,0.0988 -0.809978,0.0988 -0.612422,0 -1.165577,-0.21731 -0.553156,-0.22719 -1.037167,-0.68157 z"
           style="font-style:normal;font-variant:normal;font-weight:normal;font-stretch:normal;font-size:9.87777805px;font-family:DINMittbek;-inkscape-font-specification:'DINMittbek, Normal';font-variant-ligatures:normal;font-variant-caps:normal;font-variant-numeric:normal;font-feature-settings:normal;text-align:center;writing-mode:lr-tb;text-anchor:middle;stroke-width:0.26458332"
           id="path931" />
        <path
           d="m 92.05449,237.64332 h 1.007534 v 1.52118 h 0.730955 v 0.77046 h -0.730955 v 2.91395 q 0,0.20743 0.07902,0.29633 0.0889,0.079 0.276578,0.079 h 0.375355 v 0.94827 h -0.523522 q -0.5334,0 -0.879122,-0.31609 -0.335845,-0.32596 -0.335845,-0.91863 v -3.00285 h -0.503766 v -0.77046 h 0.503766 z"
           style="font-style:normal;font-variant:normal;font-weight:normal;font-stretch:normal;font-size:9.87777805px;font-family:DINMittbek;-inkscape-font-specification:'DINMittbek, Normal';font-variant-ligatures:normal;font-variant-caps:normal;font-variant-numeric:normal;font-feature-settings:normal;text-align:center;writing-mode:lr-tb;text-anchor:middle;stroke-width:0.26458332"
           id="path933" />
        <path
           d="m 95.495351,242.04881 q 0,0.6223 0.335844,0.92851 0.335845,0.30621 0.859367,0.30621 0.286455,0 0.572911,-0.12841 0.296333,-0.12841 0.523522,-0.3556 l 0.730956,0.6223 q -0.375356,0.43462 -0.839611,0.6223 -0.464256,0.18768 -0.968023,0.18768 -0.385233,0 -0.780344,-0.10866 -0.395111,-0.10865 -0.721078,-0.39511 -0.316089,-0.28645 -0.523522,-0.78034 -0.197556,-0.49389 -0.197556,-1.26436 0,-0.73095 0.187678,-1.22484 0.187678,-0.49389 0.484011,-0.79023 0.296334,-0.30621 0.661811,-0.43462 0.365478,-0.12841 0.730956,-0.12841 0.414867,0 0.790222,0.14817 0.375356,0.14816 0.651933,0.42474 0.286456,0.27658 0.454378,0.67169 0.167922,0.38523 0.167922,0.86925 v 0.82973 z m 2.113844,-0.82973 q -0.01976,-0.57292 -0.316089,-0.86925 -0.296333,-0.29633 -0.740833,-0.29633 -0.4445,0 -0.740833,0.29633 -0.296334,0.29633 -0.316089,0.86925 z"
           style="font-style:normal;font-variant:normal;font-weight:normal;font-stretch:normal;font-size:9.87777805px;font-family:DINMittbek;-inkscape-font-specification:'DINMittbek, Normal';font-variant-ligatures:normal;font-variant-caps:normal;font-variant-numeric:normal;font-feature-settings:normal;text-align:center;writing-mode:lr-tb;text-anchor:middle;stroke-width:0.26458332"
           id="path935" />
        <path
           d="m 99.673654,239.1645 h 1.007536 v 0.5334 h 0.0198 q 0.23707,-0.29634 0.56304,-0.4445 0.33584,-0.14817 0.74083,-0.14817 0.29633,0 0.59267,0.11853 0.29633,0.10866 0.5334,0.32597 0.23706,0.21731 0.38523,0.54328 0.15804,0.32597 0.15804,0.75071 v 3.32881 h -1.00753 v -2.98309 q 0,-0.51364 -0.28645,-0.79022 -0.27658,-0.28646 -0.70133,-0.28646 -0.43462,0 -0.72107,0.28646 -0.27658,0.27658 -0.27658,0.79022 v 2.98309 h -1.007536 z"
           style="font-style:normal;font-variant:normal;font-weight:normal;font-stretch:normal;font-size:9.87777805px;font-family:DINMittbek;-inkscape-font-specification:'DINMittbek, Normal';font-variant-ligatures:normal;font-variant-caps:normal;font-variant-numeric:normal;font-feature-settings:normal;text-align:center;writing-mode:lr-tb;text-anchor:middle;stroke-width:0.26458332"
           id="path937" />
        <path
           d="m 105.12727,242.64148 q 0.32596,0.31608 0.70132,0.48401 0.37536,0.15804 0.87912,0.15804 0.43462,0 0.7112,-0.15804 0.27658,-0.16793 0.27658,-0.48401 0,-0.2667 -0.1778,-0.36548 -0.1778,-0.10866 -0.43462,-0.12841 l -0.889,-0.079 q -0.6223,-0.0494 -1.03717,-0.40498 -0.40499,-0.36548 -0.40499,-1.01742 0,-0.38523 0.13829,-0.67168 0.14817,-0.28646 0.39511,-0.47414 0.25682,-0.19755 0.59267,-0.29633 0.34572,-0.0988 0.74083,-0.0988 0.66181,0 1.12607,0.18768 0.46425,0.1778 0.83961,0.49389 l -0.6223,0.73095 q -0.29633,-0.20743 -0.61242,-0.33584 -0.31609,-0.12841 -0.73096,-0.12841 -0.48401,0 -0.67169,0.1778 -0.18767,0.16792 -0.18767,0.42474 0,0.16792 0.13828,0.30621 0.14817,0.13829 0.52353,0.16793 l 0.82973,0.0593 q 0.38523,0.0296 0.66181,0.15805 0.27658,0.11853 0.45438,0.31609 0.1778,0.19755 0.25682,0.46425 0.079,0.2667 0.079,0.56303 0,0.36548 -0.15804,0.65194 -0.15805,0.28645 -0.4445,0.48401 -0.27658,0.19755 -0.66181,0.30621 -0.37536,0.0988 -0.80998,0.0988 -0.61242,0 -1.16558,-0.21731 -0.55315,-0.22719 -1.03716,-0.68157 z"
           style="font-style:normal;font-variant:normal;font-weight:normal;font-stretch:normal;font-size:9.87777805px;font-family:DINMittbek;-inkscape-font-specification:'DINMittbek, Normal';font-variant-ligatures:normal;font-variant-caps:normal;font-variant-numeric:normal;font-feature-settings:normal;text-align:center;writing-mode:lr-tb;text-anchor:middle;stroke-width:0.26458332"
           id="path939" />
        <path
           d="m 113.22411,244.17253 -1.83727,-5.00803 h 1.0668 l 1.17546,3.50661 h 0.0198 l 1.17546,-3.50661 h 1.0668 l -1.83727,5.00803 h -0.82973 z"
           style="font-style:normal;font-variant:normal;font-weight:normal;font-stretch:normal;font-size:9.87777805px;font-family:DINMittbek;-inkscape-font-specification:'DINMittbek, Normal';font-variant-ligatures:normal;font-variant-caps:normal;font-variant-numeric:normal;font-feature-settings:normal;text-align:center;writing-mode:lr-tb;text-anchor:middle;stroke-width:0.26458332"
           id="path941" />
        <path
           d="m 117.23804,242.04881 q 0,0.6223 0.33584,0.92851 0.33585,0.30621 0.85937,0.30621 0.28645,0 0.57291,-0.12841 0.29633,-0.12841 0.52352,-0.3556 l 0.73096,0.6223 q -0.37536,0.43462 -0.83961,0.6223 -0.46426,0.18768 -0.96803,0.18768 -0.38523,0 -0.78034,-0.10866 -0.39511,-0.10865 -0.72108,-0.39511 -0.31609,-0.28645 -0.52352,-0.78034 -0.19756,-0.49389 -0.19756,-1.26436 0,-0.73095 0.18768,-1.22484 0.18768,-0.49389 0.48401,-0.79023 0.29634,-0.30621 0.66181,-0.43462 0.36548,-0.12841 0.73096,-0.12841 0.41487,0 0.79022,0.14817 0.37536,0.14816 0.65194,0.42474 0.28645,0.27658 0.45437,0.67169 0.16793,0.38523 0.16793,0.86925 v 0.82973 z m 2.11384,-0.82973 q -0.0197,-0.57292 -0.31609,-0.86925 -0.29633,-0.29633 -0.74083,-0.29633 -0.4445,0 -0.74083,0.29633 -0.29634,0.29633 -0.31609,0.86925 z"
           style="font-style:normal;font-variant:normal;font-weight:normal;font-stretch:normal;font-size:9.87777805px;font-family:DINMittbek;-inkscape-font-specification:'DINMittbek, Normal';font-variant-ligatures:normal;font-variant-caps:normal;font-variant-numeric:normal;font-feature-settings:normal;text-align:center;writing-mode:lr-tb;text-anchor:middle;stroke-width:0.26458332"
           id="path943" />
        <path
           d="m 121.41634,239.1645 h 1.00753 v 0.5334 h 0.0198 q 0.23707,-0.29634 0.56303,-0.4445 0.33585,-0.14817 0.74084,-0.14817 0.30621,0 0.56303,0.10866 0.25682,0.0988 0.48401,0.27657 l -0.73095,0.86925 q -0.1778,-0.13829 -0.32597,-0.18768 -0.13829,-0.0593 -0.33585,-0.0593 -0.18767,0 -0.36547,0.0593 -0.16793,0.0593 -0.30621,0.18768 -0.13829,0.12841 -0.22719,0.32597 -0.079,0.19755 -0.079,0.47413 v 3.01272 h -1.00753 z"
           style="font-style:normal;font-variant:normal;font-weight:normal;font-stretch:normal;font-size:9.87777805px;font-family:DINMittbek;-inkscape-font-specification:'DINMittbek, Normal';font-variant-ligatures:normal;font-variant-caps:normal;font-variant-numeric:normal;font-feature-settings:normal;text-align:center;writing-mode:lr-tb;text-anchor:middle;stroke-width:0.26458332"
           id="path945" />
        <path
           d="m 125.25555,237.13955 h 1.00754 v 2.55835 q 0.28645,-0.2667 0.59266,-0.42475 0.31609,-0.16792 0.70132,-0.16792 0.46426,0 0.79023,0.18768 0.33584,0.1778 0.55315,0.46425 0.10866,0.12842 0.16792,0.27658 0.0692,0.13829 0.10866,0.3556 0.0494,0.20744 0.0593,0.51365 0.0197,0.29633 0.0197,0.76059 0,0.46425 -0.0197,0.77046 -0.01,0.30621 -0.0593,0.52352 -0.0395,0.20744 -0.10866,0.34573 -0.0593,0.13829 -0.16792,0.27657 -0.21731,0.28646 -0.55315,0.47414 -0.32597,0.1778 -0.79023,0.1778 -0.38523,0 -0.72107,-0.15805 -0.33585,-0.16792 -0.57291,-0.42474 v 0.52352 h -1.00754 z m 1.99531,2.97321 q -0.3556,0 -0.55315,0.14817 -0.19756,0.13829 -0.29634,0.36548 -0.0889,0.21731 -0.11853,0.49389 -0.0197,0.27658 -0.0197,0.54328 0,0.27657 0.0197,0.55315 0.0296,0.27658 0.11853,0.50377 0.0988,0.21731 0.29634,0.36548 0.19755,0.13828 0.55315,0.13828 0.3556,0 0.55316,-0.12841 0.20743,-0.13829 0.29633,-0.3556 0.0988,-0.22719 0.11854,-0.50376 0.0296,-0.27658 0.0296,-0.57291 0,-0.28646 -0.0296,-0.56304 -0.0198,-0.28645 -0.11854,-0.50376 -0.0889,-0.21732 -0.29633,-0.34573 -0.19756,-0.13829 -0.55316,-0.13829 z"
           style="font-style:normal;font-variant:normal;font-weight:normal;font-stretch:normal;font-size:9.87777805px;font-family:DINMittbek;-inkscape-font-specification:'DINMittbek, Normal';font-variant-ligatures:normal;font-variant-caps:normal;font-variant-numeric:normal;font-feature-settings:normal;text-align:center;writing-mode:lr-tb;text-anchor:middle;stroke-width:0.26458332"
           id="path947" />
        <path
           d="m 130.14042,241.66358 q 0,-0.40499 0.0296,-0.69145 0.0296,-0.29633 0.0988,-0.51364 0.0691,-0.21731 0.16792,-0.38524 0.0988,-0.16792 0.24695,-0.32596 0.10865,-0.11854 0.24694,-0.22719 0.13829,-0.11854 0.32597,-0.20744 0.18768,-0.0889 0.41487,-0.14816 0.23706,-0.0593 0.5334,-0.0593 0.29633,0 0.52352,0.0593 0.23706,0.0593 0.42474,0.14816 0.18768,0.0889 0.32597,0.20744 0.14817,0.10865 0.24694,0.22719 0.14817,0.15804 0.24695,0.32596 0.0988,0.16793 0.16792,0.38524 0.0691,0.21731 0.0988,0.51364 0.0296,0.28646 0.0296,0.69145 0,0.40498 -0.0296,0.70132 -0.0296,0.28645 -0.0988,0.51364 -0.0691,0.21731 -0.16792,0.38524 -0.0988,0.16792 -0.24695,0.32596 -0.0988,0.11854 -0.24694,0.23707 -0.13829,0.10865 -0.32597,0.19755 -0.18768,0.0889 -0.42474,0.14817 -0.22719,0.0593 -0.52352,0.0593 -0.29634,0 -0.5334,-0.0593 -0.22719,-0.0593 -0.41487,-0.14817 -0.18768,-0.0889 -0.32597,-0.19755 -0.13829,-0.11853 -0.24694,-0.23707 -0.14817,-0.15804 -0.24695,-0.32596 -0.0988,-0.16793 -0.16792,-0.38524 -0.0691,-0.22719 -0.0988,-0.51364 -0.0296,-0.29634 -0.0296,-0.70132 z m 3.12138,0.01 q 0,-0.27657 -0.01,-0.45437 -0.01,-0.18768 -0.0395,-0.31609 -0.0296,-0.12841 -0.079,-0.22719 -0.0494,-0.0988 -0.11854,-0.19756 -0.10865,-0.15804 -0.33584,-0.25682 -0.21731,-0.10866 -0.47413,-0.10866 -0.25683,0 -0.48402,0.10866 -0.21731,0.0988 -0.32596,0.25682 -0.0692,0.0988 -0.11854,0.19756 -0.0494,0.0988 -0.079,0.22719 -0.0296,0.12841 -0.0395,0.31609 -0.01,0.1778 -0.01,0.4445 0,0.27657 0.01,0.46425 0.01,0.1778 0.0395,0.30621 0.0296,0.12841 0.079,0.22719 0.0494,0.0988 0.11854,0.19756 0.10865,0.15804 0.32596,0.2667 0.22719,0.0988 0.48402,0.0988 0.25682,0 0.47413,-0.0988 0.22719,-0.10866 0.33584,-0.2667 0.0692,-0.0988 0.11854,-0.19756 0.0494,-0.0988 0.079,-0.22719 0.0296,-0.12841 0.0395,-0.30621 0.01,-0.18768 0.01,-0.45438 z"
           style="font-style:normal;font-variant:normal;font-weight:normal;font-stretch:normal;font-size:9.87777805px;font-family:DINMittbek;-inkscape-font-specification:'DINMittbek, Normal';font-variant-ligatures:normal;font-variant-caps:normal;font-variant-numeric:normal;font-feature-settings:normal;text-align:center;writing-mode:lr-tb;text-anchor:middle;stroke-width:0.26458332"
           id="path949" />
        <path
           d="m 135.38553,237.64332 h 1.00753 v 1.52118 h 0.73096 v 0.77046 h -0.73096 v 2.91395 q 0,0.20743 0.079,0.29633 0.0889,0.079 0.27658,0.079 h 0.37536 v 0.94827 h -0.52353 q -0.5334,0 -0.87912,-0.31609 -0.33584,-0.32596 -0.33584,-0.91863 v -3.00285 h -0.50377 v -0.77046 h 0.50377 z"
           style="font-style:normal;font-variant:normal;font-weight:normal;font-stretch:normal;font-size:9.87777805px;font-family:DINMittbek;-inkscape-font-specification:'DINMittbek, Normal';font-variant-ligatures:normal;font-variant-caps:normal;font-variant-numeric:normal;font-feature-settings:normal;text-align:center;writing-mode:lr-tb;text-anchor:middle;stroke-width:0.26458332"
           id="path951" />
        <path
           d="m 138.82639,242.04881 q 0,0.6223 0.33584,0.92851 0.33585,0.30621 0.85937,0.30621 0.28646,0 0.57291,-0.12841 0.29634,-0.12841 0.52352,-0.3556 l 0.73096,0.6223 q -0.37536,0.43462 -0.83961,0.6223 -0.46426,0.18768 -0.96802,0.18768 -0.38524,0 -0.78035,-0.10866 -0.39511,-0.10865 -0.72108,-0.39511 -0.31608,-0.28645 -0.52352,-0.78034 -0.19755,-0.49389 -0.19755,-1.26436 0,-0.73095 0.18767,-1.22484 0.18768,-0.49389 0.48402,-0.79023 0.29633,-0.30621 0.66181,-0.43462 0.36547,-0.12841 0.73095,-0.12841 0.41487,0 0.79022,0.14817 0.37536,0.14816 0.65194,0.42474 0.28645,0.27658 0.45438,0.67169 0.16792,0.38523 0.16792,0.86925 v 0.82973 z m 2.11384,-0.82973 q -0.0198,-0.57292 -0.31608,-0.86925 -0.29634,-0.29633 -0.74084,-0.29633 -0.4445,0 -0.74083,0.29633 -0.29633,0.29633 -0.31609,0.86925 z"
           style="font-style:normal;font-variant:normal;font-weight:normal;font-stretch:normal;font-size:9.87777805px;font-family:DINMittbek;-inkscape-font-specification:'DINMittbek, Normal';font-variant-ligatures:normal;font-variant-caps:normal;font-variant-numeric:normal;font-feature-settings:normal;text-align:center;writing-mode:lr-tb;text-anchor:middle;stroke-width:0.26458332"
           id="path953" />
        <path
           d="m 143.00469,239.1645 h 1.00753 v 0.5334 h 0.0198 q 0.23707,-0.29634 0.56303,-0.4445 0.33585,-0.14817 0.74084,-0.14817 0.29633,0 0.59266,0.11853 0.29634,0.10866 0.5334,0.32597 0.23707,0.21731 0.38524,0.54328 0.15804,0.32597 0.15804,0.75071 v 3.32881 h -1.00753 v -2.98309 q 0,-0.51364 -0.28646,-0.79022 -0.27658,-0.28646 -0.70132,-0.28646 -0.43462,0 -0.72108,0.28646 -0.27658,0.27658 -0.27658,0.79022 v 2.98309 h -1.00753 z"
           style="font-style:normal;font-variant:normal;font-weight:normal;font-stretch:normal;font-size:9.87777805px;font-family:DINMittbek;-inkscape-font-specification:'DINMittbek, Normal';font-variant-ligatures:normal;font-variant-caps:normal;font-variant-numeric:normal;font-feature-settings:normal;text-align:center;writing-mode:lr-tb;text-anchor:middle;stroke-width:0.26458332"
           id="path955" />
        <path
           d="m 148.67561,242.43404 -0.37536,-5.29449 h 1.26436 l -0.38523,5.29449 h -0.50377 z m -0.24694,1.73849 V 243.165 h 1.00753 v 1.00753 h -1.00753 z"
           style="font-style:normal;font-variant:normal;font-weight:normal;font-stretch:normal;font-size:9.87777805px;font-family:DINMittbek;-inkscape-font-specification:'DINMittbek, Normal';font-variant-ligatures:normal;font-variant-caps:normal;font-variant-numeric:normal;font-feature-settings:normal;text-align:center;writing-mode:lr-tb;text-anchor:middle;stroke-width:0.26458332"
           id="path957" />
      </g>
    </g>
  </g>
</svg>
