<?xml version="1.0" encoding="UTF-8" standalone="no"?>
<!-- Created with Inkscape (http://www.inkscape.org/) -->

<svg
   xmlns:dc="http://purl.org/dc/elements/1.1/"
   xmlns:cc="http://creativecommons.org/ns#"
   xmlns:rdf="http://www.w3.org/1999/02/22-rdf-syntax-ns#"
   xmlns:svg="http://www.w3.org/2000/svg"
   xmlns="http://www.w3.org/2000/svg"
   xmlns:sodipodi="http://sodipodi.sourceforge.net/DTD/sodipodi-0.dtd"
   xmlns:inkscape="http://www.inkscape.org/namespaces/inkscape"
   width="210mm"
   height="297mm"
   viewBox="0 0 210 297"
   version="1.1"
   id="svg893"
   inkscape:version="0.92.3 (2405546, 2018-03-11)"
   sodipodi:docname="kaffeemaschinen-schild-DIN.svg">
  <defs
     id="defs887" />
  <sodipodi:namedview
     id="base"
     pagecolor="#ffffff"
     bordercolor="#666666"
     borderopacity="1.0"
     inkscape:pageopacity="0.0"
     inkscape:pageshadow="2"
     inkscape:zoom="0.7"
     inkscape:cx="-7.89046"
     inkscape:cy="474.48499"
     inkscape:document-units="mm"
     inkscape:current-layer="g1757"
     showgrid="false"
     inkscape:window-width="1920"
     inkscape:window-height="1047"
     inkscape:window-x="1920"
     inkscape:window-y="0"
     inkscape:window-maximized="1" />
  <metadata
     id="metadata890">
    <rdf:RDF>
      <cc:Work
         rdf:about="">
        <dc:format>image/svg+xml</dc:format>
        <dc:type
           rdf:resource="http://purl.org/dc/dcmitype/StillImage" />
        <dc:title></dc:title>
      </cc:Work>
    </rdf:RDF>
  </metadata>
  <g
     inkscape:label="Layer 1"
     inkscape:groupmode="layer"
     id="layer1">
    <g
       id="g1731"
       transform="translate(9.3974152)">
      <rect
         y="13.517858"
         x="15.875"
         height="163.56265"
         width="159.45517"
         id="rect1654"
         style="fill:#009a3b;fill-opacity:1;stroke:none;stroke-width:1.32655239;stroke-linecap:round;stroke-linejoin:bevel;stroke-miterlimit:4;stroke-dasharray:none;stroke-opacity:1" />
      <g
         style="fill:#ffffff;stroke:none"
         transform="matrix(0.23644704,0,0,0.23644704,24.87387,46.055201)"
         id="g1517">
        <g
           style="fill:#ffffff;stroke:none"
           id="g1442">
          <g
             style="fill:#ffffff;stroke:none"
             id="g1440">
            <path
               style="fill:#ffffff;stroke:none"
               inkscape:connector-curvature="0"
               d="m 179.361,99.903 c -11.41,-11.41 -16.454,-17.005 -16.452,-30.089 -0.002,-13.079 5.044,-18.674 16.457,-30.089 9.089,-9.087 9.089,-23.82 0.002,-32.909 -9.087,-9.09 -23.825,-9.087 -32.914,-0.002 -12.699,12.698 -30.095,30.09 -30.09,62.999 -0.005,32.914 17.388,50.305 30.089,63.001 11.411,11.413 16.457,17.011 16.457,30.092 0,12.854 10.42,23.273 23.273,23.273 12.853,0 23.273,-10.418 23.273,-23.273 -0.002,-32.913 -17.394,-50.305 -30.095,-63.003 z"
               id="path1438" />
          </g>
        </g>
        <g
           style="fill:#ffffff;stroke:none"
           id="g1448">
          <g
             style="fill:#ffffff;stroke:none"
             id="g1446">
            <path
               style="fill:#ffffff;stroke:none"
               inkscape:connector-curvature="0"
               d="m 287.967,99.903 c -11.41,-11.41 -16.454,-17.005 -16.452,-30.089 -0.002,-13.079 5.044,-18.674 16.457,-30.089 9.089,-9.087 9.089,-23.82 0.002,-32.909 -9.087,-9.09 -23.825,-9.087 -32.914,-0.002 -12.699,12.698 -30.095,30.092 -30.09,62.999 -0.005,32.914 17.388,50.305 30.089,63.001 11.411,11.413 16.457,17.011 16.457,30.092 0,12.854 10.42,23.273 23.273,23.273 12.853,0 23.273,-10.418 23.273,-23.273 -0.001,-32.913 -17.394,-50.305 -30.095,-63.003 z"
               id="path1444" />
          </g>
        </g>
        <g
           style="fill:#ffffff;stroke:none"
           id="g1454">
          <g
             style="fill:#ffffff;stroke:none"
             id="g1452">
            <path
               style="fill:#ffffff;stroke:none"
               inkscape:connector-curvature="0"
               d="m 381.401,403.393 h 21.993 c 0.022,0 0.039,-0.003 0.061,-0.003 47.023,-0.031 85.273,-38.298 85.273,-85.331 0,-47.053 -38.281,-85.334 -85.334,-85.334 H 372.364 62.06 c -12.853,0 -23.273,10.422 -23.273,23.273 v 77.576 c 0,52.193 22.528,99.221 58.37,131.879 H 46.545 c -12.853,0 -23.273,10.418 -23.273,23.273 0,12.851 10.42,23.273 23.273,23.273 h 170.667 170.667 c 12.853,0 23.273,-10.422 23.273,-23.273 0,-12.854 -10.42,-23.273 -23.273,-23.273 h -50.612 c 18.837,-17.164 33.99,-38.295 44.134,-62.06 z m 14.236,-69.818 v -54.303 h 7.758 c 21.388,0 38.788,17.4 38.788,38.788 0,21.388 -17.4,38.788 -38.788,38.788 -0.011,0 -0.02,0 -0.031,0 h -9.245 c 0.996,-7.619 1.518,-15.387 1.518,-23.273 z"
               id="path1450" />
          </g>
        </g>
        <g
           style="fill:#ffffff;stroke:none"
           id="g1456" />
        <g
           style="fill:#ffffff;stroke:none"
           id="g1458" />
        <g
           style="fill:#ffffff;stroke:none"
           id="g1460" />
        <g
           style="fill:#ffffff;stroke:none"
           id="g1462" />
        <g
           style="fill:#ffffff;stroke:none"
           id="g1464" />
        <g
           style="fill:#ffffff;stroke:none"
           id="g1466" />
        <g
           style="fill:#ffffff;stroke:none"
           id="g1468" />
        <g
           style="fill:#ffffff;stroke:none"
           id="g1470" />
        <g
           style="fill:#ffffff;stroke:none"
           id="g1472" />
        <g
           style="fill:#ffffff;stroke:none"
           id="g1474" />
        <g
           style="fill:#ffffff;stroke:none"
           id="g1476" />
        <g
           style="fill:#ffffff;stroke:none"
           id="g1478" />
        <g
           style="fill:#ffffff;stroke:none"
           id="g1480" />
        <g
           style="fill:#ffffff;stroke:none"
           id="g1482" />
        <g
           style="fill:#ffffff;stroke:none"
           id="g1484" />
      </g>
      <path
         sodipodi:nodetypes="ccccccccccccscccccc"
         style="fill:#009a3b;fill-rule:evenodd;stroke-width:0.10144585;image-rendering:optimizeQuality;shape-rendering:geometricPrecision;text-rendering:geometricPrecision"
         inkscape:connector-curvature="0"
         id="path876"
         d="m 77.194677,153.40631 c 2.13037,-1.1159 4.97085,-3.04337 7.81133,-5.57952 3.04338,-2.53615 5.37663,-4.97085 7.506988,-7.60844 2.739022,-3.24627 4.666483,-6.59398 5.17371,-9.13013 0.202887,-1.31879 0.202887,-3.65205 0,-5.07229 -0.507227,-2.73904 -1.623131,-5.27519 -3.347702,-7.3041 -2.028908,-2.53615 -4.869376,-4.05784 -7.608416,-4.15928 -1.92747,-0.10145 -3.75349,0.30433 -5.57952,1.21735 -1.52169,0.71012 -2.63759,1.42024 -3.85494,2.63759 -0.40578,0.50723 -0.81157,0.81156 -0.81157,0.81156 0,0 -0.40578,-0.30433 -0.81156,-0.71012 -1.92748,-1.92747 -4.15929,-3.24626 -6.59399,-3.75349 -3.246264,-0.71012 -6.086748,0 -8.724341,2.02891 -2.739038,2.33326 -4.767955,6.08676 -5.275184,9.9417 -0.202892,1.62313 -0.101446,3.55061 0.304337,4.8694 0.913013,3.55061 3.854943,8.01422 8.622898,12.68073 3.85494,3.85494 8.42001,7.40555 11.66628,9.13013 0.40578,0.10145 0.71012,0.30434 0.81156,0.30434 0,0 0.30434,-0.10145 0.71012,-0.30434 z"
         class="fil1" />
      <path
         sodipodi:nodetypes="ccccccccscccccscscccscccc"
         style="fill:#ffffff;fill-opacity:1;fill-rule:evenodd;stroke-width:0.26458332;image-rendering:optimizeQuality;shape-rendering:geometricPrecision;text-rendering:geometricPrecision;stroke:none"
         inkscape:connector-curvature="0"
         id="path876-3"
         d="m 152.80564,55.243292 v -7.408333 l 7.67292,-0.264583 h 7.9375 v -6.35 -6.35 h -7.67292 c -5.82083,0 -7.67292,-0.264584 -7.9375,-0.264584 v -7.672916 -7.672917 h -7.14375 -6.87917 v 7.408333 c 0,6.614584 0,7.672917 -0.26458,7.9375 0,0.264584 -1.05833,0.264584 -7.9375,0.264584 h -7.67292 v 6.35 6.35 h 7.9375 c 6.87917,0 7.67292,0 7.9375,0.264583 v 7.672917 7.14375 h 6.87917 6.87917 z"
         class="fil1" />
    </g>
    <g
       id="g1757"
       transform="translate(0,12.85119)">
      <rect
         y="192.00125"
         x="20.307571"
         height="64.280777"
         width="169.38486"
         id="rect1701"
         style="fill:none;fill-opacity:1;stroke:#ff0000;stroke-width:8;stroke-linecap:square;stroke-linejoin:miter;stroke-miterlimit:4;stroke-dasharray:none;stroke-opacity:1" />
      <text
         id="text1739"
         y="214.65363"
         x="30.258659"
         style="font-style:normal;font-variant:normal;font-weight:normal;font-stretch:normal;font-size:9.8777771px;line-height:1.25;font-family:sans-serif;-inkscape-font-specification:sans-serif;letter-spacing:0px;word-spacing:0px;fill:#000000;fill-opacity:1;stroke:none;stroke-width:0.26458332"
         xml:space="preserve"><tspan
           id="tspan1741"
           style="font-style:normal;font-variant:normal;font-weight:normal;font-stretch:normal;font-size:12.69999981px;font-family:DINMittbek;-inkscape-font-specification:'DINMittbek, Normal';font-variant-ligatures:normal;font-variant-caps:normal;font-variant-numeric:normal;font-feature-settings:normal;text-align:start;writing-mode:lr-tb;text-anchor:start;stroke-width:0.26458332"
           y="214.65363"
           x="30.258659"
           sodipodi:role="line">Lebenswichtige Einrichtung</tspan></text>
      <text
         id="text1747"
         y="231.53337"
         x="105.05064"
         style="font-style:italic;font-variant:normal;font-weight:normal;font-stretch:normal;font-size:9.8777771px;line-height:1.25;font-family:'Latin Modern Roman';-inkscape-font-specification:'Latin Modern Roman, Italic';letter-spacing:0px;word-spacing:0px;fill:#000000;fill-opacity:1;stroke:none;stroke-width:0.26458332"
         xml:space="preserve"><tspan
           style="font-style:normal;font-variant:normal;font-weight:normal;font-stretch:normal;font-size:9.87777805px;font-family:DINMittbek;-inkscape-font-specification:'DINMittbek, Normal';font-variant-ligatures:normal;font-variant-caps:normal;font-variant-numeric:normal;font-feature-settings:normal;text-align:center;writing-mode:lr-tb;text-anchor:middle;stroke-width:0.26458332"
           y="231.53337"
           x="105.05064"
           id="tspan1745"
           sodipodi:role="line">Blockieren, verstellen, etc.</tspan><tspan
           id="tspan1749"
           style="font-style:normal;font-variant:normal;font-weight:normal;font-stretch:normal;font-size:9.87777805px;font-family:DINMittbek;-inkscape-font-specification:'DINMittbek, Normal';font-variant-ligatures:normal;font-variant-caps:normal;font-variant-numeric:normal;font-feature-settings:normal;text-align:center;writing-mode:lr-tb;text-anchor:middle;stroke-width:0.26458332"
           y="244.17253"
           x="105.05064"
           sodipodi:role="line">strengstens verboten!</tspan></text>
    </g>
  </g>
</svg>
