<?xml version="1.0" encoding="UTF-8" standalone="no"?>
<!DOCTYPE svg PUBLIC "-//W3C//DTD SVG 1.1//EN" "http://www.w3.org/Graphics/SVG/1.1/DTD/svg11.dtd">
<svg width="100%" height="100%" viewBox="0 0 210 297" version="1.1" xmlns="http://www.w3.org/2000/svg" xmlns:xlink="http://www.w3.org/1999/xlink" xml:space="preserve" style="fill-rule:evenodd;clip-rule:evenodd;stroke-linejoin:round;stroke-miterlimit:1.41421;">
    <g id="Layer-1">
        <g id="g1731" transform="matrix(1,0,0,1,9.39742,0)">
            <rect id="rect1654" x="15.875" y="13.518" width="159.455" height="163.563" style="fill:rgb(0,154,59);"/>
            <g id="g1517" transform="matrix(0.236447,0,0,0.236447,24.8739,46.0552)">
                <path id="path1438" d="M179.361,99.903C167.951,88.493 162.907,82.898 162.909,69.814C162.907,56.735 167.953,51.14 179.366,39.725C188.455,30.638 188.455,15.905 179.368,6.816C170.281,-2.274 155.543,-2.271 146.454,6.814C133.755,19.512 116.359,36.904 116.364,69.813C116.359,102.727 133.752,120.118 146.453,132.814C157.864,144.227 162.91,149.825 162.91,162.906C162.91,175.76 173.33,186.179 186.183,186.179C199.036,186.179 209.456,175.761 209.456,162.906C209.454,129.993 192.062,112.601 179.361,99.903Z" style="fill:white;fill-rule:nonzero;"/>
                <path id="path1444" d="M287.967,99.903C276.557,88.493 271.513,82.898 271.515,69.814C271.513,56.735 276.559,51.14 287.972,39.725C297.061,30.638 297.061,15.905 287.974,6.816C278.887,-2.274 264.149,-2.271 255.06,6.814C242.361,19.512 224.965,36.906 224.97,69.813C224.965,102.727 242.358,120.118 255.059,132.814C266.47,144.227 271.516,149.825 271.516,162.906C271.516,175.76 281.936,186.179 294.789,186.179C307.642,186.179 318.062,175.761 318.062,162.906C318.061,129.993 300.668,112.601 287.967,99.903L287.967,99.903Z" style="fill:white;fill-rule:nonzero;"/>
                <path id="path1450" d="M381.401,403.393L403.394,403.393C403.416,403.393 403.433,403.39 403.455,403.39C450.478,403.359 488.728,365.092 488.728,318.059C488.728,271.006 450.447,232.725 403.394,232.725L372.364,232.725L62.06,232.725C49.207,232.725 38.787,243.147 38.787,255.998L38.787,333.574C38.787,385.767 61.315,432.795 97.157,465.453L46.545,465.453C33.692,465.453 23.272,475.871 23.272,488.726C23.272,501.577 33.692,511.999 46.545,511.999L387.879,511.999C400.732,511.999 411.152,501.577 411.152,488.726C411.152,475.872 400.732,465.453 387.879,465.453L337.267,465.453C356.104,448.289 371.257,427.158 381.401,403.393ZM395.637,333.575L395.637,279.272L403.395,279.272C424.783,279.272 442.183,296.672 442.183,318.06C442.183,339.448 424.783,356.848 403.395,356.848C403.384,356.848 403.375,356.848 403.364,356.848L394.119,356.848C395.115,349.229 395.637,341.461 395.637,333.575L395.637,333.575Z" style="fill:white;fill-rule:nonzero;"/>
            </g>
            <path id="path876" d="M77.195,153.406C79.325,152.29 82.166,150.363 85.006,147.827C88.049,145.291 90.383,142.856 92.513,140.218C95.252,136.972 97.179,133.624 97.687,131.088C97.89,129.769 97.89,127.436 97.687,126.016C97.179,123.277 96.064,120.741 94.339,118.712C92.31,116.176 89.47,114.654 86.731,114.553C84.803,114.451 82.977,114.857 81.151,115.77C79.629,116.48 78.513,117.19 77.296,118.407C76.89,118.915 76.485,119.219 76.485,119.219C76.485,119.219 76.079,118.915 75.673,118.509C73.746,116.581 71.514,115.263 69.079,114.755C65.833,114.045 62.992,114.755 60.355,116.784C57.616,119.118 55.587,122.871 55.079,126.726C54.877,128.349 54.978,130.277 55.384,131.595C56.297,135.146 59.239,139.61 64.007,144.276C67.862,148.131 72.427,151.682 75.673,153.406C76.079,153.508 76.383,153.711 76.485,153.711C76.485,153.711 76.789,153.609 77.195,153.406L77.195,153.406Z" style="fill:rgb(0,154,59);"/>
            <path id="path876-3" d="M152.806,55.243L152.806,47.835L160.479,47.57L168.416,47.57L168.416,41.22L168.416,34.87L160.743,34.87C154.922,34.87 153.07,34.606 152.806,34.606L152.806,26.933L152.806,19.26L145.662,19.26L138.783,19.26L138.783,26.668C138.783,33.283 138.783,34.341 138.518,34.606C138.518,34.87 137.46,34.87 130.581,34.87L122.908,34.87L122.908,47.57L130.845,47.57C137.724,47.57 138.518,47.57 138.783,47.835L138.783,62.652L152.541,62.652L152.806,55.243Z" style="fill:white;"/>
        </g>
        <g id="g1757" transform="matrix(1,0,0,1,0,12.8512)">
            <path id="rect1701" d="M193.692,260.282L16.308,260.282L16.308,188.001L193.692,188.001L193.692,260.282ZM24.308,196.001L24.308,252.282L185.692,252.282L185.692,196.001L24.308,196.001Z" style="fill:rgb(255,0,0);"/>
            <g transform="matrix(1,0,0,1,34.6184,213.52)">
                <g id="text1739">
                    <text x="0px" y="0px" style="font-family:'LucidaGrande-Bold', 'Lucida Grande', sans-serif;font-weight:600;font-size:9.878px;">Lebenswichtige Einrichtung</text>
                </g>
            </g>
            <g id="text1747" transform="matrix(1,0,0,1,-0.05064,0)">
                <g transform="matrix(1,0,0,1,105.051,231.533)">
                    <text x="-62.99px" y="0px" style="font-family:'LucidaGrande', 'Lucida Grande', sans-serif;font-weight:500;font-size:9.878px;">Blockieren, verstellen, o.ä.</text>
                </g>
                <g transform="matrix(1,0,0,1,105.051,244.337)">
                    <text x="-52.242px" y="0px" style="font-family:'LucidaGrande', 'Lucida Grande', sans-serif;font-weight:500;font-size:9.878px;">strengstens verboten!</text>
                </g>
            </g>
        </g>
    </g>
</svg>
