<?xml version="1.0" encoding="UTF-8" standalone="no"?>
<svg
   xmlns:dc="http://purl.org/dc/elements/1.1/"
   xmlns:cc="http://creativecommons.org/ns#"
   xmlns:rdf="http://www.w3.org/1999/02/22-rdf-syntax-ns#"
   xmlns:svg="http://www.w3.org/2000/svg"
   xmlns="http://www.w3.org/2000/svg"
   id="svg893"
   version="1.1"
   viewBox="0 0 210 297"
   height="297mm"
   width="210mm">
  <defs
     id="defs887" />
  <metadata
     id="metadata890">
    <rdf:RDF>
      <cc:Work
         rdf:about="">
        <dc:format>image/svg+xml</dc:format>
        <dc:type
           rdf:resource="http://purl.org/dc/dcmitype/StillImage" />
        <dc:title></dc:title>
      </cc:Work>
    </rdf:RDF>
  </metadata>
  <g
     id="layer1">
    <g
       transform="translate(9.3974152)"
       id="g1731">
      <rect
         style="fill:#009a3b;fill-opacity:1;stroke:none;stroke-width:1.32655239;stroke-linecap:round;stroke-linejoin:bevel;stroke-miterlimit:4;stroke-dasharray:none;stroke-opacity:1"
         id="rect1654"
         width="159.45517"
         height="163.56265"
         x="15.875"
         y="13.517858" />
      <g
         id="g1517"
         transform="matrix(0.23644704,0,0,0.23644704,24.87387,46.055201)"
         style="fill:#ffffff;stroke:none">
        <g
           id="g1442"
           style="fill:#ffffff;stroke:none">
          <g
             id="g1440"
             style="fill:#ffffff;stroke:none">
            <path
               id="path1438"
               d="m 179.361,99.903 c -11.41,-11.41 -16.454,-17.005 -16.452,-30.089 -0.002,-13.079 5.044,-18.674 16.457,-30.089 9.089,-9.087 9.089,-23.82 0.002,-32.909 -9.087,-9.09 -23.825,-9.087 -32.914,-0.002 -12.699,12.698 -30.095,30.09 -30.09,62.999 -0.005,32.914 17.388,50.305 30.089,63.001 11.411,11.413 16.457,17.011 16.457,30.092 0,12.854 10.42,23.273 23.273,23.273 12.853,0 23.273,-10.418 23.273,-23.273 -0.002,-32.913 -17.394,-50.305 -30.095,-63.003 z"
               style="fill:#ffffff;stroke:none" />
          </g>
        </g>
        <g
           id="g1448"
           style="fill:#ffffff;stroke:none">
          <g
             id="g1446"
             style="fill:#ffffff;stroke:none">
            <path
               id="path1444"
               d="m 287.967,99.903 c -11.41,-11.41 -16.454,-17.005 -16.452,-30.089 -0.002,-13.079 5.044,-18.674 16.457,-30.089 9.089,-9.087 9.089,-23.82 0.002,-32.909 -9.087,-9.09 -23.825,-9.087 -32.914,-0.002 -12.699,12.698 -30.095,30.092 -30.09,62.999 -0.005,32.914 17.388,50.305 30.089,63.001 11.411,11.413 16.457,17.011 16.457,30.092 0,12.854 10.42,23.273 23.273,23.273 12.853,0 23.273,-10.418 23.273,-23.273 -0.001,-32.913 -17.394,-50.305 -30.095,-63.003 z"
               style="fill:#ffffff;stroke:none" />
          </g>
        </g>
        <g
           id="g1454"
           style="fill:#ffffff;stroke:none">
          <g
             id="g1452"
             style="fill:#ffffff;stroke:none">
            <path
               id="path1450"
               d="m 381.401,403.393 h 21.993 c 0.022,0 0.039,-0.003 0.061,-0.003 47.023,-0.031 85.273,-38.298 85.273,-85.331 0,-47.053 -38.281,-85.334 -85.334,-85.334 H 372.364 62.06 c -12.853,0 -23.273,10.422 -23.273,23.273 v 77.576 c 0,52.193 22.528,99.221 58.37,131.879 H 46.545 c -12.853,0 -23.273,10.418 -23.273,23.273 0,12.851 10.42,23.273 23.273,23.273 h 170.667 170.667 c 12.853,0 23.273,-10.422 23.273,-23.273 0,-12.854 -10.42,-23.273 -23.273,-23.273 h -50.612 c 18.837,-17.164 33.99,-38.295 44.134,-62.06 z m 14.236,-69.818 v -54.303 h 7.758 c 21.388,0 38.788,17.4 38.788,38.788 0,21.388 -17.4,38.788 -38.788,38.788 -0.011,0 -0.02,0 -0.031,0 h -9.245 c 0.996,-7.619 1.518,-15.387 1.518,-23.273 z"
               style="fill:#ffffff;stroke:none" />
          </g>
        </g>
        <g
           id="g1456"
           style="fill:#ffffff;stroke:none" />
        <g
           id="g1458"
           style="fill:#ffffff;stroke:none" />
        <g
           id="g1460"
           style="fill:#ffffff;stroke:none" />
        <g
           id="g1462"
           style="fill:#ffffff;stroke:none" />
        <g
           id="g1464"
           style="fill:#ffffff;stroke:none" />
        <g
           id="g1466"
           style="fill:#ffffff;stroke:none" />
        <g
           id="g1468"
           style="fill:#ffffff;stroke:none" />
        <g
           id="g1470"
           style="fill:#ffffff;stroke:none" />
        <g
           id="g1472"
           style="fill:#ffffff;stroke:none" />
        <g
           id="g1474"
           style="fill:#ffffff;stroke:none" />
        <g
           id="g1476"
           style="fill:#ffffff;stroke:none" />
        <g
           id="g1478"
           style="fill:#ffffff;stroke:none" />
        <g
           id="g1480"
           style="fill:#ffffff;stroke:none" />
        <g
           id="g1482"
           style="fill:#ffffff;stroke:none" />
        <g
           id="g1484"
           style="fill:#ffffff;stroke:none" />
      </g>
      <path
         class="fil1"
         d="m 77.194677,153.40631 c 2.13037,-1.1159 4.97085,-3.04337 7.81133,-5.57952 3.04338,-2.53615 5.37663,-4.97085 7.506988,-7.60844 2.739022,-3.24627 4.666483,-6.59398 5.17371,-9.13013 0.202887,-1.31879 0.202887,-3.65205 0,-5.07229 -0.507227,-2.73904 -1.623131,-5.27519 -3.347702,-7.3041 -2.028908,-2.53615 -4.869376,-4.05784 -7.608416,-4.15928 -1.92747,-0.10145 -3.75349,0.30433 -5.57952,1.21735 -1.52169,0.71012 -2.63759,1.42024 -3.85494,2.63759 -0.40578,0.50723 -0.81157,0.81156 -0.81157,0.81156 0,0 -0.40578,-0.30433 -0.81156,-0.71012 -1.92748,-1.92747 -4.15929,-3.24626 -6.59399,-3.75349 -3.246264,-0.71012 -6.086748,0 -8.724341,2.02891 -2.739038,2.33326 -4.767955,6.08676 -5.275184,9.9417 -0.202892,1.62313 -0.101446,3.55061 0.304337,4.8694 0.913013,3.55061 3.854943,8.01422 8.622898,12.68073 3.85494,3.85494 8.42001,7.40555 11.66628,9.13013 0.40578,0.10145 0.71012,0.30434 0.81156,0.30434 0,0 0.30434,-0.10145 0.71012,-0.30434 z"
         id="path876"
         style="fill:#009a3b;fill-rule:evenodd;stroke-width:0.10144585;image-rendering:optimizeQuality;shape-rendering:geometricPrecision;text-rendering:geometricPrecision" />
      <path
         class="fil1"
         d="m 152.80564,55.243292 v -7.408333 l 7.67292,-0.264583 h 7.9375 v -6.35 -6.35 h -7.67292 c -5.82083,0 -7.67292,-0.264584 -7.9375,-0.264584 v -7.672916 -7.672917 h -7.14375 -6.87917 v 7.408333 c 0,6.614584 0,7.672917 -0.26458,7.9375 0,0.264584 -1.05833,0.264584 -7.9375,0.264584 h -7.67292 v 6.35 6.35 h 7.9375 c 6.87917,0 7.67292,0 7.9375,0.264583 v 7.672917 7.14375 h 6.87917 6.87917 z"
         id="path876-3"
         style="fill:#ffffff;fill-opacity:1;fill-rule:evenodd;stroke:none;stroke-width:0.26458332;image-rendering:optimizeQuality;shape-rendering:geometricPrecision;text-rendering:geometricPrecision" />
    </g>
    <g
       transform="translate(0,12.85119)"
       id="g1757">
      <rect
         style="fill:none;fill-opacity:1;stroke:#ff0000;stroke-width:8;stroke-linecap:square;stroke-linejoin:miter;stroke-miterlimit:4;stroke-dasharray:none;stroke-opacity:1"
         id="rect1701"
         width="169.38486"
         height="64.280777"
         x="20.307571"
         y="192.00125" />
      <g
         id="text1739"
         style="font-style:normal;font-variant:normal;font-weight:normal;font-stretch:normal;font-size:9.8777771px;line-height:1.25;font-family:sans-serif;-inkscape-font-specification:sans-serif;letter-spacing:0px;word-spacing:0px;fill:#000000;fill-opacity:1;stroke:none;stroke-width:0.26458332"
         aria-label="Life-saving facility">
        <path
           id="path1022"
           style="font-style:normal;font-variant:normal;font-weight:bold;font-stretch:normal;font-family:sans-serif;-inkscape-font-specification:'sans-serif Bold';stroke-width:0.26458332"
           d="m 54.072536,206.31876 h 1.856906 v 5.79741 h 3.260438 v 1.40353 h -5.117344 z" />
        <path
           id="path1024"
           style="font-style:normal;font-variant:normal;font-weight:bold;font-stretch:normal;font-family:sans-serif;-inkscape-font-specification:'sans-serif Bold';stroke-width:0.26458332"
           d="m 60.284731,208.11779 h 1.726682 v 5.40191 h -1.726682 z m 0,-2.10289 h 1.726682 v 1.40836 h -1.726682 z" />
        <path
           id="path1026"
           style="font-style:normal;font-variant:normal;font-weight:bold;font-stretch:normal;font-family:sans-serif;-inkscape-font-specification:'sans-serif Bold';stroke-width:0.26458332"
           d="m 67.234867,206.0149 v 1.13344 h -0.954981 q -0.366558,0 -0.511252,0.13505 -0.144694,0.13022 -0.144694,0.4582 v 0.3762 h 1.475879 v 1.23472 H 65.62394 v 4.16719 h -1.726682 v -4.16719 h -0.858517 v -1.23472 h 0.858517 v -0.3762 q 0,-0.88264 0.49196,-1.30225 0.49196,-0.42444 1.52411,-0.42444 z" />
        <path
           id="path1028"
           style="font-style:normal;font-variant:normal;font-weight:bold;font-stretch:normal;font-family:sans-serif;-inkscape-font-specification:'sans-serif Bold';stroke-width:0.26458332"
           d="m 73.374716,210.80428 v 0.49195 h -4.036963 q 0.0627,0.60772 0.438906,0.91158 0.376204,0.30385 1.051443,0.30385 0.545014,0 1.114143,-0.15916 0.573953,-0.16399 1.176845,-0.49196 v 1.33119 q -0.612538,0.23151 -1.225076,0.34726 -0.612538,0.12058 -1.225076,0.12058 -1.466232,0 -2.281342,-0.74276 -0.810286,-0.74759 -0.810286,-2.09324 0,-1.32154 0.795817,-2.07877 0.80064,-0.75723 2.199349,-0.75723 1.273307,0 2.035362,0.76687 0.766878,0.76688 0.766878,2.04984 z m -1.774913,-0.57396 q 0,-0.49196 -0.289388,-0.79099 -0.284565,-0.30386 -0.747586,-0.30386 -0.501606,0 -0.815109,0.28457 -0.313504,0.27974 -0.390674,0.81028 z" />
        <path
           id="path1030"
           style="font-style:normal;font-variant:normal;font-weight:bold;font-stretch:normal;font-family:sans-serif;-inkscape-font-specification:'sans-serif Bold';stroke-width:0.26458332"
           d="m 74.382749,209.9747 h 3.028928 v 1.40353 h -3.028928 z" />
        <path
           id="path1032"
           style="font-style:normal;font-variant:normal;font-weight:bold;font-stretch:normal;font-family:sans-serif;-inkscape-font-specification:'sans-serif Bold';stroke-width:0.26458332"
           d="m 83.006512,208.2866 v 1.31189 q -0.55466,-0.23151 -1.070735,-0.34726 -0.516076,-0.11576 -0.974273,-0.11576 -0.49196,0 -0.733116,0.1254 -0.236334,0.12058 -0.236334,0.37621 0,0.20739 0.178456,0.31832 0.183279,0.11094 0.651123,0.16399 l 0.303857,0.0434 q 1.326362,0.16881 1.78456,0.55466 0.458197,0.38585 0.458197,1.21061 0,0.86334 -0.636653,1.29742 -0.636654,0.43408 -1.900315,0.43408 -0.535368,0 -1.10932,-0.0868 -0.56913,-0.082 -1.172022,-0.2508 v -1.31189 q 0.516075,0.2508 1.056266,0.3762 0.545014,0.1254 1.104498,0.1254 0.506429,0 0.762055,-0.13987 0.255626,-0.13987 0.255626,-0.41479 0,-0.23151 -0.178456,-0.34244 -0.173633,-0.11575 -0.699354,-0.17845 l -0.303858,-0.0386 q -1.152729,-0.14469 -1.615749,-0.53537 -0.463021,-0.39067 -0.463021,-1.18649 0,-0.85852 0.588422,-1.27331 0.588422,-0.41478 1.803852,-0.41478 0.47749,0 1.003212,0.0723 0.525721,0.0724 1.143082,0.22669 z" />
        <path
           id="path1034"
           style="font-style:normal;font-variant:normal;font-weight:bold;font-stretch:normal;font-family:sans-serif;-inkscape-font-specification:'sans-serif Bold';stroke-width:0.26458332"
           d="m 87.091708,211.08884 q -0.540191,0 -0.81511,0.18328 -0.270095,0.18328 -0.270095,0.54019 0,0.32797 0.217041,0.51608 0.221864,0.18327 0.612537,0.18327 0.487137,0 0.819933,-0.34726 0.332796,-0.35209 0.332796,-0.87781 v -0.19775 z m 2.638253,-0.65112 v 3.08198 H 87.98881 v -0.80064 q -0.347265,0.49196 -0.781347,0.71865 -0.434082,0.22186 -1.056266,0.22186 -0.839226,0 -1.364947,-0.48714 -0.520899,-0.49196 -0.520899,-1.2733 0,-0.95016 0.651123,-1.39389 0.655947,-0.44373 2.054655,-0.44373 h 1.017681 v -0.13505 q 0,-0.40996 -0.32315,-0.59806 -0.32315,-0.19293 -1.008034,-0.19293 -0.554661,0 -1.032151,0.11093 -0.47749,0.11094 -0.887457,0.3328 v -1.31672 q 0.554661,-0.13504 1.114144,-0.20257 0.559484,-0.0723 1.118967,-0.0723 1.46141,0 2.107709,0.57877 0.651123,0.57395 0.651123,1.87138 z" />
        <path
           id="path1036"
           style="font-style:normal;font-variant:normal;font-weight:bold;font-stretch:normal;font-family:sans-serif;-inkscape-font-specification:'sans-serif Bold';stroke-width:0.26458332"
           d="m 90.665649,208.11779 h 1.726682 l 1.345654,3.7331 1.340832,-3.7331 h 1.731504 l -2.127001,5.40191 h -1.895492 z" />
        <path
           id="path1038"
           style="font-style:normal;font-variant:normal;font-weight:bold;font-stretch:normal;font-family:sans-serif;-inkscape-font-specification:'sans-serif Bold';stroke-width:0.26458332"
           d="M 97.789418,208.11779 H 99.5161 v 5.40191 h -1.726682 z m 0,-2.10289 H 99.5161 v 1.40836 h -1.726682 z" />
        <path
           id="path1040"
           style="font-style:normal;font-variant:normal;font-weight:bold;font-stretch:normal;font-family:sans-serif;-inkscape-font-specification:'sans-serif Bold';stroke-width:0.26458332"
           d="m 106.61575,210.23032 v 3.28938 h -1.73633 v -0.53537 -1.98231 q 0,-0.69935 -0.0338,-0.96462 -0.0289,-0.26528 -0.10611,-0.39068 -0.10128,-0.16881 -0.27492,-0.26045 -0.17363,-0.0965 -0.39549,-0.0965 -0.54019,0 -0.84887,0.41961 -0.30869,0.41479 -0.30869,1.15273 v 2.65755 h -1.72668 v -5.40191 h 1.72668 v 0.79099 q 0.39068,-0.47266 0.82958,-0.69453 0.43891,-0.22668 0.96945,-0.22668 0.93569,0 1.418,0.57395 0.48714,0.57395 0.48714,1.6688 z" />
        <path
           id="path1042"
           style="font-style:normal;font-variant:normal;font-weight:bold;font-stretch:normal;font-family:sans-serif;-inkscape-font-specification:'sans-serif Bold';stroke-width:0.26458332"
           d="m 111.90191,212.6033 q -0.35692,0.47267 -0.78618,0.69453 -0.42925,0.22187 -0.99356,0.22187 -0.98874,0 -1.63504,-0.77653 -0.6463,-0.78134 -0.6463,-1.98713 0,-1.2106 0.6463,-1.9823 0.6463,-0.77653 1.63504,-0.77653 0.56431,0 0.99356,0.22187 0.42926,0.22186 0.78618,0.69935 v -0.80064 h 1.73632 v 4.8569 q 0,1.30224 -0.82475,1.98713 -0.81994,0.6897 -2.38263,0.6897 -0.50643,0 -0.9791,-0.0772 -0.47266,-0.0772 -0.95015,-0.23633 v -1.34565 q 0.45337,0.26045 0.88745,0.38585 0.43408,0.13022 0.87299,0.13022 0.84887,0 1.24437,-0.37138 0.3955,-0.37138 0.3955,-1.16237 z m -1.13826,-3.36172 q -0.53537,0 -0.83441,0.3955 -0.29903,0.39549 -0.29903,1.11896 0,0.74277 0.28939,1.12862 0.28939,0.38102 0.84405,0.38102 0.54019,0 0.83922,-0.39549 0.29904,-0.3955 0.29904,-1.11415 0,-0.72347 -0.29904,-1.11896 -0.29903,-0.3955 -0.83922,-0.3955 z" />
        <path
           id="path1044"
           style="font-style:normal;font-variant:normal;font-weight:bold;font-stretch:normal;font-family:sans-serif;-inkscape-font-specification:'sans-serif Bold';stroke-width:0.26458332"
           d="m 122.29576,206.0149 v 1.13344 h -0.95498 q -0.36656,0 -0.51125,0.13505 -0.1447,0.13022 -0.1447,0.4582 v 0.3762 h 1.47588 v 1.23472 h -1.47588 v 4.16719 h -1.72668 v -4.16719 h -0.85852 v -1.23472 h 0.85852 v -0.3762 q 0,-0.88264 0.49196,-1.30225 0.49196,-0.42444 1.52411,-0.42444 z" />
        <path
           id="path1046"
           style="font-style:normal;font-variant:normal;font-weight:bold;font-stretch:normal;font-family:sans-serif;-inkscape-font-specification:'sans-serif Bold';stroke-width:0.26458332"
           d="m 125.46455,211.08884 q -0.54019,0 -0.81511,0.18328 -0.27009,0.18328 -0.27009,0.54019 0,0.32797 0.21704,0.51608 0.22186,0.18327 0.61254,0.18327 0.48713,0 0.81993,-0.34726 0.3328,-0.35209 0.3328,-0.87781 v -0.19775 z m 2.63826,-0.65112 v 3.08198 h -1.74115 v -0.80064 q -0.34727,0.49196 -0.78135,0.71865 -0.43408,0.22186 -1.05627,0.22186 -0.83922,0 -1.36495,-0.48714 -0.52089,-0.49196 -0.52089,-1.2733 0,-0.95016 0.65112,-1.39389 0.65595,-0.44373 2.05465,-0.44373 h 1.01769 v -0.13505 q 0,-0.40996 -0.32315,-0.59806 -0.32315,-0.19293 -1.00804,-0.19293 -0.55466,0 -1.03215,0.11093 -0.47749,0.11094 -0.88746,0.3328 v -1.31672 q 0.55466,-0.13504 1.11415,-0.20257 0.55948,-0.0723 1.11896,-0.0723 1.46141,0 2.10771,0.57877 0.65113,0.57395 0.65113,1.87138 z" />
        <path
           id="path1048"
           style="font-style:normal;font-variant:normal;font-weight:bold;font-stretch:normal;font-family:sans-serif;-inkscape-font-specification:'sans-serif Bold';stroke-width:0.26458332"
           d="m 134.08349,208.2866 v 1.40835 q -0.35209,-0.24115 -0.709,-0.35691 -0.35209,-0.11575 -0.73312,-0.11575 -0.72347,0 -1.12861,0.42443 -0.40032,0.41962 -0.40032,1.17685 0,0.75723 0.40032,1.18167 0.40514,0.41961 1.12861,0.41961 0.40515,0 0.76688,-0.12058 0.36656,-0.12058 0.67524,-0.35691 v 1.41318 q -0.40514,0.14951 -0.82475,0.22186 -0.41479,0.0772 -0.83441,0.0772 -1.46141,0 -2.28616,-0.74759 -0.82476,-0.7524 -0.82476,-2.08841 0,-1.33601 0.82476,-2.0836 0.82475,-0.7524 2.28616,-0.7524 0.42444,0 0.83441,0.0772 0.41479,0.0723 0.82475,0.22186 z" />
        <path
           id="path1050"
           style="font-style:normal;font-variant:normal;font-weight:bold;font-stretch:normal;font-family:sans-serif;-inkscape-font-specification:'sans-serif Bold';stroke-width:0.26458332"
           d="m 135.58349,208.11779 h 1.72668 v 5.40191 h -1.72668 z m 0,-2.10289 h 1.72668 v 1.40836 h -1.72668 z" />
        <path
           id="path1052"
           style="font-style:normal;font-variant:normal;font-weight:bold;font-stretch:normal;font-family:sans-serif;-inkscape-font-specification:'sans-serif Bold';stroke-width:0.26458332"
           d="m 138.97898,206.0149 h 1.72668 v 7.5048 h -1.72668 z" />
        <path
           id="path1054"
           style="font-style:normal;font-variant:normal;font-weight:bold;font-stretch:normal;font-family:sans-serif;-inkscape-font-specification:'sans-serif Bold';stroke-width:0.26458332"
           d="m 142.37446,208.11779 h 1.72668 v 5.40191 h -1.72668 z m 0,-2.10289 h 1.72668 v 1.40836 h -1.72668 z" />
        <path
           id="path1056"
           style="font-style:normal;font-variant:normal;font-weight:bold;font-stretch:normal;font-family:sans-serif;-inkscape-font-specification:'sans-serif Bold';stroke-width:0.26458332"
           d="m 147.65579,206.58403 v 1.53376 h 1.77974 v 1.23472 h -1.77974 v 2.29099 q 0,0.3762 0.14952,0.51125 0.14952,0.13023 0.59325,0.13023 h 0.88745 v 1.23472 h -1.4807 q -1.0225,0 -1.45176,-0.42444 -0.42444,-0.42926 -0.42444,-1.45176 v -2.29099 h -0.85852 v -1.23472 h 0.85852 v -1.53376 z" />
        <path
           id="path1058"
           style="font-style:normal;font-variant:normal;font-weight:bold;font-stretch:normal;font-family:sans-serif;-inkscape-font-specification:'sans-serif Bold';stroke-width:0.26458332"
           d="m 149.78762,208.11779 h 1.72668 l 1.45176,3.66558 1.23472,-3.66558 h 1.72669 l -2.2717,5.91316 q -0.34244,0.90193 -0.80064,1.25884 -0.45338,0.36173 -1.20096,0.36173 h -0.99839 v -1.13343 h 0.54019 q 0.43891,0 0.63665,-0.13987 0.20258,-0.13987 0.31351,-0.50161 l 0.0482,-0.14952 z" />
      </g>
      <g
         id="text1747"
         style="font-style:italic;font-variant:normal;font-weight:normal;font-stretch:normal;font-size:9.8777771px;line-height:1.25;font-family:'Latin Modern Roman';-inkscape-font-specification:'Latin Modern Roman, Italic';letter-spacing:0px;word-spacing:0px;fill:#000000;fill-opacity:1;stroke:none;stroke-width:0.26458332"
         aria-label="Blocking, obstructing, etc.
strictly forbidden!">
        <path
           id="path935"
           style="font-style:normal;font-variant:normal;font-weight:normal;font-stretch:normal;font-family:sans-serif;-inkscape-font-specification:sans-serif;text-align:center;text-anchor:middle;stroke-width:0.26458332"
           d="m 42.296848,228.09448 v 2.63825 h 1.562695 q 0.786171,0 1.162376,-0.32315 0.381027,-0.32797 0.381027,-0.99839 0,-0.67524 -0.381027,-0.99356 -0.376205,-0.32315 -1.162376,-0.32315 z m 0,-2.96141 v 2.17041 h 1.442117 q 0.713824,0 1.061089,-0.26527 0.352089,-0.27009 0.352089,-0.81993 0,-0.54502 -0.352089,-0.81511 -0.347265,-0.2701 -1.061089,-0.2701 z m -0.974273,-0.80064 h 2.488737 q 1.114144,0 1.717036,0.46302 0.602891,0.46302 0.602891,1.31672 0,0.66077 -0.30868,1.05144 -0.308681,0.39068 -0.906749,0.48714 0.718647,0.15434 1.114143,0.6463 0.400321,0.48713 0.400321,1.22025 0,0.96463 -0.655947,1.49035 -0.655946,0.52572 -1.866552,0.52572 h -2.5852 z" />
        <path
           id="path937"
           style="font-style:normal;font-variant:normal;font-weight:normal;font-stretch:normal;font-family:sans-serif;-inkscape-font-specification:sans-serif;text-align:center;text-anchor:middle;stroke-width:0.26458332"
           d="m 48.05567,224.02858 h 0.887456 v 7.50479 H 48.05567 Z" />
        <path
           id="path939"
           style="font-style:normal;font-variant:normal;font-weight:normal;font-stretch:normal;font-family:sans-serif;-inkscape-font-specification:sans-serif;text-align:center;text-anchor:middle;stroke-width:0.26458332"
           d="m 52.888449,226.75365 q -0.713824,0 -1.128613,0.55948 -0.414789,0.55466 -0.414789,1.52411 0,0.96945 0.409966,1.52893 0.414789,0.55466 1.133436,0.55466 0.709001,0 1.12379,-0.55948 0.41479,-0.55948 0.41479,-1.52411 0,-0.9598 -0.41479,-1.51929 -0.414789,-0.5643 -1.12379,-0.5643 z m 0,-0.75241 q 1.157552,0 1.818321,0.75241 0.66077,0.7524 0.66077,2.08359 0,1.32636 -0.66077,2.08359 -0.660769,0.75241 -1.818321,0.75241 -1.162375,0 -1.823144,-0.75241 -0.655946,-0.75723 -0.655946,-2.08359 0,-1.33119 0.655946,-2.08359 0.660769,-0.75241 1.823144,-0.75241 z" />
        <path
           id="path941"
           style="font-style:normal;font-variant:normal;font-weight:normal;font-stretch:normal;font-family:sans-serif;-inkscape-font-specification:sans-serif;text-align:center;text-anchor:middle;stroke-width:0.26458332"
           d="m 60.721218,226.33886 v 0.82958 q -0.376205,-0.2074 -0.757232,-0.30869 -0.376205,-0.1061 -0.762055,-0.1061 -0.863341,0 -1.340832,0.54983 -0.47749,0.54502 -0.47749,1.53376 0,0.98874 0.47749,1.53858 0.477491,0.54501 1.340832,0.54501 0.38585,0 0.762055,-0.10128 0.381027,-0.10611 0.757232,-0.31351 v 0.81994 q -0.371382,0.17363 -0.771702,0.26045 -0.395497,0.0868 -0.844048,0.0868 -1.220253,0 -1.9389,-0.76688 -0.718647,-0.76687 -0.718647,-2.06912 0,-1.32154 0.72347,-2.07877 0.728294,-0.75723 1.991954,-0.75723 0.409967,0 0.800641,0.0868 0.390673,0.082 0.757232,0.25081 z" />
        <path
           id="path943"
           style="font-style:normal;font-variant:normal;font-weight:normal;font-stretch:normal;font-family:sans-serif;-inkscape-font-specification:sans-serif;text-align:center;text-anchor:middle;stroke-width:0.26458332"
           d="m 62.240505,224.02858 h 0.892279 v 4.43246 l 2.647901,-2.32958 h 1.133436 l -2.864941,2.52732 2.985519,2.87459 h -1.157552 l -2.744363,-2.63825 v 2.63825 h -0.892279 z" />
        <path
           id="path945"
           style="font-style:normal;font-variant:normal;font-weight:normal;font-stretch:normal;font-family:sans-serif;-inkscape-font-specification:sans-serif;text-align:center;text-anchor:middle;stroke-width:0.26458332"
           d="m 68.004148,226.13146 h 0.887456 v 5.40191 h -0.887456 z m 0,-2.10288 h 0.887456 v 1.12379 h -0.887456 z" />
        <path
           id="path947"
           style="font-style:normal;font-variant:normal;font-weight:normal;font-stretch:normal;font-family:sans-serif;-inkscape-font-specification:sans-serif;text-align:center;text-anchor:middle;stroke-width:0.26458332"
           d="m 75.234025,228.27293 v 3.26044 h -0.887456 v -3.2315 q 0,-0.76688 -0.299035,-1.1479 -0.299034,-0.38103 -0.897102,-0.38103 -0.718647,0 -1.133437,0.4582 -0.414789,0.45819 -0.414789,1.24919 v 3.05304 h -0.89228 v -5.40191 h 0.89228 v 0.83923 q 0.318327,-0.48714 0.747585,-0.7283 0.434082,-0.24115 0.998389,-0.24115 0.930865,0 1.408355,0.57877 0.47749,0.57396 0.47749,1.69292 z" />
        <path
           id="path949"
           style="font-style:normal;font-variant:normal;font-weight:normal;font-stretch:normal;font-family:sans-serif;-inkscape-font-specification:sans-serif;text-align:center;text-anchor:middle;stroke-width:0.26458332"
           d="m 80.56841,228.76972 q 0,-0.96463 -0.40032,-1.49518 -0.395497,-0.53054 -1.114144,-0.53054 -0.713823,0 -1.114143,0.53054 -0.395497,0.53055 -0.395497,1.49518 0,0.9598 0.395497,1.49034 0.40032,0.53055 1.114143,0.53055 0.718647,0 1.114144,-0.53055 0.40032,-0.53054 0.40032,-1.49034 z m 0.887457,2.09324 q 0,1.37941 -0.612538,2.04983 -0.612538,0.67524 -1.876199,0.67524 -0.467844,0 -0.882633,-0.0724 -0.41479,-0.0675 -0.805464,-0.21222 v -0.86334 q 0.390674,0.21222 0.771702,0.3135 0.381027,0.10129 0.776524,0.10129 0.872987,0 1.307069,-0.4582 0.434082,-0.45337 0.434082,-1.37459 v -0.43891 q -0.274918,0.47749 -0.704177,0.71383 -0.429259,0.23633 -1.027328,0.23633 -0.993565,0 -1.60128,-0.75723 -0.607715,-0.75723 -0.607715,-2.00642 0,-1.25402 0.607715,-2.01125 0.607715,-0.75723 1.60128,-0.75723 0.598069,0 1.027328,0.23633 0.429259,0.23633 0.704177,0.71382 v -0.81993 h 0.887457 z" />
        <path
           id="path951"
           style="font-style:normal;font-variant:normal;font-weight:normal;font-stretch:normal;font-family:sans-serif;-inkscape-font-specification:sans-serif;text-align:center;text-anchor:middle;stroke-width:0.26458332"
           d="m 83.510521,230.3083 h 1.017681 v 0.82957 l -0.790994,1.54341 h -0.622184 l 0.395497,-1.54341 z" />
        <path
           id="path953"
           style="font-style:normal;font-variant:normal;font-weight:normal;font-stretch:normal;font-family:sans-serif;-inkscape-font-specification:sans-serif;text-align:center;text-anchor:middle;stroke-width:0.26458332"
           d="m 91.666441,226.75365 q -0.713823,0 -1.128613,0.55948 -0.414789,0.55466 -0.414789,1.52411 0,0.96945 0.409966,1.52893 0.41479,0.55466 1.133436,0.55466 0.709001,0 1.12379,-0.55948 0.41479,-0.55948 0.41479,-1.52411 0,-0.9598 -0.41479,-1.51929 -0.414789,-0.5643 -1.12379,-0.5643 z m 0,-0.75241 q 1.157552,0 1.818322,0.75241 0.660769,0.7524 0.660769,2.08359 0,1.32636 -0.660769,2.08359 -0.66077,0.75241 -1.818322,0.75241 -1.162375,0 -1.823144,-0.75241 -0.655946,-0.75723 -0.655946,-2.08359 0,-1.33119 0.655946,-2.08359 0.660769,-0.75241 1.823144,-0.75241 z" />
        <path
           id="path955"
           style="font-style:normal;font-variant:normal;font-weight:normal;font-stretch:normal;font-family:sans-serif;-inkscape-font-specification:sans-serif;text-align:center;text-anchor:middle;stroke-width:0.26458332"
           d="m 99.489564,228.83724 q 0,-0.9791 -0.405144,-1.53376 -0.40032,-0.55948 -1.104497,-0.55948 -0.704178,0 -1.109321,0.55948 -0.40032,0.55466 -0.40032,1.53376 0,0.9791 0.40032,1.53858 0.405143,0.55466 1.109321,0.55466 0.704177,0 1.104497,-0.55466 0.405144,-0.55948 0.405144,-1.53858 z m -3.019282,-1.88585 q 0.279742,-0.48231 0.704178,-0.71382 0.429258,-0.23633 1.022504,-0.23633 0.983919,0 1.596457,0.78134 0.617359,0.78135 0.617359,2.05466 0,1.27331 -0.617359,2.05465 -0.612538,0.78135 -1.596457,0.78135 -0.593246,0 -1.022504,-0.23151 -0.424436,-0.23633 -0.704178,-0.71865 v 0.81029 h -0.89228 v -7.50479 h 0.89228 z" />
        <path
           id="path957"
           style="font-style:normal;font-variant:normal;font-weight:normal;font-stretch:normal;font-family:sans-serif;-inkscape-font-specification:sans-serif;text-align:center;text-anchor:middle;stroke-width:0.26458332"
           d="m 105.32555,226.29063 v 0.83922 q -0.3762,-0.19293 -0.78134,-0.28939 -0.40515,-0.0965 -0.83923,-0.0965 -0.66077,0 -0.99356,0.20257 -0.32798,0.20257 -0.32798,0.60772 0,0.30868 0.23634,0.48713 0.23633,0.17364 0.95015,0.3328 l 0.30386,0.0675 q 0.94534,0.20257 1.34083,0.57396 0.40032,0.36655 0.40032,1.02732 0,0.75241 -0.59807,1.19132 -0.59324,0.4389 -1.63504,0.4389 -0.43408,0 -0.90675,-0.0868 -0.46784,-0.082 -0.98874,-0.25081 v -0.91639 q 0.49196,0.25562 0.96945,0.38585 0.47749,0.1254 0.94533,0.1254 0.62701,0 0.96463,-0.21222 0.33762,-0.21704 0.33762,-0.60771 0,-0.36174 -0.24598,-0.55466 -0.24116,-0.19293 -1.06591,-0.37138 l -0.30868,-0.0724 q -0.82476,-0.17363 -1.19132,-0.53055 -0.36655,-0.36173 -0.36655,-0.98874 0,-0.76205 0.54019,-1.17684 0.54019,-0.41479 1.53375,-0.41479 0.49196,0 0.92604,0.0723 0.43409,0.0724 0.80064,0.21705 z" />
        <path
           id="path959"
           style="font-style:normal;font-variant:normal;font-weight:normal;font-stretch:normal;font-family:sans-serif;-inkscape-font-specification:sans-serif;text-align:center;text-anchor:middle;stroke-width:0.26458332"
           d="m 107.91076,224.59771 v 1.53375 h 1.82796 v 0.68971 h -1.82796 v 2.93246 q 0,0.66077 0.17845,0.84888 0.18328,0.1881 0.73794,0.1881 h 0.91157 v 0.74276 h -0.91157 q -1.02733,0 -1.418,-0.38103 -0.39067,-0.38585 -0.39067,-1.39871 v -2.93246 h -0.65113 v -0.68971 h 0.65113 v -1.53375 z" />
        <path
           id="path961"
           style="font-style:normal;font-variant:normal;font-weight:normal;font-stretch:normal;font-family:sans-serif;-inkscape-font-specification:sans-serif;text-align:center;text-anchor:middle;stroke-width:0.26458332"
           d="m 114.04096,226.96104 q -0.14952,-0.0868 -0.32797,-0.1254 -0.17364,-0.0434 -0.38586,-0.0434 -0.7524,0 -1.15755,0.49196 -0.40032,0.48714 -0.40032,1.40353 v 2.84565 h -0.89228 v -5.40191 h 0.89228 v 0.83923 q 0.27974,-0.49196 0.7283,-0.7283 0.44855,-0.24115 1.09002,-0.24115 0.0916,0 0.20258,0.0145 0.11093,0.01 0.24598,0.0338 z" />
        <path
           id="path963"
           style="font-style:normal;font-variant:normal;font-weight:normal;font-stretch:normal;font-family:sans-serif;-inkscape-font-specification:sans-serif;text-align:center;text-anchor:middle;stroke-width:0.26458332"
           d="m 114.88983,229.40155 v -3.27009 h 0.88746 v 3.23632 q 0,0.76688 0.29903,1.15273 0.29904,0.38103 0.8971,0.38103 0.71865,0 1.13344,-0.4582 0.41961,-0.45819 0.41961,-1.24919 v -3.06269 h 0.88746 v 5.40191 h -0.88746 v -0.82958 q -0.32315,0.49196 -0.75241,0.73312 -0.42443,0.23633 -0.98874,0.23633 -0.93086,0 -1.41318,-0.57877 -0.48231,-0.57878 -0.48231,-1.69292 z m 2.23311,-3.40031 z" />
        <path
           id="path965"
           style="font-style:normal;font-variant:normal;font-weight:normal;font-stretch:normal;font-family:sans-serif;-inkscape-font-specification:sans-serif;text-align:center;text-anchor:middle;stroke-width:0.26458332"
           d="m 125.13899,226.33886 v 0.82958 q -0.37621,-0.2074 -0.75723,-0.30869 -0.37621,-0.1061 -0.76206,-0.1061 -0.86334,0 -1.34083,0.54983 -0.47749,0.54502 -0.47749,1.53376 0,0.98874 0.47749,1.53858 0.47749,0.54501 1.34083,0.54501 0.38585,0 0.76206,-0.10128 0.38102,-0.10611 0.75723,-0.31351 v 0.81994 q -0.37138,0.17363 -0.7717,0.26045 -0.3955,0.0868 -0.84405,0.0868 -1.22025,0 -1.9389,-0.76688 -0.71865,-0.76687 -0.71865,-2.06912 0,-1.32154 0.72347,-2.07877 0.72829,-0.75723 1.99196,-0.75723 0.40996,0 0.80064,0.0868 0.39067,0.082 0.75723,0.25081 z" />
        <path
           id="path967"
           style="font-style:normal;font-variant:normal;font-weight:normal;font-stretch:normal;font-family:sans-serif;-inkscape-font-specification:sans-serif;text-align:center;text-anchor:middle;stroke-width:0.26458332"
           d="m 127.56984,224.59771 v 1.53375 h 1.82797 v 0.68971 h -1.82797 v 2.93246 q 0,0.66077 0.17846,0.84888 0.18328,0.1881 0.73794,0.1881 h 0.91157 v 0.74276 h -0.91157 q -1.02733,0 -1.418,-0.38103 -0.39068,-0.38585 -0.39068,-1.39871 v -2.93246 h -0.65112 v -0.68971 h 0.65112 v -1.53375 z" />
        <path
           id="path969"
           style="font-style:normal;font-variant:normal;font-weight:normal;font-stretch:normal;font-family:sans-serif;-inkscape-font-specification:sans-serif;text-align:center;text-anchor:middle;stroke-width:0.26458332"
           d="m 130.56983,226.13146 h 0.88746 v 5.40191 h -0.88746 z m 0,-2.10288 h 0.88746 v 1.12379 h -0.88746 z" />
        <path
           id="path971"
           style="font-style:normal;font-variant:normal;font-weight:normal;font-stretch:normal;font-family:sans-serif;-inkscape-font-specification:sans-serif;text-align:center;text-anchor:middle;stroke-width:0.26458332"
           d="m 137.79971,228.27293 v 3.26044 h -0.88746 v -3.2315 q 0,-0.76688 -0.29903,-1.1479 -0.29903,-0.38103 -0.8971,-0.38103 -0.71865,0 -1.13344,0.4582 -0.41479,0.45819 -0.41479,1.24919 v 3.05304 h -0.89228 v -5.40191 h 0.89228 v 0.83923 q 0.31833,-0.48714 0.74759,-0.7283 0.43408,-0.24115 0.99839,-0.24115 0.93086,0 1.40835,0.57877 0.47749,0.57396 0.47749,1.69292 z" />
        <path
           id="path973"
           style="font-style:normal;font-variant:normal;font-weight:normal;font-stretch:normal;font-family:sans-serif;-inkscape-font-specification:sans-serif;text-align:center;text-anchor:middle;stroke-width:0.26458332"
           d="m 143.1341,228.76972 q 0,-0.96463 -0.40032,-1.49518 -0.3955,-0.53054 -1.11415,-0.53054 -0.71382,0 -1.11414,0.53054 -0.3955,0.53055 -0.3955,1.49518 0,0.9598 0.3955,1.49034 0.40032,0.53055 1.11414,0.53055 0.71865,0 1.11415,-0.53055 0.40032,-0.53054 0.40032,-1.49034 z m 0.88745,2.09324 q 0,1.37941 -0.61254,2.04983 -0.61253,0.67524 -1.87619,0.67524 -0.46785,0 -0.88264,-0.0724 -0.41479,-0.0675 -0.80546,-0.21222 v -0.86334 q 0.39067,0.21222 0.7717,0.3135 0.38103,0.10129 0.77652,0.10129 0.87299,0 1.30707,-0.4582 0.43409,-0.45337 0.43409,-1.37459 v -0.43891 q -0.27492,0.47749 -0.70418,0.71383 -0.42926,0.23633 -1.02733,0.23633 -0.99356,0 -1.60128,-0.75723 -0.60771,-0.75723 -0.60771,-2.00642 0,-1.25402 0.60771,-2.01125 0.60772,-0.75723 1.60128,-0.75723 0.59807,0 1.02733,0.23633 0.42926,0.23633 0.70418,0.71382 v -0.81993 h 0.88745 z" />
        <path
           id="path975"
           style="font-style:normal;font-variant:normal;font-weight:normal;font-stretch:normal;font-family:sans-serif;-inkscape-font-specification:sans-serif;text-align:center;text-anchor:middle;stroke-width:0.26458332"
           d="m 146.07621,230.3083 h 1.01768 v 0.82957 l -0.791,1.54341 h -0.62218 l 0.3955,-1.54341 z" />
        <path
           id="path977"
           style="font-style:normal;font-variant:normal;font-weight:normal;font-stretch:normal;font-family:sans-serif;-inkscape-font-specification:sans-serif;text-align:center;text-anchor:middle;stroke-width:0.26458332"
           d="m 156.75945,228.61055 v 0.43408 h -4.08037 q 0.0579,0.9164 0.54983,1.39871 0.49679,0.47749 1.37942,0.47749 0.51125,0 0.98874,-0.1254 0.48232,-0.1254 0.95498,-0.3762 v 0.83922 q -0.47749,0.20257 -0.97909,0.30868 -0.50161,0.10611 -1.01768,0.10611 -1.2926,0 -2.04984,-0.75241 -0.7524,-0.75241 -0.7524,-2.03536 0,-1.32636 0.71382,-2.10289 0.71865,-0.78134 1.93408,-0.78134 1.09002,0 1.72185,0.70417 0.63666,0.69936 0.63666,1.90514 z m -0.88746,-0.26045 q -0.01,-0.72829 -0.40996,-1.16237 -0.3955,-0.43408 -1.05145,-0.43408 -0.74276,0 -1.19131,0.41961 -0.44373,0.41961 -0.51125,1.18167 z" />
        <path
           id="path979"
           style="font-style:normal;font-variant:normal;font-weight:normal;font-stretch:normal;font-family:sans-serif;-inkscape-font-specification:sans-serif;text-align:center;text-anchor:middle;stroke-width:0.26458332"
           d="m 159.09385,224.59771 v 1.53375 h 1.82796 v 0.68971 h -1.82796 v 2.93246 q 0,0.66077 0.17845,0.84888 0.18328,0.1881 0.73794,0.1881 h 0.91157 v 0.74276 h -0.91157 q -1.02733,0 -1.418,-0.38103 -0.39067,-0.38585 -0.39067,-1.39871 v -2.93246 h -0.65113 v -0.68971 h 0.65113 v -1.53375 z" />
        <path
           id="path981"
           style="font-style:normal;font-variant:normal;font-weight:normal;font-stretch:normal;font-family:sans-serif;-inkscape-font-specification:sans-serif;text-align:center;text-anchor:middle;stroke-width:0.26458332"
           d="m 165.98128,226.33886 v 0.82958 q -0.3762,-0.2074 -0.75723,-0.30869 -0.37621,-0.1061 -0.76206,-0.1061 -0.86334,0 -1.34083,0.54983 -0.47749,0.54502 -0.47749,1.53376 0,0.98874 0.47749,1.53858 0.47749,0.54501 1.34083,0.54501 0.38585,0 0.76206,-0.10128 0.38103,-0.10611 0.75723,-0.31351 v 0.81994 q -0.37138,0.17363 -0.7717,0.26045 -0.3955,0.0868 -0.84405,0.0868 -1.22025,0 -1.9389,-0.76688 -0.71865,-0.76687 -0.71865,-2.06912 0,-1.32154 0.72347,-2.07877 0.7283,-0.75723 1.99196,-0.75723 0.40996,0 0.80064,0.0868 0.39067,0.082 0.75723,0.25081 z" />
        <path
           id="path983"
           style="font-style:normal;font-variant:normal;font-weight:normal;font-stretch:normal;font-family:sans-serif;-inkscape-font-specification:sans-serif;text-align:center;text-anchor:middle;stroke-width:0.26458332"
           d="m 167.65973,230.3083 h 1.01768 v 1.22507 h -1.01768 z" />
        <path
           id="path985"
           style="font-style:normal;font-variant:normal;font-weight:normal;font-stretch:normal;font-family:sans-serif;-inkscape-font-specification:sans-serif;text-align:center;text-anchor:middle;stroke-width:0.26458332"
           d="m 65.264609,239.09454 v 0.83922 q -0.376204,-0.19292 -0.781347,-0.28938 -0.405144,-0.0965 -0.839226,-0.0965 -0.660769,0 -0.993565,0.20258 -0.327973,0.20257 -0.327973,0.60771 0,0.30868 0.236333,0.48714 0.236334,0.17363 0.950158,0.33279 l 0.303857,0.0675 q 0.945334,0.20257 1.340831,0.57395 0.40032,0.36656 0.40032,1.02733 0,0.75241 -0.598068,1.19131 -0.593246,0.43891 -1.635042,0.43891 -0.434082,0 -0.90675,-0.0868 -0.467843,-0.082 -0.988742,-0.2508 v -0.9164 q 0.49196,0.25563 0.96945,0.38585 0.47749,0.1254 0.945334,0.1254 0.627007,0 0.964627,-0.21221 0.337619,-0.21705 0.337619,-0.60772 0,-0.36173 -0.24598,-0.55466 -0.241156,-0.19292 -1.065912,-0.37138 l -0.308681,-0.0724 q -0.824756,-0.17363 -1.191314,-0.53054 -0.366558,-0.36174 -0.366558,-0.98874 0,-0.76206 0.540191,-1.17685 0.540191,-0.41479 1.533757,-0.41479 0.491959,0 0.926041,0.0724 0.434082,0.0724 0.80064,0.21704 z" />
        <path
           id="path987"
           style="font-style:normal;font-variant:normal;font-weight:normal;font-stretch:normal;font-family:sans-serif;-inkscape-font-specification:sans-serif;text-align:center;text-anchor:middle;stroke-width:0.26458332"
           d="m 67.849809,237.40162 v 1.53376 h 1.827967 v 0.6897 h -1.827967 v 2.93247 q 0,0.66077 0.178456,0.84887 0.183279,0.1881 0.737939,0.1881 h 0.911572 v 0.74277 h -0.911572 q -1.027327,0 -1.418001,-0.38103 -0.390674,-0.38585 -0.390674,-1.39871 v -2.93247 h -0.651123 v -0.6897 h 0.651123 v -1.53376 z" />
        <path
           id="path989"
           style="font-style:normal;font-variant:normal;font-weight:normal;font-stretch:normal;font-family:sans-serif;-inkscape-font-specification:sans-serif;text-align:center;text-anchor:middle;stroke-width:0.26458332"
           d="m 73.980011,239.76495 q -0.149517,-0.0868 -0.327973,-0.1254 -0.173632,-0.0434 -0.38585,-0.0434 -0.752409,0 -1.157552,0.49195 -0.40032,0.48714 -0.40032,1.40354 v 2.84565 h -0.89228 v -5.40191 h 0.89228 v 0.83922 q 0.279741,-0.49196 0.728293,-0.72829 0.448551,-0.24116 1.090028,-0.24116 0.09164,0 0.202572,0.0145 0.110932,0.01 0.245979,0.0338 z" />
        <path
           id="path991"
           style="font-style:normal;font-variant:normal;font-weight:normal;font-stretch:normal;font-family:sans-serif;-inkscape-font-specification:sans-serif;text-align:center;text-anchor:middle;stroke-width:0.26458332"
           d="m 74.920522,238.93538 h 0.887457 v 5.40191 h -0.887457 z m 0,-2.10289 h 0.887457 v 1.12379 h -0.887457 z" />
        <path
           id="path993"
           style="font-style:normal;font-variant:normal;font-weight:normal;font-stretch:normal;font-family:sans-serif;-inkscape-font-specification:sans-serif;text-align:center;text-anchor:middle;stroke-width:0.26458332"
           d="m 81.547507,239.14277 v 0.82958 q -0.376204,-0.2074 -0.757232,-0.30868 -0.376204,-0.10611 -0.762055,-0.10611 -0.863341,0 -1.340831,0.54984 -0.47749,0.54501 -0.47749,1.53375 0,0.98875 0.47749,1.53858 0.47749,0.54502 1.340831,0.54502 0.385851,0 0.762055,-0.10129 0.381028,-0.10611 0.757232,-0.3135 v 0.81993 q -0.371381,0.17363 -0.771701,0.26045 -0.395497,0.0868 -0.844049,0.0868 -1.220252,0 -1.938899,-0.76688 -0.718647,-0.76688 -0.718647,-2.06913 0,-1.32153 0.72347,-2.07877 0.728293,-0.75723 1.991954,-0.75723 0.409966,0 0.80064,0.0868 0.390674,0.082 0.757232,0.2508 z" />
        <path
           id="path995"
           style="font-style:normal;font-variant:normal;font-weight:normal;font-stretch:normal;font-family:sans-serif;-inkscape-font-specification:sans-serif;text-align:center;text-anchor:middle;stroke-width:0.26458332"
           d="m 83.978367,237.40162 v 1.53376 h 1.827968 v 0.6897 h -1.827968 v 2.93247 q 0,0.66077 0.178456,0.84887 0.183279,0.1881 0.73794,0.1881 h 0.911572 v 0.74277 h -0.911572 q -1.027328,0 -1.418002,-0.38103 -0.390673,-0.38585 -0.390673,-1.39871 v -2.93247 h -0.651123 v -0.6897 h 0.651123 v -1.53376 z" />
        <path
           id="path997"
           style="font-style:normal;font-variant:normal;font-weight:normal;font-stretch:normal;font-family:sans-serif;-inkscape-font-specification:sans-serif;text-align:center;text-anchor:middle;stroke-width:0.26458332"
           d="m 86.978355,236.83249 h 0.887457 v 7.5048 h -0.887457 z" />
        <path
           id="path999"
           style="font-style:normal;font-variant:normal;font-weight:normal;font-stretch:normal;font-family:sans-serif;-inkscape-font-specification:sans-serif;text-align:center;text-anchor:middle;stroke-width:0.26458332"
           d="m 91.965475,244.83889 q -0.376204,0.96463 -0.733116,1.25884 -0.356912,0.29421 -0.95498,0.29421 h -0.709001 v -0.74276 h 0.520899 q 0.366558,0 0.569129,-0.17364 0.202572,-0.17363 0.448552,-0.81993 l 0.159163,-0.40514 -2.184879,-5.31509 h 0.940511 l 1.688096,4.22506 1.688097,-4.22506 h 0.940511 z" />
        <path
           id="path1001"
           style="font-style:normal;font-variant:normal;font-weight:normal;font-stretch:normal;font-family:sans-serif;-inkscape-font-specification:sans-serif;text-align:center;text-anchor:middle;stroke-width:0.26458332"
           d="m 101.44293,236.83249 v 0.73794 h -0.84887 q -0.47749,0 -0.66559,0.19292 -0.183279,0.19293 -0.183279,0.69454 v 0.47749 h 1.461409 v 0.6897 h -1.461409 v 4.71221 h -0.89228 v -4.71221 H 98.00404 v -0.6897 h 0.848871 v -0.37621 q 0,-0.90192 0.419613,-1.31189 0.419613,-0.41479 1.331186,-0.41479 z" />
        <path
           id="path1003"
           style="font-style:normal;font-variant:normal;font-weight:normal;font-stretch:normal;font-family:sans-serif;-inkscape-font-specification:sans-serif;text-align:center;text-anchor:middle;stroke-width:0.26458332"
           d="m 104.27411,239.55756 q -0.71382,0 -1.12861,0.55948 -0.41479,0.55466 -0.41479,1.52411 0,0.96945 0.40997,1.52894 0.41479,0.55466 1.13343,0.55466 0.709,0 1.12379,-0.55949 0.41479,-0.55948 0.41479,-1.52411 0,-0.9598 -0.41479,-1.51928 -0.41479,-0.56431 -1.12379,-0.56431 z m 0,-0.75241 q 1.15756,0 1.81832,0.75241 0.66077,0.75241 0.66077,2.08359 0,1.32637 -0.66077,2.0836 -0.66076,0.75241 -1.81832,0.75241 -1.16237,0 -1.82314,-0.75241 -0.65595,-0.75723 -0.65595,-2.0836 0,-1.33118 0.65595,-2.08359 0.66077,-0.75241 1.82314,-0.75241 z" />
        <path
           id="path1005"
           style="font-style:normal;font-variant:normal;font-weight:normal;font-stretch:normal;font-family:sans-serif;-inkscape-font-specification:sans-serif;text-align:center;text-anchor:middle;stroke-width:0.26458332"
           d="m 111.34965,239.76495 q -0.14952,-0.0868 -0.32797,-0.1254 -0.17364,-0.0434 -0.38585,-0.0434 -0.75241,0 -1.15756,0.49195 -0.40032,0.48714 -0.40032,1.40354 v 2.84565 h -0.89228 v -5.40191 h 0.89228 v 0.83922 q 0.27975,-0.49196 0.7283,-0.72829 0.44855,-0.24116 1.09003,-0.24116 0.0916,0 0.20257,0.0145 0.11093,0.01 0.24598,0.0338 z" />
        <path
           id="path1007"
           style="font-style:normal;font-variant:normal;font-weight:normal;font-stretch:normal;font-family:sans-serif;-inkscape-font-specification:sans-serif;text-align:center;text-anchor:middle;stroke-width:0.26458332"
           d="m 116.16796,241.64115 q 0,-0.97909 -0.40514,-1.53375 -0.40032,-0.55949 -1.1045,-0.55949 -0.70418,0 -1.10932,0.55949 -0.40032,0.55466 -0.40032,1.53375 0,0.9791 0.40032,1.53858 0.40514,0.55466 1.10932,0.55466 0.70418,0 1.1045,-0.55466 0.40514,-0.55948 0.40514,-1.53858 z m -3.01928,-1.88584 q 0.27974,-0.48231 0.70418,-0.71383 0.42925,-0.23633 1.0225,-0.23633 0.98392,0 1.59646,0.78135 0.61736,0.78135 0.61736,2.05465 0,1.27331 -0.61736,2.05466 -0.61254,0.78135 -1.59646,0.78135 -0.59325,0 -1.0225,-0.23151 -0.42444,-0.23634 -0.70418,-0.71865 v 0.81029 h -0.89228 v -7.5048 h 0.89228 z" />
        <path
           id="path1009"
           style="font-style:normal;font-variant:normal;font-weight:normal;font-stretch:normal;font-family:sans-serif;-inkscape-font-specification:sans-serif;text-align:center;text-anchor:middle;stroke-width:0.26458332"
           d="m 118.56023,238.93538 h 0.88746 v 5.40191 h -0.88746 z m 0,-2.10289 h 0.88746 v 1.12379 h -0.88746 z" />
        <path
           id="path1011"
           style="font-style:normal;font-variant:normal;font-weight:normal;font-stretch:normal;font-family:sans-serif;-inkscape-font-specification:sans-serif;text-align:center;text-anchor:middle;stroke-width:0.26458332"
           d="m 124.85442,239.75531 v -2.92282 h 0.88746 v 7.5048 h -0.88746 V 243.527 q -0.27974,0.48231 -0.709,0.71865 -0.42443,0.23151 -1.0225,0.23151 -0.9791,0 -1.59646,-0.78135 -0.61254,-0.78135 -0.61254,-2.05466 0,-1.2733 0.61254,-2.05465 0.61736,-0.78135 1.59646,-0.78135 0.59807,0 1.0225,0.23633 0.42926,0.23152 0.709,0.71383 z m -3.0241,1.88584 q 0,0.9791 0.40032,1.53858 0.40514,0.55466 1.10932,0.55466 0.70418,0 1.10932,-0.55466 0.40514,-0.55948 0.40514,-1.53858 0,-0.97909 -0.40514,-1.53375 -0.40514,-0.55949 -1.10932,-0.55949 -0.70418,0 -1.10932,0.55949 -0.40032,0.55466 -0.40032,1.53375 z" />
        <path
           id="path1013"
           style="font-style:normal;font-variant:normal;font-weight:normal;font-stretch:normal;font-family:sans-serif;-inkscape-font-specification:sans-serif;text-align:center;text-anchor:middle;stroke-width:0.26458332"
           d="m 131.1245,239.75531 v -2.92282 h 0.88745 v 7.5048 H 131.1245 V 243.527 q -0.27975,0.48231 -0.709,0.71865 -0.42444,0.23151 -1.02251,0.23151 -0.97909,0 -1.59646,-0.78135 -0.61253,-0.78135 -0.61253,-2.05466 0,-1.2733 0.61253,-2.05465 0.61737,-0.78135 1.59646,-0.78135 0.59807,0 1.02251,0.23633 0.42925,0.23152 0.709,0.71383 z m -3.02411,1.88584 q 0,0.9791 0.40032,1.53858 0.40514,0.55466 1.10932,0.55466 0.70418,0 1.10932,-0.55466 0.40515,-0.55948 0.40515,-1.53858 0,-0.97909 -0.40515,-1.53375 -0.40514,-0.55949 -1.10932,-0.55949 -0.70418,0 -1.10932,0.55949 -0.40032,0.55466 -0.40032,1.53375 z" />
        <path
           id="path1015"
           style="font-style:normal;font-variant:normal;font-weight:normal;font-stretch:normal;font-family:sans-serif;-inkscape-font-specification:sans-serif;text-align:center;text-anchor:middle;stroke-width:0.26458332"
           d="m 138.46048,241.41447 v 0.43408 h -4.08037 q 0.0579,0.91639 0.54984,1.39871 0.49678,0.47749 1.37941,0.47749 0.51126,0 0.98875,-0.1254 0.48231,-0.12541 0.95498,-0.37621 v 0.83923 q -0.47749,0.20257 -0.9791,0.30868 -0.50161,0.10611 -1.01768,0.10611 -1.2926,0 -2.04983,-0.75241 -0.75241,-0.75241 -0.75241,-2.03537 0,-1.32636 0.71382,-2.10288 0.71865,-0.78135 1.93408,-0.78135 1.09003,0 1.72186,0.70418 0.63665,0.69935 0.63665,1.90514 z m -0.88745,-0.26045 q -0.01,-0.7283 -0.40997,-1.16238 -0.3955,-0.43408 -1.05144,-0.43408 -0.74277,0 -1.19132,0.41961 -0.44373,0.41962 -0.51125,1.18167 z" />
        <path
           id="path1017"
           style="font-style:normal;font-variant:normal;font-weight:normal;font-stretch:normal;font-family:sans-serif;-inkscape-font-specification:sans-serif;text-align:center;text-anchor:middle;stroke-width:0.26458332"
           d="m 144.40741,241.07685 v 3.26044 h -0.88746 v -3.2315 q 0,-0.76688 -0.29904,-1.14791 -0.29903,-0.38103 -0.8971,-0.38103 -0.71865,0 -1.13343,0.4582 -0.41479,0.4582 -0.41479,1.24919 v 3.05305 h -0.89228 v -5.40191 h 0.89228 v 0.83922 q 0.31832,-0.48714 0.74758,-0.72829 0.43408,-0.24116 0.99839,-0.24116 0.93086,0 1.40836,0.57878 0.47749,0.57395 0.47749,1.69292 z" />
        <path
           id="path1019"
           style="font-style:normal;font-variant:normal;font-weight:normal;font-stretch:normal;font-family:sans-serif;-inkscape-font-specification:sans-serif;text-align:center;text-anchor:middle;stroke-width:0.26458332"
           d="m 146.74662,243.11221 h 0.9791 v 1.22508 h -0.9791 z m 0,-5.97586 h 0.9791 v 3.15915 l -0.0965,1.72186 h -0.78135 l -0.10129,-1.72186 z" />
      </g>
    </g>
  </g>
</svg>
