<?xml version="1.0" encoding="UTF-8" standalone="no"?>
<!-- Created with Inkscape (http://www.inkscape.org/) -->

<svg
   xmlns:dc="http://purl.org/dc/elements/1.1/"
   xmlns:cc="http://creativecommons.org/ns#"
   xmlns:rdf="http://www.w3.org/1999/02/22-rdf-syntax-ns#"
   xmlns:svg="http://www.w3.org/2000/svg"
   xmlns="http://www.w3.org/2000/svg"
   xmlns:sodipodi="http://sodipodi.sourceforge.net/DTD/sodipodi-0.dtd"
   xmlns:inkscape="http://www.inkscape.org/namespaces/inkscape"
   width="210mm"
   height="297mm"
   viewBox="0 0 210 297"
   version="1.1"
   id="svg893"
   inkscape:version="0.92.4 5da689c313, 2019-01-14"
   sodipodi:docname="kaffeemaschinen-schild_pathified_fonts.svg">
  <defs
     id="defs887" />
  <sodipodi:namedview
     id="base"
     pagecolor="#ffffff"
     bordercolor="#666666"
     borderopacity="1.0"
     inkscape:pageopacity="0.0"
     inkscape:pageshadow="2"
     inkscape:zoom="0.7"
     inkscape:cx="327.10954"
     inkscape:cy="474.48499"
     inkscape:document-units="mm"
     inkscape:current-layer="text1739"
     showgrid="false"
     inkscape:window-width="1366"
     inkscape:window-height="715"
     inkscape:window-x="0"
     inkscape:window-y="0"
     inkscape:window-maximized="1" />
  <metadata
     id="metadata890">
    <rdf:RDF>
      <cc:Work
         rdf:about="">
        <dc:format>image/svg+xml</dc:format>
        <dc:type
           rdf:resource="http://purl.org/dc/dcmitype/StillImage" />
        <dc:title></dc:title>
      </cc:Work>
    </rdf:RDF>
  </metadata>
  <g
     inkscape:label="Layer 1"
     inkscape:groupmode="layer"
     id="layer1">
    <g
       id="g1731"
       transform="translate(9.3974152)">
      <rect
         y="13.517858"
         x="15.875"
         height="163.56265"
         width="159.45517"
         id="rect1654"
         style="fill:#009a3b;fill-opacity:1;stroke:none;stroke-width:1.32655239;stroke-linecap:round;stroke-linejoin:bevel;stroke-miterlimit:4;stroke-dasharray:none;stroke-opacity:1" />
      <g
         style="fill:#ffffff;stroke:none"
         transform="matrix(0.23644704,0,0,0.23644704,24.87387,46.055201)"
         id="g1517">
        <g
           style="fill:#ffffff;stroke:none"
           id="g1442">
          <g
             style="fill:#ffffff;stroke:none"
             id="g1440">
            <path
               style="fill:#ffffff;stroke:none"
               inkscape:connector-curvature="0"
               d="m 179.361,99.903 c -11.41,-11.41 -16.454,-17.005 -16.452,-30.089 -0.002,-13.079 5.044,-18.674 16.457,-30.089 9.089,-9.087 9.089,-23.82 0.002,-32.909 -9.087,-9.09 -23.825,-9.087 -32.914,-0.002 -12.699,12.698 -30.095,30.09 -30.09,62.999 -0.005,32.914 17.388,50.305 30.089,63.001 11.411,11.413 16.457,17.011 16.457,30.092 0,12.854 10.42,23.273 23.273,23.273 12.853,0 23.273,-10.418 23.273,-23.273 -0.002,-32.913 -17.394,-50.305 -30.095,-63.003 z"
               id="path1438" />
          </g>
        </g>
        <g
           style="fill:#ffffff;stroke:none"
           id="g1448">
          <g
             style="fill:#ffffff;stroke:none"
             id="g1446">
            <path
               style="fill:#ffffff;stroke:none"
               inkscape:connector-curvature="0"
               d="m 287.967,99.903 c -11.41,-11.41 -16.454,-17.005 -16.452,-30.089 -0.002,-13.079 5.044,-18.674 16.457,-30.089 9.089,-9.087 9.089,-23.82 0.002,-32.909 -9.087,-9.09 -23.825,-9.087 -32.914,-0.002 -12.699,12.698 -30.095,30.092 -30.09,62.999 -0.005,32.914 17.388,50.305 30.089,63.001 11.411,11.413 16.457,17.011 16.457,30.092 0,12.854 10.42,23.273 23.273,23.273 12.853,0 23.273,-10.418 23.273,-23.273 -0.001,-32.913 -17.394,-50.305 -30.095,-63.003 z"
               id="path1444" />
          </g>
        </g>
        <g
           style="fill:#ffffff;stroke:none"
           id="g1454">
          <g
             style="fill:#ffffff;stroke:none"
             id="g1452">
            <path
               style="fill:#ffffff;stroke:none"
               inkscape:connector-curvature="0"
               d="m 381.401,403.393 h 21.993 c 0.022,0 0.039,-0.003 0.061,-0.003 47.023,-0.031 85.273,-38.298 85.273,-85.331 0,-47.053 -38.281,-85.334 -85.334,-85.334 H 372.364 62.06 c -12.853,0 -23.273,10.422 -23.273,23.273 v 77.576 c 0,52.193 22.528,99.221 58.37,131.879 H 46.545 c -12.853,0 -23.273,10.418 -23.273,23.273 0,12.851 10.42,23.273 23.273,23.273 h 170.667 170.667 c 12.853,0 23.273,-10.422 23.273,-23.273 0,-12.854 -10.42,-23.273 -23.273,-23.273 h -50.612 c 18.837,-17.164 33.99,-38.295 44.134,-62.06 z m 14.236,-69.818 v -54.303 h 7.758 c 21.388,0 38.788,17.4 38.788,38.788 0,21.388 -17.4,38.788 -38.788,38.788 -0.011,0 -0.02,0 -0.031,0 h -9.245 c 0.996,-7.619 1.518,-15.387 1.518,-23.273 z"
               id="path1450" />
          </g>
        </g>
        <g
           style="fill:#ffffff;stroke:none"
           id="g1456" />
        <g
           style="fill:#ffffff;stroke:none"
           id="g1458" />
        <g
           style="fill:#ffffff;stroke:none"
           id="g1460" />
        <g
           style="fill:#ffffff;stroke:none"
           id="g1462" />
        <g
           style="fill:#ffffff;stroke:none"
           id="g1464" />
        <g
           style="fill:#ffffff;stroke:none"
           id="g1466" />
        <g
           style="fill:#ffffff;stroke:none"
           id="g1468" />
        <g
           style="fill:#ffffff;stroke:none"
           id="g1470" />
        <g
           style="fill:#ffffff;stroke:none"
           id="g1472" />
        <g
           style="fill:#ffffff;stroke:none"
           id="g1474" />
        <g
           style="fill:#ffffff;stroke:none"
           id="g1476" />
        <g
           style="fill:#ffffff;stroke:none"
           id="g1478" />
        <g
           style="fill:#ffffff;stroke:none"
           id="g1480" />
        <g
           style="fill:#ffffff;stroke:none"
           id="g1482" />
        <g
           style="fill:#ffffff;stroke:none"
           id="g1484" />
      </g>
      <path
         sodipodi:nodetypes="ccccccccccccscccccc"
         style="fill:#009a3b;fill-rule:evenodd;stroke-width:0.10144585;image-rendering:optimizeQuality;shape-rendering:geometricPrecision;text-rendering:geometricPrecision"
         inkscape:connector-curvature="0"
         id="path876"
         d="m 77.194677,153.40631 c 2.13037,-1.1159 4.97085,-3.04337 7.81133,-5.57952 3.04338,-2.53615 5.37663,-4.97085 7.506988,-7.60844 2.739022,-3.24627 4.666483,-6.59398 5.17371,-9.13013 0.202887,-1.31879 0.202887,-3.65205 0,-5.07229 -0.507227,-2.73904 -1.623131,-5.27519 -3.347702,-7.3041 -2.028908,-2.53615 -4.869376,-4.05784 -7.608416,-4.15928 -1.92747,-0.10145 -3.75349,0.30433 -5.57952,1.21735 -1.52169,0.71012 -2.63759,1.42024 -3.85494,2.63759 -0.40578,0.50723 -0.81157,0.81156 -0.81157,0.81156 0,0 -0.40578,-0.30433 -0.81156,-0.71012 -1.92748,-1.92747 -4.15929,-3.24626 -6.59399,-3.75349 -3.246264,-0.71012 -6.086748,0 -8.724341,2.02891 -2.739038,2.33326 -4.767955,6.08676 -5.275184,9.9417 -0.202892,1.62313 -0.101446,3.55061 0.304337,4.8694 0.913013,3.55061 3.854943,8.01422 8.622898,12.68073 3.85494,3.85494 8.42001,7.40555 11.66628,9.13013 0.40578,0.10145 0.71012,0.30434 0.81156,0.30434 0,0 0.30434,-0.10145 0.71012,-0.30434 z"
         class="fil1" />
      <path
         sodipodi:nodetypes="ccccccccscccccscscccscccc"
         style="fill:#ffffff;fill-opacity:1;fill-rule:evenodd;stroke-width:0.26458332;image-rendering:optimizeQuality;shape-rendering:geometricPrecision;text-rendering:geometricPrecision;stroke:none"
         inkscape:connector-curvature="0"
         id="path876-3"
         d="m 152.80564,55.243292 v -7.408333 l 7.67292,-0.264583 h 7.9375 v -6.35 -6.35 h -7.67292 c -5.82083,0 -7.67292,-0.264584 -7.9375,-0.264584 v -7.672916 -7.672917 h -7.14375 -6.87917 v 7.408333 c 0,6.614584 0,7.672917 -0.26458,7.9375 0,0.264584 -1.05833,0.264584 -7.9375,0.264584 h -7.67292 v 6.35 6.35 h 7.9375 c 6.87917,0 7.67292,0 7.9375,0.264583 v 7.672917 7.14375 h 6.87917 6.87917 z"
         class="fil1" />
    </g>
    <g
       id="g1757"
       transform="translate(0,12.85119)">
      <rect
         y="192.00125"
         x="20.307571"
         height="64.280777"
         width="169.38486"
         id="rect1701"
         style="fill:none;fill-opacity:1;stroke:#ff0000;stroke-width:8;stroke-linecap:square;stroke-linejoin:miter;stroke-miterlimit:4;stroke-dasharray:none;stroke-opacity:1" />
      <g
         aria-label="Lebenswichtige Einrichtung"
         style="font-style:normal;font-variant:normal;font-weight:normal;font-stretch:normal;font-size:9.8777771px;line-height:1.25;font-family:sans-serif;-inkscape-font-specification:sans-serif;letter-spacing:0px;word-spacing:0px;fill:#000000;fill-opacity:1;stroke:none;stroke-width:0.26458332"
         id="text1739">
        <path
           d="m 28.519574,206.31876 h 1.856907 v 5.79741 h 3.260438 v 1.40353 h -5.117345 z"
           style="font-style:normal;font-variant:normal;font-weight:bold;font-stretch:normal;font-family:sans-serif;-inkscape-font-specification:'sans-serif Bold';stroke-width:0.26458332"
           id="path4645" />
        <path
           d="m 40.124033,210.80428 v 0.49195 h -4.036962 q 0.0627,0.60772 0.438905,0.91158 0.376204,0.30385 1.051443,0.30385 0.545014,0 1.114144,-0.15916 0.573952,-0.16399 1.176844,-0.49196 v 1.33119 q -0.612538,0.23151 -1.225076,0.34726 -0.612538,0.12058 -1.225076,0.12058 -1.466232,0 -2.281342,-0.74276 -0.810286,-0.74759 -0.810286,-2.09324 0,-1.32154 0.795817,-2.07877 0.80064,-0.75723 2.199349,-0.75723 1.273307,0 2.035362,0.76687 0.766878,0.76688 0.766878,2.04984 z m -1.774913,-0.57396 q 0,-0.49196 -0.289388,-0.79099 -0.284565,-0.30386 -0.747586,-0.30386 -0.501605,0 -0.815109,0.28457 -0.313504,0.27974 -0.390674,0.81028 z"
           style="font-style:normal;font-variant:normal;font-weight:bold;font-stretch:normal;font-family:sans-serif;-inkscape-font-specification:'sans-serif Bold';stroke-width:0.26458332"
           id="path4647" />
        <path
           d="m 44.300867,212.40556 q 0.55466,0 0.844048,-0.40515 0.294212,-0.40514 0.294212,-1.17684 0,-0.7717 -0.294212,-1.17685 -0.289388,-0.40514 -0.844048,-0.40514 -0.55466,0 -0.853695,0.40997 -0.294211,0.40514 -0.294211,1.17202 0,0.76688 0.294211,1.17684 0.299035,0.40515 0.853695,0.40515 z m -1.147906,-3.49678 q 0.356912,-0.47266 0.790994,-0.69453 0.434082,-0.22668 0.998389,-0.22668 0.998388,0 1.639865,0.79581 0.641477,0.791 0.641477,2.04019 0,1.24919 -0.641477,2.04501 -0.641477,0.79099 -1.639865,0.79099 -0.564307,0 -0.998389,-0.22186 -0.434082,-0.22669 -0.790994,-0.69936 v 0.78135 H 41.42628 v -7.5048 h 1.726681 z"
           style="font-style:normal;font-variant:normal;font-weight:bold;font-stretch:normal;font-family:sans-serif;-inkscape-font-specification:'sans-serif Bold';stroke-width:0.26458332"
           id="path4649" />
        <path
           d="m 53.898903,210.80428 v 0.49195 H 49.86194 q 0.0627,0.60772 0.438906,0.91158 0.376204,0.30385 1.051443,0.30385 0.545014,0 1.114143,-0.15916 0.573953,-0.16399 1.176845,-0.49196 v 1.33119 q -0.612538,0.23151 -1.225076,0.34726 -0.612538,0.12058 -1.225076,0.12058 -1.466232,0 -2.281342,-0.74276 -0.810286,-0.74759 -0.810286,-2.09324 0,-1.32154 0.795817,-2.07877 0.80064,-0.75723 2.199349,-0.75723 1.273307,0 2.035362,0.76687 0.766878,0.76688 0.766878,2.04984 z m -1.774913,-0.57396 q 0,-0.49196 -0.289388,-0.79099 -0.284565,-0.30386 -0.747586,-0.30386 -0.501606,0 -0.815109,0.28457 -0.313504,0.27974 -0.390674,0.81028 z"
           style="font-style:normal;font-variant:normal;font-weight:bold;font-stretch:normal;font-family:sans-serif;-inkscape-font-specification:'sans-serif Bold';stroke-width:0.26458332"
           id="path4651" />
        <path
           d="m 60.631996,210.23032 v 3.28938 h -1.736328 v -0.53537 -1.98231 q 0,-0.69935 -0.03376,-0.96462 -0.02894,-0.26528 -0.106109,-0.39068 -0.101286,-0.16881 -0.274919,-0.26045 -0.173633,-0.0965 -0.395497,-0.0965 -0.540191,0 -0.848871,0.41961 -0.308681,0.41479 -0.308681,1.15273 v 2.65755 h -1.726681 v -5.40191 h 1.726681 v 0.79099 q 0.390674,-0.47266 0.829579,-0.69453 0.438905,-0.22668 0.96945,-0.22668 0.935688,0 1.418001,0.57395 0.487137,0.57395 0.487137,1.6688 z"
           style="font-style:normal;font-variant:normal;font-weight:bold;font-stretch:normal;font-family:sans-serif;-inkscape-font-specification:'sans-serif Bold';stroke-width:0.26458332"
           id="path4653" />
        <path
           d="m 66.463164,208.2866 v 1.31189 q -0.55466,-0.23151 -1.070736,-0.34726 -0.516075,-0.11576 -0.974272,-0.11576 -0.49196,0 -0.733117,0.1254 -0.236333,0.12058 -0.236333,0.37621 0,0.20739 0.178456,0.31832 0.183279,0.11094 0.651123,0.16399 l 0.303857,0.0434 q 1.326362,0.16881 1.784559,0.55466 0.458198,0.38585 0.458198,1.21061 0,0.86334 -0.636654,1.29742 -0.636653,0.43408 -1.900314,0.43408 -0.535368,0 -1.109321,-0.0868 -0.569129,-0.082 -1.172021,-0.2508 v -1.31189 q 0.516075,0.2508 1.056266,0.3762 0.545014,0.1254 1.104498,0.1254 0.506429,0 0.762055,-0.13987 0.255626,-0.13987 0.255626,-0.41479 0,-0.23151 -0.178456,-0.34244 -0.173633,-0.11575 -0.699355,-0.17845 l -0.303857,-0.0386 q -1.152729,-0.14469 -1.61575,-0.53537 -0.46302,-0.39067 -0.46302,-1.18649 0,-0.85852 0.588422,-1.27331 0.588422,-0.41478 1.803852,-0.41478 0.47749,0 1.003211,0.0723 0.525722,0.0724 1.143083,0.22669 z"
           style="font-style:normal;font-variant:normal;font-weight:bold;font-stretch:normal;font-family:sans-serif;-inkscape-font-specification:'sans-serif Bold';stroke-width:0.26458332"
           id="path4655" />
        <path
           d="m 67.644833,208.11779 h 1.67845 l 0.906749,3.72346 0.911573,-3.72346 h 1.442117 l 0.906749,3.68487 0.911572,-3.68487 h 1.67845 l -1.422824,5.40191 h -1.885845 l -0.911572,-3.71381 -0.90675,3.71381 h -1.885845 z"
           style="font-style:normal;font-variant:normal;font-weight:bold;font-stretch:normal;font-family:sans-serif;-inkscape-font-specification:'sans-serif Bold';stroke-width:0.26458332"
           id="path4657" />
        <path
           d="m 77.252513,208.11779 h 1.726681 v 5.40191 h -1.726681 z m 0,-2.10289 h 1.726681 v 1.40836 h -1.726681 z"
           style="font-style:normal;font-variant:normal;font-weight:bold;font-stretch:normal;font-family:sans-serif;-inkscape-font-specification:'sans-serif Bold';stroke-width:0.26458332"
           id="path4659" />
        <path
           d="m 85.012937,208.2866 v 1.40835 q -0.352089,-0.24115 -0.709001,-0.35691 -0.352088,-0.11575 -0.733116,-0.11575 -0.72347,0 -1.128613,0.42443 -0.40032,0.41962 -0.40032,1.17685 0,0.75723 0.40032,1.18167 0.405143,0.41961 1.128613,0.41961 0.405143,0 0.766878,-0.12058 0.366558,-0.12058 0.675239,-0.35691 v 1.41318 q -0.405143,0.14951 -0.824756,0.22186 -0.414789,0.0772 -0.834402,0.0772 -1.461409,0 -2.286165,-0.74759 -0.824756,-0.7524 -0.824756,-2.08841 0,-1.33601 0.824756,-2.0836 0.824756,-0.7524 2.286165,-0.7524 0.424436,0 0.834402,0.0772 0.41479,0.0723 0.824756,0.22186 z"
           style="font-style:normal;font-variant:normal;font-weight:bold;font-stretch:normal;font-family:sans-serif;-inkscape-font-specification:'sans-serif Bold';stroke-width:0.26458332"
           id="path4661" />
        <path
           d="m 91.943779,210.23032 v 3.28938 h -1.736328 v -0.53537 -1.97266 q 0,-0.709 -0.03376,-0.97427 -0.02894,-0.26528 -0.106109,-0.39068 -0.101286,-0.16881 -0.274919,-0.26045 -0.173633,-0.0965 -0.395497,-0.0965 -0.540191,0 -0.848871,0.41961 -0.308681,0.41479 -0.308681,1.15273 v 2.65755 H 86.51293 v -7.5048 h 1.726682 v 2.89388 q 0.390674,-0.47266 0.829579,-0.69453 0.438905,-0.22668 0.96945,-0.22668 0.935688,0 1.418001,0.57395 0.487137,0.57395 0.487137,1.6688 z"
           style="font-style:normal;font-variant:normal;font-weight:bold;font-stretch:normal;font-family:sans-serif;-inkscape-font-specification:'sans-serif Bold';stroke-width:0.26458332"
           id="path4663" />
        <path
           d="m 95.440547,206.58403 v 1.53376 h 1.779736 v 1.23472 h -1.779736 v 2.29099 q 0,0.3762 0.149517,0.51125 0.149517,0.13023 0.593245,0.13023 h 0.887457 v 1.23472 h -1.480702 q -1.022505,0 -1.451763,-0.42444 -0.424436,-0.42926 -0.424436,-1.45176 v -2.29099 h -0.858518 v -1.23472 h 0.858518 v -1.53376 z"
           style="font-style:normal;font-variant:normal;font-weight:bold;font-stretch:normal;font-family:sans-serif;-inkscape-font-specification:'sans-serif Bold';stroke-width:0.26458332"
           id="path4665" />
        <path
           d="m 98.281378,208.11779 h 1.726682 v 5.40191 h -1.726682 z m 0,-2.10289 h 1.726682 v 1.40836 h -1.726682 z"
           style="font-style:normal;font-variant:normal;font-weight:bold;font-stretch:normal;font-family:sans-serif;-inkscape-font-specification:'sans-serif Bold';stroke-width:0.26458332"
           id="path4667" />
        <path
           d="m 105.35209,212.6033 q -0.35691,0.47267 -0.78617,0.69453 -0.42926,0.22187 -0.99357,0.22187 -0.98874,0 -1.63504,-0.77653 -0.6463,-0.78134 -0.6463,-1.98713 0,-1.2106 0.6463,-1.9823 0.6463,-0.77653 1.63504,-0.77653 0.56431,0 0.99357,0.22187 0.42926,0.22186 0.78617,0.69935 v -0.80064 h 1.73633 v 4.8569 q 0,1.30224 -0.82476,1.98713 -0.81993,0.6897 -2.38262,0.6897 -0.50643,0 -0.9791,-0.0772 -0.47267,-0.0772 -0.95016,-0.23633 v -1.34565 q 0.45338,0.26045 0.88746,0.38585 0.43408,0.13022 0.87299,0.13022 0.84887,0 1.24436,-0.37138 0.3955,-0.37138 0.3955,-1.16237 z m -1.13826,-3.36172 q -0.53537,0 -0.8344,0.3955 -0.29903,0.39549 -0.29903,1.11896 0,0.74277 0.28938,1.12862 0.28939,0.38102 0.84405,0.38102 0.54019,0 0.83923,-0.39549 0.29903,-0.3955 0.29903,-1.11415 0,-0.72347 -0.29903,-1.11896 -0.29904,-0.3955 -0.83923,-0.3955 z"
           style="font-style:normal;font-variant:normal;font-weight:bold;font-stretch:normal;font-family:sans-serif;-inkscape-font-specification:'sans-serif Bold';stroke-width:0.26458332"
           id="path4669" />
        <path
           d="m 114.14949,210.80428 v 0.49195 h -4.03697 q 0.0627,0.60772 0.43891,0.91158 0.3762,0.30385 1.05144,0.30385 0.54502,0 1.11415,-0.15916 0.57395,-0.16399 1.17684,-0.49196 v 1.33119 q -0.61254,0.23151 -1.22508,0.34726 -0.61253,0.12058 -1.22507,0.12058 -1.46623,0 -2.28134,-0.74276 -0.81029,-0.74759 -0.81029,-2.09324 0,-1.32154 0.79582,-2.07877 0.80064,-0.75723 2.19935,-0.75723 1.2733,0 2.03536,0.76687 0.76688,0.76688 0.76688,2.04984 z m -1.77492,-0.57396 q 0,-0.49196 -0.28938,-0.79099 -0.28457,-0.30386 -0.74759,-0.30386 -0.50161,0 -0.81511,0.28457 -0.3135,0.27974 -0.39067,0.81028 z"
           style="font-style:normal;font-variant:normal;font-weight:bold;font-stretch:normal;font-family:sans-serif;-inkscape-font-specification:'sans-serif Bold';stroke-width:0.26458332"
           id="path4671" />
        <path
           d="m 118.96297,206.31876 h 5.01124 v 1.40353 h -3.15433 v 1.34083 h 2.96623 v 1.40354 h -2.96623 v 1.64951 h 3.26044 v 1.40353 h -5.11735 z"
           style="font-style:normal;font-variant:normal;font-weight:bold;font-stretch:normal;font-family:sans-serif;-inkscape-font-specification:'sans-serif Bold';stroke-width:0.26458332"
           id="path4673" />
        <path
           d="m 125.63819,208.11779 h 1.72668 v 5.40191 h -1.72668 z m 0,-2.10289 h 1.72668 v 1.40836 h -1.72668 z"
           style="font-style:normal;font-variant:normal;font-weight:bold;font-stretch:normal;font-family:sans-serif;-inkscape-font-specification:'sans-serif Bold';stroke-width:0.26458332"
           id="path4675" />
        <path
           d="m 134.46452,210.23032 v 3.28938 h -1.73633 v -0.53537 -1.98231 q 0,-0.69935 -0.0338,-0.96462 -0.0289,-0.26528 -0.10611,-0.39068 -0.10128,-0.16881 -0.27491,-0.26045 -0.17364,-0.0965 -0.3955,-0.0965 -0.54019,0 -0.84887,0.41961 -0.30868,0.41479 -0.30868,1.15273 v 2.65755 h -1.72669 v -5.40191 h 1.72669 v 0.79099 q 0.39067,-0.47266 0.82958,-0.69453 0.4389,-0.22668 0.96945,-0.22668 0.93568,0 1.418,0.57395 0.48713,0.57395 0.48713,1.6688 z"
           style="font-style:normal;font-variant:normal;font-weight:bold;font-stretch:normal;font-family:sans-serif;-inkscape-font-specification:'sans-serif Bold';stroke-width:0.26458332"
           id="path4677" />
        <path
           d="m 140.08829,209.58885 q -0.22668,-0.10611 -0.45337,-0.15434 -0.22187,-0.0531 -0.44855,-0.0531 -0.6656,0 -1.02733,0.42926 -0.35691,0.42444 -0.35691,1.22025 v 2.48874 h -1.72668 v -5.40191 h 1.72668 v 0.88746 q 0.33279,-0.53055 0.76205,-0.77171 0.43408,-0.24597 1.03698,-0.24597 0.0868,0 0.1881,0.01 0.10128,0.005 0.29421,0.0289 z"
           style="font-style:normal;font-variant:normal;font-weight:bold;font-stretch:normal;font-family:sans-serif;-inkscape-font-specification:'sans-serif Bold';stroke-width:0.26458332"
           id="path4679" />
        <path
           d="m 140.95646,208.11779 h 1.72668 v 5.40191 h -1.72668 z m 0,-2.10289 h 1.72668 v 1.40836 h -1.72668 z"
           style="font-style:normal;font-variant:normal;font-weight:bold;font-stretch:normal;font-family:sans-serif;-inkscape-font-specification:'sans-serif Bold';stroke-width:0.26458332"
           id="path4681" />
        <path
           d="m 148.71688,208.2866 v 1.40835 q -0.35209,-0.24115 -0.709,-0.35691 -0.35209,-0.11575 -0.73312,-0.11575 -0.72347,0 -1.12861,0.42443 -0.40032,0.41962 -0.40032,1.17685 0,0.75723 0.40032,1.18167 0.40514,0.41961 1.12861,0.41961 0.40514,0 0.76688,-0.12058 0.36656,-0.12058 0.67524,-0.35691 v 1.41318 q -0.40514,0.14951 -0.82476,0.22186 -0.41479,0.0772 -0.8344,0.0772 -1.46141,0 -2.28616,-0.74759 -0.82476,-0.7524 -0.82476,-2.08841 0,-1.33601 0.82476,-2.0836 0.82475,-0.7524 2.28616,-0.7524 0.42444,0 0.8344,0.0772 0.41479,0.0723 0.82476,0.22186 z"
           style="font-style:normal;font-variant:normal;font-weight:bold;font-stretch:normal;font-family:sans-serif;-inkscape-font-specification:'sans-serif Bold';stroke-width:0.26458332"
           id="path4683" />
        <path
           d="m 155.64772,210.23032 v 3.28938 h -1.73633 v -0.53537 -1.97266 q 0,-0.709 -0.0338,-0.97427 -0.0289,-0.26528 -0.10611,-0.39068 -0.10128,-0.16881 -0.27492,-0.26045 -0.17363,-0.0965 -0.39549,-0.0965 -0.5402,0 -0.84888,0.41961 -0.30868,0.41479 -0.30868,1.15273 v 2.65755 h -1.72668 v -7.5048 h 1.72668 v 2.89388 q 0.39068,-0.47266 0.82958,-0.69453 0.43891,-0.22668 0.96945,-0.22668 0.93569,0 1.418,0.57395 0.48714,0.57395 0.48714,1.6688 z"
           style="font-style:normal;font-variant:normal;font-weight:bold;font-stretch:normal;font-family:sans-serif;-inkscape-font-specification:'sans-serif Bold';stroke-width:0.26458332"
           id="path4685" />
        <path
           d="m 159.14449,206.58403 v 1.53376 h 1.77973 v 1.23472 h -1.77973 v 2.29099 q 0,0.3762 0.14952,0.51125 0.14951,0.13023 0.59324,0.13023 h 0.88746 v 1.23472 h -1.4807 q -1.02251,0 -1.45177,-0.42444 -0.42443,-0.42926 -0.42443,-1.45176 v -2.29099 h -0.85852 v -1.23472 h 0.85852 v -1.53376 z"
           style="font-style:normal;font-variant:normal;font-weight:bold;font-stretch:normal;font-family:sans-serif;-inkscape-font-specification:'sans-serif Bold';stroke-width:0.26458332"
           id="path4687" />
        <path
           d="m 161.92745,211.41681 v -3.29902 h 1.73633 v 0.54019 q 0,0.43891 -0.005,1.1045 -0.005,0.66077 -0.005,0.88263 0,0.65112 0.0338,0.94051 0.0338,0.28457 0.11576,0.41479 0.10611,0.16881 0.27492,0.26045 0.17363,0.0916 0.39549,0.0916 0.5402,0 0.84888,-0.41479 0.30868,-0.41479 0.30868,-1.15273 v -2.66719 h 1.72668 v 5.40191 h -1.72668 v -0.78135 q -0.39068,0.47267 -0.82958,0.69936 -0.43408,0.22186 -0.95981,0.22186 -0.93568,0 -1.42764,-0.57395 -0.48714,-0.57396 -0.48714,-1.66881 z"
           style="font-style:normal;font-variant:normal;font-weight:bold;font-stretch:normal;font-family:sans-serif;-inkscape-font-specification:'sans-serif Bold';stroke-width:0.26458332"
           id="path4689" />
        <path
           d="m 174.45794,210.23032 v 3.28938 h -1.73633 v -0.53537 -1.98231 q 0,-0.69935 -0.0338,-0.96462 -0.0289,-0.26528 -0.10611,-0.39068 -0.10129,-0.16881 -0.27492,-0.26045 -0.17363,-0.0965 -0.3955,-0.0965 -0.54019,0 -0.84887,0.41961 -0.30868,0.41479 -0.30868,1.15273 v 2.65755 h -1.72668 v -5.40191 h 1.72668 v 0.79099 q 0.39068,-0.47266 0.82958,-0.69453 0.43891,-0.22668 0.96945,-0.22668 0.93569,0 1.418,0.57395 0.48714,0.57395 0.48714,1.6688 z"
           style="font-style:normal;font-variant:normal;font-weight:bold;font-stretch:normal;font-family:sans-serif;-inkscape-font-specification:'sans-serif Bold';stroke-width:0.26458332"
           id="path4691" />
        <path
           d="m 179.7441,212.6033 q -0.35692,0.47267 -0.78617,0.69453 -0.42926,0.22187 -0.99357,0.22187 -0.98874,0 -1.63504,-0.77653 -0.6463,-0.78134 -0.6463,-1.98713 0,-1.2106 0.6463,-1.9823 0.6463,-0.77653 1.63504,-0.77653 0.56431,0 0.99357,0.22187 0.42925,0.22186 0.78617,0.69935 v -0.80064 h 1.73632 v 4.8569 q 0,1.30224 -0.82475,1.98713 -0.81993,0.6897 -2.38263,0.6897 -0.50643,0 -0.97909,-0.0772 -0.47267,-0.0772 -0.95016,-0.23633 v -1.34565 q 0.45337,0.26045 0.88745,0.38585 0.43409,0.13022 0.87299,0.13022 0.84887,0 1.24437,-0.37138 0.3955,-0.37138 0.3955,-1.16237 z m -1.13826,-3.36172 q -0.53537,0 -0.8344,0.3955 -0.29904,0.39549 -0.29904,1.11896 0,0.74277 0.28939,1.12862 0.28939,0.38102 0.84405,0.38102 0.54019,0 0.83922,-0.39549 0.29904,-0.3955 0.29904,-1.11415 0,-0.72347 -0.29904,-1.11896 -0.29903,-0.3955 -0.83922,-0.3955 z"
           style="font-style:normal;font-variant:normal;font-weight:bold;font-stretch:normal;font-family:sans-serif;-inkscape-font-specification:'sans-serif Bold';stroke-width:0.26458332"
           id="path4693" />
      </g>
      <g
         aria-label="Blockieren, verstellen, o.ä.
strengstens verboten!"
         style="font-style:italic;font-variant:normal;font-weight:normal;font-stretch:normal;font-size:9.8777771px;line-height:1.25;font-family:'Latin Modern Roman';-inkscape-font-specification:'Latin Modern Roman, Italic';letter-spacing:0px;word-spacing:0px;fill:#000000;fill-opacity:1;stroke:none;stroke-width:0.26458332"
         id="text1747">
        <path
           d="m 41.264698,228.09448 v 2.63825 h 1.562695 q 0.786171,0 1.162375,-0.32315 0.381028,-0.32797 0.381028,-0.99839 0,-0.67524 -0.381028,-0.99356 -0.376204,-0.32315 -1.162375,-0.32315 z m 0,-2.96141 v 2.17041 h 1.442117 q 0.713823,0 1.061089,-0.26527 0.352089,-0.27009 0.352089,-0.81993 0,-0.54502 -0.352089,-0.81511 -0.347266,-0.2701 -1.061089,-0.2701 z m -0.974273,-0.80064 h 2.488737 q 1.114143,0 1.717035,0.46302 0.602892,0.46302 0.602892,1.31672 0,0.66077 -0.308681,1.05144 -0.30868,0.39068 -0.906749,0.48714 0.718647,0.15434 1.114144,0.6463 0.40032,0.48713 0.40032,1.22025 0,0.96463 -0.655946,1.49035 -0.655946,0.52572 -1.866553,0.52572 h -2.585199 z"
           style="font-style:normal;font-variant:normal;font-weight:normal;font-stretch:normal;font-family:sans-serif;-inkscape-font-specification:sans-serif;text-align:center;text-anchor:middle;stroke-width:0.26458332"
           id="path4552" />
        <path
           d="m 47.023519,224.02858 h 0.887457 v 7.50479 h -0.887457 z"
           style="font-style:normal;font-variant:normal;font-weight:normal;font-stretch:normal;font-family:sans-serif;-inkscape-font-specification:sans-serif;text-align:center;text-anchor:middle;stroke-width:0.26458332"
           id="path4554" />
        <path
           d="m 51.856299,226.75365 q -0.713824,0 -1.128614,0.55948 -0.414789,0.55466 -0.414789,1.52411 0,0.96945 0.409966,1.52893 0.41479,0.55466 1.133437,0.55466 0.709,0 1.12379,-0.55948 0.414789,-0.55948 0.414789,-1.52411 0,-0.9598 -0.414789,-1.51929 -0.41479,-0.5643 -1.12379,-0.5643 z m 0,-0.75241 q 1.157552,0 1.818321,0.75241 0.660769,0.7524 0.660769,2.08359 0,1.32636 -0.660769,2.08359 -0.660769,0.75241 -1.818321,0.75241 -1.162375,0 -1.823145,-0.75241 -0.655946,-0.75723 -0.655946,-2.08359 0,-1.33119 0.655946,-2.08359 0.66077,-0.75241 1.823145,-0.75241 z"
           style="font-style:normal;font-variant:normal;font-weight:normal;font-stretch:normal;font-family:sans-serif;-inkscape-font-specification:sans-serif;text-align:center;text-anchor:middle;stroke-width:0.26458332"
           id="path4556" />
        <path
           d="m 59.689067,226.33886 v 0.82958 q -0.376204,-0.2074 -0.757232,-0.30869 -0.376204,-0.1061 -0.762055,-0.1061 -0.863341,0 -1.340831,0.54983 -0.47749,0.54502 -0.47749,1.53376 0,0.98874 0.47749,1.53858 0.47749,0.54501 1.340831,0.54501 0.385851,0 0.762055,-0.10128 0.381028,-0.10611 0.757232,-0.31351 v 0.81994 q -0.371381,0.17363 -0.771701,0.26045 -0.395497,0.0868 -0.844049,0.0868 -1.220252,0 -1.938899,-0.76688 -0.718647,-0.76687 -0.718647,-2.06912 0,-1.32154 0.72347,-2.07877 0.728293,-0.75723 1.991954,-0.75723 0.409966,0 0.80064,0.0868 0.390674,0.082 0.757232,0.25081 z"
           style="font-style:normal;font-variant:normal;font-weight:normal;font-stretch:normal;font-family:sans-serif;-inkscape-font-specification:sans-serif;text-align:center;text-anchor:middle;stroke-width:0.26458332"
           id="path4558" />
        <path
           d="m 61.208354,224.02858 h 0.89228 v 4.43246 l 2.6479,-2.32958 h 1.133436 l -2.864941,2.52732 2.98552,2.87459 h -1.157552 l -2.744363,-2.63825 v 2.63825 h -0.89228 z"
           style="font-style:normal;font-variant:normal;font-weight:normal;font-stretch:normal;font-family:sans-serif;-inkscape-font-specification:sans-serif;text-align:center;text-anchor:middle;stroke-width:0.26458332"
           id="path4560" />
        <path
           d="m 66.971997,226.13146 h 0.887457 v 5.40191 h -0.887457 z m 0,-2.10288 h 0.887457 v 1.12379 h -0.887457 z"
           style="font-style:normal;font-variant:normal;font-weight:normal;font-stretch:normal;font-family:sans-serif;-inkscape-font-specification:sans-serif;text-align:center;text-anchor:middle;stroke-width:0.26458332"
           id="path4562" />
        <path
           d="m 74.332099,228.61055 v 0.43408 h -4.080371 q 0.05788,0.9164 0.549838,1.39871 0.496782,0.47749 1.379416,0.47749 0.511252,0 0.988742,-0.1254 0.482313,-0.1254 0.95498,-0.3762 v 0.83922 q -0.47749,0.20257 -0.979096,0.30868 -0.501605,0.10611 -1.017681,0.10611 -1.292599,0 -2.049831,-0.75241 -0.752409,-0.75241 -0.752409,-2.03536 0,-1.32636 0.713824,-2.10289 0.718646,-0.78134 1.934076,-0.78134 1.090028,0 1.721859,0.70417 0.636653,0.69936 0.636653,1.90514 z m -0.887456,-0.26045 q -0.0096,-0.72829 -0.409967,-1.16237 -0.395497,-0.43408 -1.051443,-0.43408 -0.742762,0 -1.191314,0.41961 -0.443728,0.41961 -0.511252,1.18167 z"
           style="font-style:normal;font-variant:normal;font-weight:normal;font-stretch:normal;font-family:sans-serif;-inkscape-font-specification:sans-serif;text-align:center;text-anchor:middle;stroke-width:0.26458332"
           id="path4564" />
        <path
           d="m 78.918899,226.96104 q -0.149517,-0.0868 -0.327973,-0.1254 -0.173632,-0.0434 -0.38585,-0.0434 -0.752409,0 -1.157552,0.49196 -0.40032,0.48714 -0.40032,1.40353 v 2.84565 h -0.89228 v -5.40191 h 0.89228 v 0.83923 q 0.279741,-0.49196 0.728293,-0.7283 0.448551,-0.24115 1.090028,-0.24115 0.09164,0 0.202572,0.0145 0.110932,0.01 0.245979,0.0338 z"
           style="font-style:normal;font-variant:normal;font-weight:normal;font-stretch:normal;font-family:sans-serif;-inkscape-font-specification:sans-serif;text-align:center;text-anchor:middle;stroke-width:0.26458332"
           id="path4566" />
        <path
           d="m 84.255698,228.61055 v 0.43408 h -4.08037 q 0.05788,0.9164 0.549837,1.39871 0.496783,0.47749 1.379416,0.47749 0.511252,0 0.988742,-0.1254 0.482314,-0.1254 0.954981,-0.3762 v 0.83922 q -0.47749,0.20257 -0.979096,0.30868 -0.501606,0.10611 -1.017681,0.10611 -1.2926,0 -2.049832,-0.75241 -0.752409,-0.75241 -0.752409,-2.03536 0,-1.32636 0.713824,-2.10289 0.718647,-0.78134 1.934076,-0.78134 1.090028,0 1.721859,0.70417 0.636653,0.69936 0.636653,1.90514 z m -0.887456,-0.26045 q -0.0096,-0.72829 -0.409966,-1.16237 -0.395497,-0.43408 -1.051443,-0.43408 -0.742763,0 -1.191314,0.41961 -0.443729,0.41961 -0.511253,1.18167 z"
           style="font-style:normal;font-variant:normal;font-weight:normal;font-stretch:normal;font-family:sans-serif;-inkscape-font-specification:sans-serif;text-align:center;text-anchor:middle;stroke-width:0.26458332"
           id="path4568" />
        <path
           d="m 90.195386,228.27293 v 3.26044 h -0.887457 v -3.2315 q 0,-0.76688 -0.299034,-1.1479 -0.299034,-0.38103 -0.897103,-0.38103 -0.718647,0 -1.133436,0.4582 -0.41479,0.45819 -0.41479,1.24919 v 3.05304 h -0.892279 v -5.40191 h 0.892279 v 0.83923 q 0.318327,-0.48714 0.747586,-0.7283 0.434082,-0.24115 0.998389,-0.24115 0.930864,0 1.408355,0.57877 0.47749,0.57396 0.47749,1.69292 z"
           style="font-style:normal;font-variant:normal;font-weight:normal;font-stretch:normal;font-family:sans-serif;-inkscape-font-specification:sans-serif;text-align:center;text-anchor:middle;stroke-width:0.26458332"
           id="path4570" />
        <path
           d="m 92.201809,230.3083 h 1.017681 v 0.82957 l -0.790994,1.54341 h -0.622184 l 0.395497,-1.54341 z"
           style="font-style:normal;font-variant:normal;font-weight:normal;font-stretch:normal;font-family:sans-serif;-inkscape-font-specification:sans-serif;text-align:center;text-anchor:middle;stroke-width:0.26458332"
           id="path4572" />
        <path
           d="m 97.627836,226.13146 h 0.940511 l 1.688093,4.53375 1.6881,-4.53375 h 0.94051 l -2.02571,5.40191 h -1.205788 z"
           style="font-style:normal;font-variant:normal;font-weight:normal;font-stretch:normal;font-family:sans-serif;-inkscape-font-specification:sans-serif;text-align:center;text-anchor:middle;stroke-width:0.26458332"
           id="path4574" />
        <path
           d="m 108.73069,228.61055 v 0.43408 h -4.08038 q 0.0579,0.9164 0.54984,1.39871 0.49678,0.47749 1.37942,0.47749 0.51125,0 0.98874,-0.1254 0.48231,-0.1254 0.95498,-0.3762 v 0.83922 q -0.47749,0.20257 -0.9791,0.30868 -0.5016,0.10611 -1.01768,0.10611 -1.2926,0 -2.04983,-0.75241 -0.75241,-0.75241 -0.75241,-2.03536 0,-1.32636 0.71383,-2.10289 0.71864,-0.78134 1.93407,-0.78134 1.09003,0 1.72186,0.70417 0.63666,0.69936 0.63666,1.90514 z m -0.88746,-0.26045 q -0.01,-0.72829 -0.40997,-1.16237 -0.39549,-0.43408 -1.05144,-0.43408 -0.74276,0 -1.19131,0.41961 -0.44373,0.41961 -0.51126,1.18167 z"
           style="font-style:normal;font-variant:normal;font-weight:normal;font-stretch:normal;font-family:sans-serif;-inkscape-font-specification:sans-serif;text-align:center;text-anchor:middle;stroke-width:0.26458332"
           id="path4576" />
        <path
           d="m 113.31749,226.96104 q -0.14952,-0.0868 -0.32798,-0.1254 -0.17363,-0.0434 -0.38585,-0.0434 -0.75241,0 -1.15755,0.49196 -0.40032,0.48714 -0.40032,1.40353 v 2.84565 h -0.89228 v -5.40191 h 0.89228 v 0.83923 q 0.27974,-0.49196 0.72829,-0.7283 0.44855,-0.24115 1.09003,-0.24115 0.0916,0 0.20257,0.0145 0.11093,0.01 0.24598,0.0338 z"
           style="font-style:normal;font-variant:normal;font-weight:normal;font-stretch:normal;font-family:sans-serif;-inkscape-font-specification:sans-serif;text-align:center;text-anchor:middle;stroke-width:0.26458332"
           id="path4578" />
        <path
           d="m 117.70171,226.29063 v 0.83922 q -0.3762,-0.19293 -0.78134,-0.28939 -0.40515,-0.0965 -0.83923,-0.0965 -0.66077,0 -0.99356,0.20257 -0.32798,0.20257 -0.32798,0.60772 0,0.30868 0.23634,0.48713 0.23633,0.17364 0.95015,0.3328 l 0.30386,0.0675 q 0.94533,0.20257 1.34083,0.57396 0.40032,0.36655 0.40032,1.02732 0,0.75241 -0.59807,1.19132 -0.59324,0.4389 -1.63504,0.4389 -0.43408,0 -0.90675,-0.0868 -0.46784,-0.082 -0.98874,-0.25081 v -0.91639 q 0.49196,0.25562 0.96945,0.38585 0.47749,0.1254 0.94533,0.1254 0.62701,0 0.96463,-0.21222 0.33762,-0.21704 0.33762,-0.60771 0,-0.36174 -0.24598,-0.55466 -0.24116,-0.19293 -1.06591,-0.37138 l -0.30868,-0.0724 q -0.82476,-0.17363 -1.19132,-0.53055 -0.36656,-0.36173 -0.36656,-0.98874 0,-0.76205 0.5402,-1.17684 0.54019,-0.41479 1.53375,-0.41479 0.49196,0 0.92604,0.0723 0.43409,0.0724 0.80064,0.21705 z"
           style="font-style:normal;font-variant:normal;font-weight:normal;font-stretch:normal;font-family:sans-serif;-inkscape-font-specification:sans-serif;text-align:center;text-anchor:middle;stroke-width:0.26458332"
           id="path4580" />
        <path
           d="m 120.28691,224.59771 v 1.53375 h 1.82797 v 0.68971 h -1.82797 v 2.93246 q 0,0.66077 0.17846,0.84888 0.18328,0.1881 0.73794,0.1881 h 0.91157 v 0.74276 h -0.91157 q -1.02733,0 -1.418,-0.38103 -0.39067,-0.38585 -0.39067,-1.39871 v -2.93246 h -0.65113 v -0.68971 h 0.65113 v -1.53375 z"
           style="font-style:normal;font-variant:normal;font-weight:normal;font-stretch:normal;font-family:sans-serif;-inkscape-font-specification:sans-serif;text-align:center;text-anchor:middle;stroke-width:0.26458332"
           id="path4582" />
        <path
           d="m 127.90747,228.61055 v 0.43408 h -4.08037 q 0.0579,0.9164 0.54983,1.39871 0.49679,0.47749 1.37942,0.47749 0.51125,0 0.98874,-0.1254 0.48231,-0.1254 0.95498,-0.3762 v 0.83922 q -0.47749,0.20257 -0.97909,0.30868 -0.50161,0.10611 -1.01769,0.10611 -1.2926,0 -2.04983,-0.75241 -0.75241,-0.75241 -0.75241,-2.03536 0,-1.32636 0.71383,-2.10289 0.71864,-0.78134 1.93407,-0.78134 1.09003,0 1.72186,0.70417 0.63666,0.69936 0.63666,1.90514 z m -0.88746,-0.26045 q -0.01,-0.72829 -0.40997,-1.16237 -0.39549,-0.43408 -1.05144,-0.43408 -0.74276,0 -1.19131,0.41961 -0.44373,0.41961 -0.51126,1.18167 z"
           style="font-style:normal;font-variant:normal;font-weight:normal;font-stretch:normal;font-family:sans-serif;-inkscape-font-specification:sans-serif;text-align:center;text-anchor:middle;stroke-width:0.26458332"
           id="path4584" />
        <path
           d="m 129.36405,224.02858 h 0.88746 v 7.50479 h -0.88746 z"
           style="font-style:normal;font-variant:normal;font-weight:normal;font-stretch:normal;font-family:sans-serif;-inkscape-font-specification:sans-serif;text-align:center;text-anchor:middle;stroke-width:0.26458332"
           id="path4586" />
        <path
           d="m 132.10359,224.02858 h 0.88746 v 7.50479 h -0.88746 z"
           style="font-style:normal;font-variant:normal;font-weight:normal;font-stretch:normal;font-family:sans-serif;-inkscape-font-specification:sans-serif;text-align:center;text-anchor:middle;stroke-width:0.26458332"
           id="path4588" />
        <path
           d="m 139.46369,228.61055 v 0.43408 h -4.08037 q 0.0579,0.9164 0.54984,1.39871 0.49678,0.47749 1.37942,0.47749 0.51125,0 0.98874,-0.1254 0.48231,-0.1254 0.95498,-0.3762 v 0.83922 q -0.47749,0.20257 -0.9791,0.30868 -0.5016,0.10611 -1.01768,0.10611 -1.2926,0 -2.04983,-0.75241 -0.75241,-0.75241 -0.75241,-2.03536 0,-1.32636 0.71383,-2.10289 0.71864,-0.78134 1.93407,-0.78134 1.09003,0 1.72186,0.70417 0.63665,0.69936 0.63665,1.90514 z m -0.88745,-0.26045 q -0.01,-0.72829 -0.40997,-1.16237 -0.39549,-0.43408 -1.05144,-0.43408 -0.74276,0 -1.19132,0.41961 -0.44372,0.41961 -0.51125,1.18167 z"
           style="font-style:normal;font-variant:normal;font-weight:normal;font-stretch:normal;font-family:sans-serif;-inkscape-font-specification:sans-serif;text-align:center;text-anchor:middle;stroke-width:0.26458332"
           id="path4590" />
        <path
           d="m 145.41062,228.27293 v 3.26044 h -0.88746 v -3.2315 q 0,-0.76688 -0.29903,-1.1479 -0.29904,-0.38103 -0.8971,-0.38103 -0.71865,0 -1.13344,0.4582 -0.41479,0.45819 -0.41479,1.24919 v 3.05304 h -0.89228 v -5.40191 h 0.89228 v 0.83923 q 0.31833,-0.48714 0.74758,-0.7283 0.43409,-0.24115 0.99839,-0.24115 0.93087,0 1.40836,0.57877 0.47749,0.57396 0.47749,1.69292 z"
           style="font-style:normal;font-variant:normal;font-weight:normal;font-stretch:normal;font-family:sans-serif;-inkscape-font-specification:sans-serif;text-align:center;text-anchor:middle;stroke-width:0.26458332"
           id="path4592" />
        <path
           d="m 147.41704,230.3083 h 1.01768 v 0.82957 l -0.79099,1.54341 h -0.62219 l 0.3955,-1.54341 z"
           style="font-style:normal;font-variant:normal;font-weight:normal;font-stretch:normal;font-family:sans-serif;-inkscape-font-specification:sans-serif;text-align:center;text-anchor:middle;stroke-width:0.26458332"
           id="path4594" />
        <path
           d="m 155.57295,226.75365 q -0.71382,0 -1.12861,0.55948 -0.41479,0.55466 -0.41479,1.52411 0,0.96945 0.40997,1.52893 0.41479,0.55466 1.13343,0.55466 0.709,0 1.12379,-0.55948 0.41479,-0.55948 0.41479,-1.52411 0,-0.9598 -0.41479,-1.51929 -0.41479,-0.5643 -1.12379,-0.5643 z m 0,-0.75241 q 1.15756,0 1.81833,0.75241 0.66076,0.7524 0.66076,2.08359 0,1.32636 -0.66076,2.08359 -0.66077,0.75241 -1.81833,0.75241 -1.16237,0 -1.82314,-0.75241 -0.65595,-0.75723 -0.65595,-2.08359 0,-1.33119 0.65595,-2.08359 0.66077,-0.75241 1.82314,-0.75241 z"
           style="font-style:normal;font-variant:normal;font-weight:normal;font-stretch:normal;font-family:sans-serif;-inkscape-font-specification:sans-serif;text-align:center;text-anchor:middle;stroke-width:0.26458332"
           id="path4596" />
        <path
           d="m 159.4797,230.3083 h 1.01768 v 1.22507 h -1.01768 z"
           style="font-style:normal;font-variant:normal;font-weight:normal;font-stretch:normal;font-family:sans-serif;-inkscape-font-specification:sans-serif;text-align:center;text-anchor:middle;stroke-width:0.26458332"
           id="path4598" />
        <path
           d="m 164.9636,228.81795 q -1.07556,0 -1.49035,0.24598 -0.41479,0.24598 -0.41479,0.83922 0,0.47267 0.30868,0.75241 0.3135,0.27492 0.84887,0.27492 0.73794,0 1.18167,-0.5209 0.44855,-0.52572 0.44855,-1.39388 v -0.19775 z m 1.77009,-0.36656 v 3.08198 h -0.88746 v -0.81993 q -0.30386,0.49196 -0.75723,0.72829 -0.45338,0.23151 -1.10932,0.23151 -0.82958,0 -1.32154,-0.46302 -0.48714,-0.46784 -0.48714,-1.24919 0,-0.91157 0.60772,-1.37459 0.61254,-0.46302 1.82314,-0.46302 h 1.24437 v -0.0868 q 0,-0.61254 -0.40514,-0.94533 -0.40032,-0.33762 -1.12862,-0.33762 -0.46302,0 -0.90192,0.11093 -0.43891,0.11093 -0.84405,0.33279 v -0.81993 q 0.48714,-0.1881 0.94533,-0.27974 0.4582,-0.0965 0.89228,-0.0965 1.17203,0 1.7508,0.60771 0.57878,0.60772 0.57878,1.84244 z m -1.83762,-4.40352 h 0.9791 v 0.97427 h -0.9791 z m -1.88584,0 h 0.97909 v 0.97427 h -0.97909 z"
           style="font-style:normal;font-variant:normal;font-weight:normal;font-stretch:normal;font-family:sans-serif;-inkscape-font-specification:sans-serif;text-align:center;text-anchor:middle;stroke-width:0.26458332"
           id="path4600" />
        <path
           d="m 168.69188,230.3083 h 1.01768 v 1.22507 h -1.01768 z"
           style="font-style:normal;font-variant:normal;font-weight:normal;font-stretch:normal;font-family:sans-serif;-inkscape-font-specification:sans-serif;text-align:center;text-anchor:middle;stroke-width:0.26458332"
           id="path4602" />
        <path
           d="m 54.605485,238.63785 v 0.83922 q -0.376205,-0.19292 -0.781348,-0.28939 -0.405143,-0.0965 -0.839225,-0.0965 -0.660769,0 -0.993566,0.20257 -0.327973,0.20257 -0.327973,0.60772 0,0.30868 0.236334,0.48713 0.236333,0.17364 0.950157,0.3328 l 0.303857,0.0675 q 0.945335,0.20258 1.340832,0.57396 0.40032,0.36655 0.40032,1.02732 0,0.75241 -0.598069,1.19132 -0.593245,0.4389 -1.635042,0.4389 -0.434082,0 -0.906749,-0.0868 -0.467844,-0.082 -0.988743,-0.25081 v -0.91639 q 0.49196,0.25562 0.96945,0.38585 0.47749,0.1254 0.945334,0.1254 0.627008,0 0.964627,-0.21222 0.337619,-0.21704 0.337619,-0.60771 0,-0.36174 -0.245979,-0.55466 -0.241157,-0.19293 -1.065913,-0.37138 l -0.30868,-0.0724 q -0.824756,-0.17363 -1.191314,-0.53055 -0.366558,-0.36173 -0.366558,-0.98874 0,-0.76205 0.54019,-1.17684 0.540191,-0.41479 1.533757,-0.41479 0.491959,0 0.926041,0.0724 0.434082,0.0723 0.800641,0.21704 z"
           style="font-style:normal;font-variant:normal;font-weight:normal;font-stretch:normal;font-family:sans-serif;-inkscape-font-specification:sans-serif;text-align:center;text-anchor:middle;stroke-width:0.26458332"
           id="path4604" />
        <path
           d="m 57.190684,236.94493 v 1.53375 h 1.827968 v 0.68971 h -1.827968 v 2.93247 q 0,0.66077 0.178456,0.84887 0.183279,0.1881 0.737939,0.1881 h 0.911573 v 0.74276 h -0.911573 q -1.027327,0 -1.418001,-0.38103 -0.390674,-0.38585 -0.390674,-1.3987 v -2.93247 h -0.651123 v -0.68971 h 0.651123 v -1.53375 z"
           style="font-style:normal;font-variant:normal;font-weight:normal;font-stretch:normal;font-family:sans-serif;-inkscape-font-specification:sans-serif;text-align:center;text-anchor:middle;stroke-width:0.26458332"
           id="path4606" />
        <path
           d="m 63.320887,239.30826 q -0.149517,-0.0868 -0.327973,-0.1254 -0.173633,-0.0434 -0.385851,-0.0434 -0.752409,0 -1.157552,0.49196 -0.40032,0.48714 -0.40032,1.40353 v 2.84565 h -0.89228 v -5.40191 h 0.89228 v 0.83923 q 0.279742,-0.49196 0.728293,-0.72829 0.448552,-0.24116 1.090028,-0.24116 0.09164,0 0.202572,0.0145 0.110932,0.01 0.24598,0.0338 z"
           style="font-style:normal;font-variant:normal;font-weight:normal;font-stretch:normal;font-family:sans-serif;-inkscape-font-specification:sans-serif;text-align:center;text-anchor:middle;stroke-width:0.26458332"
           id="path4608" />
        <path
           d="m 68.657684,240.95777 v 0.43409 h -4.080371 q 0.05788,0.91639 0.549837,1.3987 0.496783,0.47749 1.379416,0.47749 0.511253,0 0.988743,-0.1254 0.482313,-0.1254 0.95498,-0.3762 v 0.83922 q -0.47749,0.20258 -0.979096,0.30868 -0.501606,0.10611 -1.017681,0.10611 -1.2926,0 -2.049832,-0.75241 -0.752409,-0.7524 -0.752409,-2.03536 0,-1.32636 0.713824,-2.10288 0.718647,-0.78135 1.934077,-0.78135 1.090028,0 1.721858,0.70418 0.636654,0.69935 0.636654,1.90513 z m -0.887457,-0.26045 q -0.0096,-0.72829 -0.409966,-1.16237 -0.395497,-0.43408 -1.051443,-0.43408 -0.742763,0 -1.191314,0.41961 -0.443728,0.41961 -0.511252,1.18167 z"
           style="font-style:normal;font-variant:normal;font-weight:normal;font-stretch:normal;font-family:sans-serif;-inkscape-font-specification:sans-serif;text-align:center;text-anchor:middle;stroke-width:0.26458332"
           id="path4610" />
        <path
           d="m 74.597373,240.62015 v 3.26044 h -0.887456 v -3.2315 q 0,-0.76688 -0.299035,-1.1479 -0.299034,-0.38103 -0.897102,-0.38103 -0.718647,0 -1.133437,0.4582 -0.414789,0.4582 -0.414789,1.24919 v 3.05304 h -0.89228 v -5.40191 h 0.89228 v 0.83923 q 0.318327,-0.48714 0.747585,-0.72829 0.434082,-0.24116 0.998389,-0.24116 0.930865,0 1.408355,0.57877 0.47749,0.57396 0.47749,1.69292 z"
           style="font-style:normal;font-variant:normal;font-weight:normal;font-stretch:normal;font-family:sans-serif;-inkscape-font-specification:sans-serif;text-align:center;text-anchor:middle;stroke-width:0.26458332"
           id="path4612" />
        <path
           d="m 79.931758,241.11694 q 0,-0.96463 -0.40032,-1.49517 -0.395497,-0.53055 -1.114144,-0.53055 -0.713823,0 -1.114143,0.53055 -0.395497,0.53054 -0.395497,1.49517 0,0.9598 0.395497,1.49035 0.40032,0.53054 1.114143,0.53054 0.718647,0 1.114144,-0.53054 0.40032,-0.53055 0.40032,-1.49035 z m 0.887457,2.09324 q 0,1.37941 -0.612538,2.04983 -0.612538,0.67524 -1.876199,0.67524 -0.467844,0 -0.882633,-0.0724 -0.41479,-0.0675 -0.805464,-0.21222 v -0.86334 q 0.390674,0.21222 0.771702,0.31351 0.381027,0.10128 0.776524,0.10128 0.872987,0 1.307069,-0.4582 0.434082,-0.45337 0.434082,-1.37459 v -0.4389 q -0.274918,0.47749 -0.704177,0.71382 -0.429259,0.23633 -1.027328,0.23633 -0.993565,0 -1.60128,-0.75723 -0.607715,-0.75723 -0.607715,-2.00642 0,-1.25402 0.607715,-2.01125 0.607715,-0.75723 1.60128,-0.75723 0.598069,0 1.027328,0.23633 0.429259,0.23634 0.704177,0.71383 v -0.81994 h 0.887457 z"
           style="font-style:normal;font-variant:normal;font-weight:normal;font-stretch:normal;font-family:sans-serif;-inkscape-font-specification:sans-serif;text-align:center;text-anchor:middle;stroke-width:0.26458332"
           id="path4614" />
        <path
           d="m 86.090899,238.63785 v 0.83922 q -0.376204,-0.19292 -0.781348,-0.28939 -0.405143,-0.0965 -0.839225,-0.0965 -0.660769,0 -0.993565,0.20257 -0.327973,0.20257 -0.327973,0.60772 0,0.30868 0.236333,0.48713 0.236334,0.17364 0.950158,0.3328 l 0.303857,0.0675 q 0.945334,0.20258 1.340831,0.57396 0.40032,0.36655 0.40032,1.02732 0,0.75241 -0.598068,1.19132 -0.593246,0.4389 -1.635043,0.4389 -0.434082,0 -0.906749,-0.0868 -0.467844,-0.082 -0.988742,-0.25081 v -0.91639 q 0.49196,0.25562 0.96945,0.38585 0.47749,0.1254 0.945334,0.1254 0.627007,0 0.964627,-0.21222 0.337619,-0.21704 0.337619,-0.60771 0,-0.36174 -0.24598,-0.55466 -0.241157,-0.19293 -1.065912,-0.37138 l -0.308681,-0.0724 q -0.824756,-0.17363 -1.191314,-0.53055 -0.366558,-0.36173 -0.366558,-0.98874 0,-0.76205 0.540191,-1.17684 0.540191,-0.41479 1.533756,-0.41479 0.49196,0 0.926042,0.0724 0.434082,0.0723 0.80064,0.21704 z"
           style="font-style:normal;font-variant:normal;font-weight:normal;font-stretch:normal;font-family:sans-serif;-inkscape-font-specification:sans-serif;text-align:center;text-anchor:middle;stroke-width:0.26458332"
           id="path4616" />
        <path
           d="m 88.676098,236.94493 v 1.53375 h 1.827968 v 0.68971 h -1.827968 v 2.93247 q 0,0.66077 0.178456,0.84887 0.183279,0.1881 0.737939,0.1881 h 0.911573 v 0.74276 h -0.911573 q -1.027327,0 -1.418001,-0.38103 -0.390674,-0.38585 -0.390674,-1.3987 v -2.93247 h -0.651123 v -0.68971 h 0.651123 v -1.53375 z"
           style="font-style:normal;font-variant:normal;font-weight:normal;font-stretch:normal;font-family:sans-serif;-inkscape-font-specification:sans-serif;text-align:center;text-anchor:middle;stroke-width:0.26458332"
           id="path4618" />
        <path
           d="m 96.29665,240.95777 v 0.43409 h -4.080371 q 0.05788,0.91639 0.549837,1.3987 0.496783,0.47749 1.379416,0.47749 0.511252,0 0.988742,-0.1254 0.482314,-0.1254 0.954981,-0.3762 v 0.83922 q -0.47749,0.20258 -0.979096,0.30868 -0.501606,0.10611 -1.017681,0.10611 -1.2926,0 -2.049832,-0.75241 -0.752409,-0.7524 -0.752409,-2.03536 0,-1.32636 0.713824,-2.10288 0.718647,-0.78135 1.934076,-0.78135 1.090028,0 1.721859,0.70418 0.636654,0.69935 0.636654,1.90513 z m -0.887457,-0.26045 q -0.0096,-0.72829 -0.409966,-1.16237 -0.395497,-0.43408 -1.051443,-0.43408 -0.742763,0 -1.191314,0.41961 -0.443729,0.41961 -0.511253,1.18167 z"
           style="font-style:normal;font-variant:normal;font-weight:normal;font-stretch:normal;font-family:sans-serif;-inkscape-font-specification:sans-serif;text-align:center;text-anchor:middle;stroke-width:0.26458332"
           id="path4620" />
        <path
           d="m 102.24357,240.62015 v 3.26044 h -0.88745 v -3.2315 q 0,-0.76688 -0.29904,-1.1479 -0.29903,-0.38103 -0.8971,-0.38103 -0.718647,0 -1.133437,0.4582 -0.414789,0.4582 -0.414789,1.24919 v 3.05304 h -0.89228 v -5.40191 h 0.89228 v 0.83923 q 0.318327,-0.48714 0.747586,-0.72829 0.434082,-0.24116 0.99839,-0.24116 0.93086,0 1.40835,0.57877 0.47749,0.57396 0.47749,1.69292 z"
           style="font-style:normal;font-variant:normal;font-weight:normal;font-stretch:normal;font-family:sans-serif;-inkscape-font-specification:sans-serif;text-align:center;text-anchor:middle;stroke-width:0.26458332"
           id="path4622" />
        <path
           d="m 107.46703,238.63785 v 0.83922 q -0.37621,-0.19292 -0.78135,-0.28939 -0.40514,-0.0965 -0.83923,-0.0965 -0.66077,0 -0.99356,0.20257 -0.32798,0.20257 -0.32798,0.60772 0,0.30868 0.23634,0.48713 0.23633,0.17364 0.95016,0.3328 l 0.30385,0.0675 q 0.94534,0.20258 1.34083,0.57396 0.40032,0.36655 0.40032,1.02732 0,0.75241 -0.59806,1.19132 -0.59325,0.4389 -1.63505,0.4389 -0.43408,0 -0.90675,-0.0868 -0.46784,-0.082 -0.98874,-0.25081 v -0.91639 q 0.49196,0.25562 0.96945,0.38585 0.47749,0.1254 0.94534,0.1254 0.627,0 0.96462,-0.21222 0.33762,-0.21704 0.33762,-0.60771 0,-0.36174 -0.24598,-0.55466 -0.24115,-0.19293 -1.06591,-0.37138 l -0.30868,-0.0724 q -0.82476,-0.17363 -1.19131,-0.53055 -0.36656,-0.36173 -0.36656,-0.98874 0,-0.76205 0.54019,-1.17684 0.54019,-0.41479 1.53375,-0.41479 0.49196,0 0.92605,0.0724 0.43408,0.0723 0.80064,0.21704 z"
           style="font-style:normal;font-variant:normal;font-weight:normal;font-stretch:normal;font-family:sans-serif;-inkscape-font-specification:sans-serif;text-align:center;text-anchor:middle;stroke-width:0.26458332"
           id="path4624" />
        <path
           d="m 111.68244,238.47868 h 0.94051 l 1.6881,4.53375 1.6881,-4.53375 h 0.94051 l -2.02572,5.40191 h -1.20578 z"
           style="font-style:normal;font-variant:normal;font-weight:normal;font-stretch:normal;font-family:sans-serif;-inkscape-font-specification:sans-serif;text-align:center;text-anchor:middle;stroke-width:0.26458332"
           id="path4626" />
        <path
           d="m 122.7853,240.95777 v 0.43409 h -4.08037 q 0.0579,0.91639 0.54983,1.3987 0.49679,0.47749 1.37942,0.47749 0.51125,0 0.98874,-0.1254 0.48232,-0.1254 0.95498,-0.3762 v 0.83922 q -0.47749,0.20258 -0.97909,0.30868 -0.50161,0.10611 -1.01768,0.10611 -1.2926,0 -2.04984,-0.75241 -0.75241,-0.7524 -0.75241,-2.03536 0,-1.32636 0.71383,-2.10288 0.71865,-0.78135 1.93407,-0.78135 1.09003,0 1.72186,0.70418 0.63666,0.69935 0.63666,1.90513 z m -0.88746,-0.26045 q -0.01,-0.72829 -0.40997,-1.16237 -0.39549,-0.43408 -1.05144,-0.43408 -0.74276,0 -1.19131,0.41961 -0.44373,0.41961 -0.51126,1.18167 z"
           style="font-style:normal;font-variant:normal;font-weight:normal;font-stretch:normal;font-family:sans-serif;-inkscape-font-specification:sans-serif;text-align:center;text-anchor:middle;stroke-width:0.26458332"
           id="path4628" />
        <path
           d="m 127.3721,239.30826 q -0.14952,-0.0868 -0.32798,-0.1254 -0.17363,-0.0434 -0.38585,-0.0434 -0.75241,0 -1.15755,0.49196 -0.40032,0.48714 -0.40032,1.40353 v 2.84565 h -0.89228 v -5.40191 h 0.89228 v 0.83923 q 0.27974,-0.49196 0.72829,-0.72829 0.44856,-0.24116 1.09003,-0.24116 0.0916,0 0.20257,0.0145 0.11094,0.01 0.24598,0.0338 z"
           style="font-style:normal;font-variant:normal;font-weight:normal;font-stretch:normal;font-family:sans-serif;-inkscape-font-specification:sans-serif;text-align:center;text-anchor:middle;stroke-width:0.26458332"
           id="path4630" />
        <path
           d="m 132.19041,241.18446 q 0,-0.9791 -0.40515,-1.53376 -0.40032,-0.55948 -1.10449,-0.55948 -0.70418,0 -1.10932,0.55948 -0.40032,0.55466 -0.40032,1.53376 0,0.9791 0.40032,1.53858 0.40514,0.55466 1.10932,0.55466 0.70417,0 1.10449,-0.55466 0.40515,-0.55948 0.40515,-1.53858 z m -3.01928,-1.88584 q 0.27974,-0.48232 0.70417,-0.71383 0.42926,-0.23633 1.02251,-0.23633 0.98392,0 1.59645,0.78135 0.61737,0.78134 0.61737,2.05465 0,1.27331 -0.61737,2.05466 -0.61253,0.78134 -1.59645,0.78134 -0.59325,0 -1.02251,-0.23151 -0.42443,-0.23633 -0.70417,-0.71864 v 0.81028 h -0.89228 v -7.50479 h 0.89228 z"
           style="font-style:normal;font-variant:normal;font-weight:normal;font-stretch:normal;font-family:sans-serif;-inkscape-font-specification:sans-serif;text-align:center;text-anchor:middle;stroke-width:0.26458332"
           id="path4632" />
        <path
           d="m 136.67592,239.10087 q -0.71382,0 -1.12861,0.55948 -0.41479,0.55466 -0.41479,1.52411 0,0.96945 0.40996,1.52893 0.41479,0.55466 1.13344,0.55466 0.709,0 1.12379,-0.55948 0.41479,-0.55948 0.41479,-1.52411 0,-0.9598 -0.41479,-1.51929 -0.41479,-0.5643 -1.12379,-0.5643 z m 0,-0.75241 q 1.15755,0 1.81832,0.75241 0.66077,0.75241 0.66077,2.08359 0,1.32636 -0.66077,2.08359 -0.66077,0.75241 -1.81832,0.75241 -1.16237,0 -1.82314,-0.75241 -0.65595,-0.75723 -0.65595,-2.08359 0,-1.33118 0.65595,-2.08359 0.66077,-0.75241 1.82314,-0.75241 z"
           style="font-style:normal;font-variant:normal;font-weight:normal;font-stretch:normal;font-family:sans-serif;-inkscape-font-specification:sans-serif;text-align:center;text-anchor:middle;stroke-width:0.26458332"
           id="path4634" />
        <path
           d="m 141.49906,236.94493 v 1.53375 h 1.82797 v 0.68971 h -1.82797 v 2.93247 q 0,0.66077 0.17845,0.84887 0.18328,0.1881 0.73794,0.1881 h 0.91158 v 0.74276 h -0.91158 q -1.02732,0 -1.418,-0.38103 -0.39067,-0.38585 -0.39067,-1.3987 v -2.93247 h -0.65112 v -0.68971 h 0.65112 v -1.53375 z"
           style="font-style:normal;font-variant:normal;font-weight:normal;font-stretch:normal;font-family:sans-serif;-inkscape-font-specification:sans-serif;text-align:center;text-anchor:middle;stroke-width:0.26458332"
           id="path4636" />
        <path
           d="m 149.11961,240.95777 v 0.43409 h -4.08037 q 0.0579,0.91639 0.54984,1.3987 0.49678,0.47749 1.37941,0.47749 0.51125,0 0.98874,-0.1254 0.48232,-0.1254 0.95498,-0.3762 v 0.83922 q -0.47749,0.20258 -0.97909,0.30868 -0.50161,0.10611 -1.01768,0.10611 -1.2926,0 -2.04983,-0.75241 -0.75241,-0.7524 -0.75241,-2.03536 0,-1.32636 0.71382,-2.10288 0.71865,-0.78135 1.93408,-0.78135 1.09003,0 1.72186,0.70418 0.63665,0.69935 0.63665,1.90513 z m -0.88746,-0.26045 q -0.01,-0.72829 -0.40996,-1.16237 -0.3955,-0.43408 -1.05145,-0.43408 -0.74276,0 -1.19131,0.41961 -0.44373,0.41961 -0.51125,1.18167 z"
           style="font-style:normal;font-variant:normal;font-weight:normal;font-stretch:normal;font-family:sans-serif;-inkscape-font-specification:sans-serif;text-align:center;text-anchor:middle;stroke-width:0.26458332"
           id="path4638" />
        <path
           d="m 155.06653,240.62015 v 3.26044 h -0.88746 v -3.2315 q 0,-0.76688 -0.29904,-1.1479 -0.29903,-0.38103 -0.8971,-0.38103 -0.71864,0 -1.13343,0.4582 -0.41479,0.4582 -0.41479,1.24919 v 3.05304 h -0.89228 v -5.40191 h 0.89228 v 0.83923 q 0.31832,-0.48714 0.74758,-0.72829 0.43408,-0.24116 0.99839,-0.24116 0.93087,0 1.40836,0.57877 0.47749,0.57396 0.47749,1.69292 z"
           style="font-style:normal;font-variant:normal;font-weight:normal;font-stretch:normal;font-family:sans-serif;-inkscape-font-specification:sans-serif;text-align:center;text-anchor:middle;stroke-width:0.26458332"
           id="path4640" />
        <path
           d="m 157.40575,242.65552 h 0.9791 v 1.22507 h -0.9791 z m 0,-5.97587 h 0.9791 v 3.15916 l -0.0965,1.72186 h -0.78135 l -0.10129,-1.72186 z"
           style="font-style:normal;font-variant:normal;font-weight:normal;font-stretch:normal;font-family:sans-serif;-inkscape-font-specification:sans-serif;text-align:center;text-anchor:middle;stroke-width:0.26458332"
           id="path4642" />
      </g>
    </g>
  </g>
</svg>
